%TF.GenerationSoftware,KiCad,Pcbnew,9.0.6*%
%TF.CreationDate,2026-01-01T02:46:18-05:00*%
%TF.ProjectId,Project Resonator Crossover Circuit PCB,50726f6a-6563-4742-9052-65736f6e6174,rev?*%
%TF.SameCoordinates,Original*%
%TF.FileFunction,Copper,L2,Bot*%
%TF.FilePolarity,Positive*%
%FSLAX46Y46*%
G04 Gerber Fmt 4.6, Leading zero omitted, Abs format (unit mm)*
G04 Created by KiCad (PCBNEW 9.0.6) date 2026-01-01 02:46:18*
%MOMM*%
%LPD*%
G01*
G04 APERTURE LIST*
%TA.AperFunction,ViaPad*%
%ADD10C,0.508000*%
%TD*%
%TA.AperFunction,Conductor*%
%ADD11C,0.254000*%
%TD*%
G04 APERTURE END LIST*
D10*
%TO.N,GND*%
X164846000Y-100330000D03*
X155194000Y-96266000D03*
X162814000Y-103886000D03*
X159512000Y-88138000D03*
X151892000Y-100330000D03*
X153924000Y-103886000D03*
X160782000Y-98806000D03*
X163830000Y-100330000D03*
X158242000Y-103124000D03*
%TO.N,+*%
X154178000Y-96266000D03*
X158750000Y-95504000D03*
X155194000Y-93726000D03*
X158750000Y-93980000D03*
%TD*%
D11*
%TO.N,GND*%
X152146000Y-100076000D02*
X153162000Y-100076000D01*
X155956000Y-99568000D02*
X156972000Y-100584000D01*
X162052000Y-91948000D02*
X162052000Y-98552000D01*
X153924000Y-103886000D02*
X154940000Y-103886000D01*
X160782000Y-100076000D02*
X161290000Y-100584000D01*
X155448000Y-101092000D02*
X155956000Y-100584000D01*
X159766000Y-91186000D02*
X161290000Y-91186000D01*
X161290000Y-91186000D02*
X162052000Y-91948000D01*
X154940000Y-103886000D02*
X155448000Y-103378000D01*
X160782000Y-98806000D02*
X160782000Y-100076000D01*
X153670000Y-100584000D02*
X155956000Y-100584000D01*
X164338000Y-99060000D02*
X164846000Y-99568000D01*
X158750000Y-88138000D02*
X158496000Y-88392000D01*
X162052000Y-98552000D02*
X162560000Y-99060000D01*
X161290000Y-100584000D02*
X163576000Y-100584000D01*
X153162000Y-100076000D02*
X153670000Y-100584000D01*
X155956000Y-97028000D02*
X155956000Y-99568000D01*
X151892000Y-100330000D02*
X152146000Y-100076000D01*
X158496000Y-88392000D02*
X158496000Y-89916000D01*
X159004000Y-103886000D02*
X162814000Y-103886000D01*
X155956000Y-100584000D02*
X156972000Y-100584000D01*
X163576000Y-100584000D02*
X163830000Y-100330000D01*
X155448000Y-103378000D02*
X155448000Y-101092000D01*
X164846000Y-99568000D02*
X164846000Y-100330000D01*
X156972000Y-100584000D02*
X161290000Y-100584000D01*
X155194000Y-96266000D02*
X155956000Y-97028000D01*
X158242000Y-103124000D02*
X159004000Y-103886000D01*
X158496000Y-89916000D02*
X159766000Y-91186000D01*
X159512000Y-88138000D02*
X158750000Y-88138000D01*
X162560000Y-99060000D02*
X164338000Y-99060000D01*
%TO.N,+*%
X155194000Y-94996000D02*
X155194000Y-93726000D01*
X154178000Y-96266000D02*
X154178000Y-96012000D01*
X158750000Y-95504000D02*
X158750000Y-93980000D01*
X154940000Y-95250000D02*
X155194000Y-94996000D01*
X154178000Y-96012000D02*
X154940000Y-95250000D01*
%TD*%
%TA.AperFunction,Conductor*%
%TO.N,GND*%
G36*
X159031936Y-87285090D02*
G01*
X159360990Y-87307027D01*
X159362897Y-87307169D01*
X159591885Y-87326252D01*
X159617214Y-87331054D01*
X159780941Y-87380172D01*
X159789821Y-87383206D01*
X160054565Y-87485031D01*
X160077378Y-87493805D01*
X160083226Y-87496227D01*
X160258123Y-87573959D01*
X160271560Y-87580943D01*
X160344304Y-87624590D01*
X160351613Y-87629332D01*
X160570362Y-87782456D01*
X160575369Y-87786153D01*
X160744784Y-87917921D01*
X160760408Y-87932389D01*
X160971374Y-88164452D01*
X160972300Y-88165482D01*
X161140768Y-88355008D01*
X161151263Y-88368606D01*
X161518552Y-88919539D01*
X161521707Y-88924525D01*
X161711655Y-89241105D01*
X161720800Y-89259716D01*
X161923675Y-89778172D01*
X161924735Y-89780982D01*
X162215331Y-90580121D01*
X162217758Y-90587508D01*
X162316092Y-90921844D01*
X162316092Y-90921845D01*
X162318958Y-90931590D01*
X162319040Y-90934011D01*
X162337790Y-90995623D01*
X162337947Y-90996154D01*
X162337982Y-90996270D01*
X162356675Y-91059825D01*
X162360273Y-91069494D01*
X162491724Y-91501403D01*
X162491723Y-91501403D01*
X162494270Y-91509772D01*
X162494299Y-91510558D01*
X162513738Y-91573737D01*
X162530703Y-91629478D01*
X162534788Y-91642900D01*
X162536011Y-91646125D01*
X162709009Y-92208368D01*
X162710790Y-92214761D01*
X162916389Y-93037159D01*
X162919387Y-93049151D01*
X162920139Y-93065385D01*
X162935572Y-93113891D01*
X162947919Y-93163276D01*
X162949767Y-93166605D01*
X162949808Y-93166679D01*
X162959553Y-93189261D01*
X163083437Y-93578611D01*
X163098787Y-93626853D01*
X163099904Y-93638832D01*
X163119027Y-93690467D01*
X163119903Y-93693218D01*
X163135735Y-93742973D01*
X163138395Y-93748638D01*
X163146877Y-93765661D01*
X163293645Y-94161934D01*
X163369842Y-94367667D01*
X163372516Y-94374885D01*
X163372742Y-94375503D01*
X163554181Y-94874458D01*
X163556244Y-94888776D01*
X163576988Y-94937179D01*
X163578180Y-94940457D01*
X163594992Y-94986689D01*
X163595952Y-94988061D01*
X163608326Y-95010303D01*
X163796546Y-95449481D01*
X163798715Y-95454541D01*
X163812505Y-95496703D01*
X163824985Y-95515840D01*
X163829221Y-95525723D01*
X163829221Y-95525724D01*
X163833982Y-95536833D01*
X163833984Y-95536836D01*
X163833986Y-95536840D01*
X163858011Y-95567372D01*
X163864421Y-95576308D01*
X163954721Y-95714768D01*
X164208807Y-96104367D01*
X164226406Y-96139175D01*
X164245225Y-96160208D01*
X164250382Y-96168115D01*
X164260644Y-96183850D01*
X164260647Y-96183853D01*
X164284602Y-96205338D01*
X164294217Y-96214964D01*
X164552569Y-96503710D01*
X164674639Y-96640140D01*
X164674639Y-96640141D01*
X164678837Y-96644833D01*
X164703020Y-96678107D01*
X164723288Y-96694515D01*
X164729933Y-96701941D01*
X164740682Y-96713955D01*
X164755553Y-96723678D01*
X164769856Y-96733031D01*
X164779992Y-96740418D01*
X165265973Y-97133831D01*
X165271352Y-97138446D01*
X165500545Y-97346804D01*
X165512392Y-97359173D01*
X165670211Y-97548556D01*
X165690083Y-97581886D01*
X165739437Y-97705271D01*
X165743934Y-97718689D01*
X165790967Y-97891145D01*
X165795208Y-97918140D01*
X165816372Y-98383740D01*
X165816500Y-98389371D01*
X165816500Y-99072547D01*
X165816034Y-99083289D01*
X165774876Y-99556594D01*
X165773863Y-99568232D01*
X165772562Y-99571996D01*
X165768075Y-99634793D01*
X165767989Y-99635791D01*
X165762611Y-99697650D01*
X165762668Y-99698937D01*
X165762473Y-99713219D01*
X165718432Y-100329800D01*
X165718132Y-100333303D01*
X165670569Y-100808932D01*
X165669812Y-100814988D01*
X165634508Y-101050347D01*
X165606945Y-101234101D01*
X165606651Y-101234784D01*
X165597087Y-101299811D01*
X165597026Y-101300221D01*
X165597003Y-101300381D01*
X165586283Y-101371855D01*
X165586016Y-101375087D01*
X165474907Y-102130638D01*
X165473474Y-102138578D01*
X165414561Y-102413508D01*
X165408081Y-102434474D01*
X165254249Y-102810512D01*
X165210831Y-102916644D01*
X165208126Y-102922776D01*
X165003734Y-103354269D01*
X164998000Y-103364984D01*
X164754023Y-103771612D01*
X164735375Y-103795495D01*
X164541657Y-103989214D01*
X164530812Y-103998859D01*
X164116686Y-104325799D01*
X164103648Y-104334802D01*
X163426927Y-104740835D01*
X163411248Y-104748789D01*
X163012752Y-104916577D01*
X162998698Y-104921523D01*
X162348853Y-105107193D01*
X162343509Y-105108592D01*
X161859230Y-105223896D01*
X161848550Y-105225949D01*
X161046219Y-105343939D01*
X161038267Y-105344847D01*
X159859318Y-105441089D01*
X159849229Y-105441500D01*
X158770387Y-105441500D01*
X158762403Y-105441243D01*
X158013652Y-105392935D01*
X158011339Y-105392764D01*
X157427927Y-105344147D01*
X157423736Y-105343726D01*
X156589246Y-105245551D01*
X156587346Y-105245312D01*
X156221477Y-105196530D01*
X156219824Y-105196299D01*
X155390053Y-105074274D01*
X155383776Y-105073185D01*
X155046100Y-105005650D01*
X155037791Y-105003689D01*
X154528573Y-104864811D01*
X154520890Y-104862445D01*
X153749467Y-104597268D01*
X153745917Y-104595987D01*
X152880351Y-104268475D01*
X152861373Y-104259384D01*
X152498161Y-104045730D01*
X152492248Y-104042024D01*
X152068839Y-103759752D01*
X152064293Y-103756572D01*
X151944766Y-103668919D01*
X151766745Y-103538369D01*
X151743702Y-103516402D01*
X151382215Y-103069860D01*
X151377710Y-103063939D01*
X151183059Y-102791427D01*
X151168839Y-102765419D01*
X151061230Y-102496396D01*
X151056548Y-102482294D01*
X151012034Y-102315367D01*
X150984834Y-102213368D01*
X150980722Y-102185701D01*
X150960407Y-101596549D01*
X150961015Y-101593786D01*
X150958103Y-101529725D01*
X150955891Y-101465571D01*
X150955890Y-101465568D01*
X150955845Y-101464255D01*
X150954586Y-101452350D01*
X150934763Y-101016250D01*
X150937767Y-100988846D01*
X150931736Y-100949648D01*
X150929936Y-100910034D01*
X150924501Y-100892904D01*
X150920140Y-100874274D01*
X150878319Y-100602434D01*
X150878065Y-100600696D01*
X150786177Y-99934502D01*
X150787128Y-99922088D01*
X150777053Y-99868359D01*
X150769584Y-99814203D01*
X150769583Y-99814201D01*
X150768598Y-99810615D01*
X150762297Y-99789664D01*
X150745202Y-99698492D01*
X150702326Y-99469816D01*
X150701448Y-99464500D01*
X150659746Y-99172582D01*
X150658500Y-99155046D01*
X150658500Y-98617010D01*
X150661252Y-98591029D01*
X150705067Y-98386556D01*
X150714874Y-98340788D01*
X150718484Y-98327563D01*
X150724987Y-98308055D01*
X150775102Y-98157708D01*
X150778258Y-98149278D01*
X150988980Y-97643546D01*
X151004233Y-97616854D01*
X151316725Y-97200197D01*
X151322920Y-97192587D01*
X151674248Y-96794416D01*
X151677008Y-96791393D01*
X152083462Y-96361030D01*
X152087927Y-96356542D01*
X153134270Y-95357760D01*
X153142106Y-95353110D01*
X153182604Y-95311623D01*
X153224532Y-95271602D01*
X153224533Y-95271598D01*
X153229629Y-95265270D01*
X153229957Y-95265534D01*
X153239120Y-95253728D01*
X154200284Y-94269122D01*
X154235963Y-94237767D01*
X154246882Y-94221388D01*
X154260633Y-94207302D01*
X154281566Y-94170013D01*
X154283320Y-94167805D01*
X154283710Y-94166344D01*
X154286502Y-94161956D01*
X154328964Y-94098264D01*
X154382526Y-94053405D01*
X154451842Y-94044625D01*
X154514901Y-94074713D01*
X154535237Y-94098156D01*
X154545601Y-94113666D01*
X154555919Y-94146618D01*
X154566460Y-94179414D01*
X154566335Y-94179881D01*
X154566480Y-94180343D01*
X154566500Y-94182559D01*
X154566500Y-94684719D01*
X154546815Y-94751758D01*
X154530181Y-94772400D01*
X153777992Y-95524589D01*
X153735216Y-95567365D01*
X153690586Y-95611994D01*
X153690585Y-95611996D01*
X153621920Y-95714761D01*
X153621916Y-95714768D01*
X153612540Y-95737406D01*
X153612537Y-95737413D01*
X153598900Y-95770331D01*
X153587444Y-95791763D01*
X153509370Y-95908611D01*
X153452495Y-96045919D01*
X153452493Y-96045927D01*
X153423500Y-96191683D01*
X153423500Y-96340316D01*
X153452493Y-96486072D01*
X153452495Y-96486080D01*
X153509371Y-96623391D01*
X153591939Y-96746964D01*
X153591945Y-96746971D01*
X153697028Y-96852054D01*
X153697035Y-96852060D01*
X153820608Y-96934628D01*
X153820609Y-96934628D01*
X153820610Y-96934629D01*
X153957920Y-96991505D01*
X154103683Y-97020499D01*
X154103687Y-97020500D01*
X154103688Y-97020500D01*
X154252313Y-97020500D01*
X154252314Y-97020499D01*
X154398080Y-96991505D01*
X154535390Y-96934629D01*
X154658966Y-96852059D01*
X154764059Y-96746966D01*
X154846629Y-96623390D01*
X154903505Y-96486080D01*
X154932500Y-96340312D01*
X154932500Y-96196280D01*
X154952185Y-96129241D01*
X154968819Y-96108599D01*
X155427411Y-95650008D01*
X155681408Y-95396011D01*
X155681411Y-95396008D01*
X155750083Y-95293233D01*
X155797385Y-95179035D01*
X155821500Y-95057803D01*
X155821500Y-94934197D01*
X155821500Y-94182559D01*
X155841185Y-94115520D01*
X155842399Y-94113667D01*
X155862624Y-94083398D01*
X155862625Y-94083395D01*
X155862629Y-94083390D01*
X155919505Y-93946080D01*
X155922558Y-93930730D01*
X155927541Y-93905683D01*
X157995500Y-93905683D01*
X157995500Y-94054316D01*
X158024493Y-94200072D01*
X158024495Y-94200080D01*
X158081369Y-94337387D01*
X158081375Y-94337398D01*
X158101601Y-94367667D01*
X158122480Y-94434344D01*
X158122500Y-94436559D01*
X158122500Y-95047440D01*
X158102815Y-95114479D01*
X158101603Y-95116329D01*
X158081371Y-95146608D01*
X158024495Y-95283919D01*
X158024493Y-95283927D01*
X157995500Y-95429683D01*
X157995500Y-95578316D01*
X158024493Y-95724072D01*
X158024495Y-95724080D01*
X158081371Y-95861391D01*
X158163939Y-95984964D01*
X158163945Y-95984971D01*
X158269028Y-96090054D01*
X158269035Y-96090060D01*
X158392608Y-96172628D01*
X158392609Y-96172628D01*
X158392610Y-96172629D01*
X158529920Y-96229505D01*
X158675683Y-96258499D01*
X158675687Y-96258500D01*
X158675688Y-96258500D01*
X158824313Y-96258500D01*
X158824314Y-96258499D01*
X158970080Y-96229505D01*
X159107390Y-96172629D01*
X159230966Y-96090059D01*
X159336059Y-95984966D01*
X159418629Y-95861390D01*
X159475505Y-95724080D01*
X159504500Y-95578312D01*
X159504500Y-95429688D01*
X159475505Y-95283920D01*
X159418629Y-95146610D01*
X159418628Y-95146608D01*
X159398397Y-95116329D01*
X159377520Y-95049651D01*
X159377500Y-95047440D01*
X159377500Y-94436559D01*
X159397185Y-94369520D01*
X159398399Y-94367667D01*
X159418624Y-94337398D01*
X159418625Y-94337395D01*
X159418629Y-94337390D01*
X159475505Y-94200080D01*
X159504500Y-94054312D01*
X159504500Y-93905688D01*
X159475505Y-93759920D01*
X159418629Y-93622610D01*
X159340659Y-93505919D01*
X159336060Y-93499035D01*
X159336054Y-93499028D01*
X159230971Y-93393945D01*
X159230964Y-93393939D01*
X159107391Y-93311371D01*
X158970080Y-93254495D01*
X158970072Y-93254493D01*
X158824316Y-93225500D01*
X158824312Y-93225500D01*
X158675688Y-93225500D01*
X158675683Y-93225500D01*
X158529927Y-93254493D01*
X158529919Y-93254495D01*
X158392608Y-93311371D01*
X158269035Y-93393939D01*
X158269028Y-93393945D01*
X158163945Y-93499028D01*
X158163939Y-93499035D01*
X158081371Y-93622608D01*
X158024495Y-93759919D01*
X158024493Y-93759927D01*
X157995500Y-93905683D01*
X155927541Y-93905683D01*
X155933564Y-93875404D01*
X155933564Y-93875403D01*
X155948499Y-93800316D01*
X155948500Y-93800313D01*
X155948500Y-93651687D01*
X155948499Y-93651683D01*
X155919506Y-93505927D01*
X155919505Y-93505920D01*
X155862629Y-93368610D01*
X155856557Y-93359523D01*
X155780060Y-93245035D01*
X155780054Y-93245028D01*
X155674971Y-93139945D01*
X155674964Y-93139939D01*
X155551391Y-93057371D01*
X155414080Y-93000495D01*
X155414072Y-93000493D01*
X155268316Y-92971500D01*
X155268312Y-92971500D01*
X155121532Y-92971500D01*
X155089714Y-92962157D01*
X155057606Y-92953752D01*
X155056317Y-92952350D01*
X155054493Y-92951815D01*
X155032774Y-92926750D01*
X155010310Y-92902323D01*
X155009983Y-92900448D01*
X155008738Y-92899011D01*
X155004016Y-92866174D01*
X154998326Y-92833489D01*
X154998965Y-92831045D01*
X154998794Y-92829853D01*
X155007264Y-92799346D01*
X155016201Y-92778139D01*
X155017123Y-92776005D01*
X155041862Y-92720347D01*
X155041863Y-92720337D01*
X155042953Y-92716653D01*
X155043067Y-92716331D01*
X155043490Y-92714851D01*
X155043564Y-92714508D01*
X155044580Y-92710806D01*
X155044584Y-92710797D01*
X155053060Y-92649345D01*
X155062721Y-92588090D01*
X155062194Y-92583116D01*
X155148334Y-91958593D01*
X155151392Y-91943467D01*
X155158500Y-91916945D01*
X155158500Y-91884903D01*
X155162878Y-91853163D01*
X155158500Y-91818245D01*
X155158500Y-91424821D01*
X155160055Y-91411717D01*
X155159236Y-91411632D01*
X155160085Y-91403542D01*
X155158543Y-91344947D01*
X155158500Y-91341685D01*
X155158500Y-91283053D01*
X155157439Y-91274997D01*
X155158247Y-91274890D01*
X155156355Y-91261825D01*
X155147728Y-90934011D01*
X155134779Y-90441940D01*
X155136977Y-90430546D01*
X155133023Y-90375194D01*
X155131563Y-90319701D01*
X155131561Y-90319694D01*
X155130290Y-90311671D01*
X155130310Y-90311667D01*
X155127302Y-90295113D01*
X155112970Y-90094454D01*
X155114727Y-90063055D01*
X155214155Y-89526147D01*
X155220512Y-89503790D01*
X155368496Y-89123262D01*
X155370751Y-89117845D01*
X155437014Y-88968753D01*
X155450333Y-88945785D01*
X155469580Y-88919539D01*
X155646542Y-88678226D01*
X155663575Y-88659398D01*
X155860827Y-88481871D01*
X155862495Y-88480397D01*
X156202861Y-88185414D01*
X156215274Y-88175956D01*
X156313949Y-88110173D01*
X156321185Y-88105701D01*
X156629619Y-87929453D01*
X156638687Y-87924757D01*
X156979134Y-87765881D01*
X156983430Y-87763976D01*
X157424965Y-87578066D01*
X157433826Y-87574729D01*
X157961146Y-87398956D01*
X157981005Y-87394113D01*
X158381359Y-87330899D01*
X158390367Y-87329814D01*
X158660692Y-87307287D01*
X158663214Y-87307103D01*
X159015957Y-87285057D01*
X159031936Y-87285090D01*
G37*
%TD.AperFunction*%
%TD*%
M02*
