<svg version="1.1" id="Layer_1" xmlns="http://www.w3.org/2000/svg" xmlns:xlink="http://www.w3.org/1999/xlink" x="0px" y="0px"
	 width="100%" viewBox="0 0 1008 1024" enable-background="new 0 0 1008 1024" xml:space="preserve">
<path fill="#000000" opacity="1.000000" stroke="none" 
	d="
M428.184143,854.099487 
	C418.365204,874.343201 407.012207,893.140686 393.461853,910.725769 
	C379.442627,928.919312 363.318634,944.749084 344.072357,957.134094 
	C327.758545,967.632141 310.116577,974.085999 290.324860,976.231873 
	C265.858551,978.884521 243.600006,974.298767 223.607101,960.852600 
	C204.188751,947.792969 190.714691,929.466248 181.397064,907.834778 
	C175.593307,894.361023 171.575836,880.462341 168.566757,866.249756 
	C166.968796,858.702148 166.414062,850.904419 165.539398,843.196838 
	C164.333710,832.572327 164.628540,821.988281 164.669464,811.389465 
	C164.719864,798.338013 166.592697,785.456543 168.230576,772.507629 
	C169.647308,761.307190 171.911697,750.312378 174.513290,739.472839 
	C177.664001,726.345459 181.716034,713.363281 186.809875,700.755859 
	C192.595276,686.437012 198.883041,672.371155 205.923157,658.626099 
	C207.784454,654.992065 209.954590,653.002747 214.173187,654.717102 
	C218.278397,656.385437 219.473633,658.567444 217.644196,663.222351 
	C210.501617,681.396179 204.793686,700.047974 200.597855,719.141907 
	C199.037216,726.243835 198.357986,733.521729 196.949112,740.600891 
	C193.907074,755.885986 194.395844,771.239685 194.279465,786.618286 
	C194.166275,801.577942 196.959732,816.073120 200.680801,830.507263 
	C205.907089,850.780151 215.245529,868.445435 231.032593,882.534119 
	C242.009689,892.330200 255.077576,897.431396 269.110565,900.768372 
	C275.244202,902.226929 281.570068,901.621033 287.751434,903.342346 
	C291.662048,904.431213 296.200012,904.252930 300.485046,902.550049 
	C304.979279,900.763916 309.975769,901.809998 314.775574,901.062439 
	C332.906464,898.238770 349.115234,890.995850 363.881653,880.550720 
	C385.889465,864.983459 402.958344,844.885559 416.819733,821.816895 
	C425.402649,807.532898 432.961792,792.768066 438.831512,777.245667 
	C444.137299,763.214661 449.454071,749.162598 452.140900,734.209167 
	C453.821167,724.857727 453.951111,715.488403 454.949585,706.151855 
	C456.852905,688.354919 455.526733,670.562500 455.963989,652.777405 
	C456.221191,642.315491 454.881256,632.071777 452.315887,621.833618 
	C450.318726,613.863281 450.751923,605.606323 453.164154,597.411133 
	C454.691254,592.223083 454.793671,586.619019 457.290253,581.619690 
	C460.346344,575.499878 463.495117,575.140747 467.640472,580.617615 
	C469.032379,582.456543 470.934570,583.791382 472.967590,584.111633 
	C481.197571,585.408081 488.915375,585.110535 495.759918,578.848145 
	C504.296478,571.037720 509.083771,560.720947 515.623352,551.583801 
	C516.684143,550.101685 517.774292,548.614502 519.032776,547.304443 
	C524.080750,542.050110 528.953796,542.310730 532.926331,548.367981 
	C535.386169,552.118774 538.360291,554.935913 542.407837,556.871399 
	C549.773804,560.393860 556.735840,559.448242 562.998840,554.734070 
	C569.871216,549.561279 574.451050,542.366150 578.626648,534.953857 
	C582.368896,528.311035 585.863586,521.515137 589.889282,515.049377 
	C594.043579,508.376923 598.544556,508.164551 603.808350,513.984497 
	C605.699158,516.075073 607.671814,518.198608 609.048035,520.624268 
	C611.599060,525.120300 615.751160,526.736206 620.597534,528.028076 
	C622.011169,524.505798 624.687195,522.926208 628.394592,522.179688 
	C638.528931,520.138977 644.415466,512.619568 649.607422,504.562927 
	C658.244995,491.159637 662.915161,476.333954 666.034546,460.727234 
	C669.704346,442.366211 669.393921,423.880157 670.164307,405.366180 
	C670.564026,395.759949 672.193481,386.114258 674.008850,376.540802 
	C676.293396,364.493866 679.515442,352.798126 683.514343,341.258423 
	C688.246460,327.602722 694.218994,314.567993 701.036682,301.780029 
	C708.026550,288.669189 716.415466,276.550659 725.378723,264.919891 
	C736.612366,250.342972 749.349548,237.062531 763.241333,224.777512 
	C775.955811,213.533600 789.465271,203.476181 803.071716,193.444733 
	C818.792053,181.854767 834.713257,170.531967 849.713318,157.976212 
	C856.450439,152.336945 863.292542,146.810486 869.564331,140.674850 
	C879.824707,130.637177 887.804382,118.795647 895.665161,106.856934 
	C896.818970,105.104500 897.124695,101.033051 901.175232,102.583115 
	C904.690674,103.928452 906.259521,106.331596 906.115967,110.266640 
	C905.314270,132.248047 898.099731,151.537460 883.625793,168.358170 
	C867.354492,187.267715 847.410461,201.740875 827.638367,216.472778 
	C808.002930,231.102844 788.336975,245.695282 768.510071,260.063690 
	C753.611450,270.860504 739.047913,282.030029 726.395386,295.449402 
	C716.305298,306.151062 709.242493,318.363983 706.783020,333.255829 
	C705.018005,343.942993 704.369751,354.595581 704.079102,365.373077 
	C703.744934,377.762695 702.198181,390.064209 700.540100,402.365814 
	C699.416321,410.703461 698.008118,418.951447 696.368103,427.187195 
	C693.558044,441.298370 689.919067,455.197968 685.143250,468.752747 
	C678.970154,486.273376 672.420166,503.671509 663.819885,520.188599 
	C657.894836,531.567871 651.076233,542.325073 641.318848,550.949585 
	C639.776245,552.313110 638.099487,553.241821 636.345032,554.179382 
	C632.630066,556.164734 628.021790,556.832642 625.961426,561.316895 
	C625.708618,561.867065 624.573120,562.273010 623.832092,562.296997 
	C616.850586,562.523315 609.914124,562.641663 603.452271,559.139404 
	C595.640381,554.905396 593.169861,556.001282 587.805359,563.182251 
	C580.381470,573.119995 573.121582,583.393860 561.822998,589.537048 
	C551.557983,595.118225 540.825684,596.457520 529.924072,591.721680 
	C524.971252,589.570129 521.026489,589.593140 517.614258,594.151672 
	C513.213196,600.031128 508.050690,605.240234 502.668854,610.190552 
	C497.005615,615.399597 490.757263,619.750732 482.661743,620.120178 
	C480.023041,620.240601 479.231262,621.580933 479.258789,623.958374 
	C479.366516,633.261536 477.977112,642.476868 477.821136,651.797913 
	C477.589081,665.666809 475.883728,679.489441 474.293488,693.295044 
	C473.139801,703.310486 471.813751,713.298706 469.938080,723.184937 
	C466.524597,741.175964 462.550323,759.043762 457.489502,776.669922 
	C451.400116,797.878662 444.129700,818.658569 435.627747,839.005188 
	C433.516449,844.057861 430.812927,848.863037 428.184143,854.099487 
z"/>
<path fill="#000000" opacity="1.000000" stroke="none" 
	d="
M799.417847,459.115295 
	C806.277283,455.707184 812.522827,458.257111 818.361694,460.659332 
	C829.041077,465.053162 838.804932,471.184265 846.457214,480.007904 
	C855.970459,490.977203 863.213318,502.754303 865.837341,517.810974 
	C867.931519,529.827148 865.278381,540.838623 863.478271,552.049805 
	C860.077698,573.228943 850.950623,592.561829 840.866455,611.236694 
	C833.322449,625.207214 824.766235,638.613403 814.360168,650.865906 
	C807.957825,658.404053 799.943909,662.260620 791.234314,665.257690 
	C775.441284,670.692078 759.156311,674.039856 742.643005,676.702881 
	C735.374695,677.875000 727.922119,678.466553 720.776733,680.533630 
	C716.820312,681.678223 714.884155,679.302063 713.537964,676.138977 
	C712.181152,672.951172 712.686707,670.459778 716.010620,668.611877 
	C731.107239,660.219116 746.246399,651.894165 761.169922,643.201050 
	C781.092651,631.595764 800.470947,619.112305 819.726196,606.422913 
	C830.110901,599.579163 831.321167,590.400208 829.366150,579.216248 
	C828.017944,571.503113 826.538757,563.921631 823.395386,556.780273 
	C816.583313,541.303955 803.859924,532.486328 788.683289,526.539124 
	C786.833374,525.814209 785.009033,525.022156 783.186157,524.230408 
	C781.415527,523.461365 780.571777,521.961853 780.966248,520.186523 
	C785.427307,500.110107 788.114197,479.518433 797.944824,460.983917 
	C798.252014,460.404724 798.729126,459.915649 799.417847,459.115295 
z"/>
<path fill="#000000" opacity="1.000000" stroke="none" 
	d="
M568.225342,379.086975 
	C573.362976,376.175415 574.721436,376.827026 577.712402,381.183380 
	C587.003113,394.715057 598.073608,406.621124 612.084290,415.346252 
	C616.211670,417.916565 616.406433,420.618866 614.317261,423.922150 
	C605.179565,438.370117 593.544556,450.523407 579.986145,460.924561 
	C576.438171,463.646362 573.106934,463.205353 569.898132,461.141296 
	C559.048218,454.162018 549.822266,445.338379 541.806213,435.272339 
	C539.175903,431.969391 537.360840,431.611633 534.929321,435.281097 
	C529.372986,443.666077 522.126526,450.488647 515.227112,457.662933 
	C512.206238,460.804169 508.766541,463.397491 505.378082,466.038147 
	C502.088806,468.601471 498.124939,468.709045 494.697205,466.414490 
	C480.611237,456.985199 468.827179,445.150146 459.452057,431.049957 
	C457.324341,427.849884 456.855042,423.842499 459.317871,420.188965 
	C466.956543,408.857117 475.688965,398.490295 486.206879,389.698242 
	C488.241669,387.997284 490.197540,386.185089 492.344635,384.639282 
	C495.609314,382.288788 498.855499,382.067352 501.490753,385.626923 
	C505.637146,391.227661 510.557800,396.274292 514.497620,401.932159 
	C518.637695,407.877625 525.096130,410.896027 529.654419,416.164612 
	C531.218811,417.972687 532.873291,416.863922 534.360474,414.802856 
	C540.656006,406.077728 546.958862,397.296783 554.810913,389.877563 
	C558.879761,386.032928 563.538086,382.812103 568.225342,379.086975 
z"/>
<path fill="#000000" opacity="1.000000" stroke="none" 
	d="
M526.213379,307.751617 
	C530.405945,305.624817 533.090759,306.831818 535.330139,310.353668 
	C542.453796,321.556946 552.610413,330.040436 561.848755,339.321625 
	C564.471313,341.956390 568.459656,342.933807 571.017273,345.999756 
	C572.882629,348.235901 573.111084,349.909180 571.896118,352.643829 
	C568.990845,359.182983 564.096191,364.283234 559.503540,369.360992 
	C553.745544,375.727264 547.713379,381.971283 540.941833,387.413208 
	C535.102112,392.106293 529.926575,392.021149 523.900024,387.451416 
	C511.628723,378.146423 500.791260,367.679413 492.487122,354.563995 
	C489.399139,349.686890 490.228546,345.417786 493.251465,341.772858 
	C501.677704,331.612762 508.942688,320.327026 520.196533,312.756409 
	C522.243774,311.379242 523.973328,309.529724 526.213379,307.751617 
z"/>
</svg>