%TF.GenerationSoftware,KiCad,Pcbnew,9.0.0*%
%TF.CreationDate,2025-04-05T15:42:03-04:00*%
%TF.ProjectId,Project Resonator Crossover Circuit PCB,50726f6a-6563-4742-9052-65736f6e6174,rev?*%
%TF.SameCoordinates,Original*%
%TF.FileFunction,Legend,Top*%
%TF.FilePolarity,Positive*%
%FSLAX46Y46*%
G04 Gerber Fmt 4.6, Leading zero omitted, Abs format (unit mm)*
G04 Created by KiCad (PCBNEW 9.0.0) date 2025-04-05 15:42:03*
%MOMM*%
%LPD*%
G01*
G04 APERTURE LIST*
G04 Aperture macros list*
%AMRoundRect*
0 Rectangle with rounded corners*
0 $1 Rounding radius*
0 $2 $3 $4 $5 $6 $7 $8 $9 X,Y pos of 4 corners*
0 Add a 4 corners polygon primitive as box body*
4,1,4,$2,$3,$4,$5,$6,$7,$8,$9,$2,$3,0*
0 Add four circle primitives for the rounded corners*
1,1,$1+$1,$2,$3*
1,1,$1+$1,$4,$5*
1,1,$1+$1,$6,$7*
1,1,$1+$1,$8,$9*
0 Add four rect primitives between the rounded corners*
20,1,$1+$1,$2,$3,$4,$5,0*
20,1,$1+$1,$4,$5,$6,$7,0*
20,1,$1+$1,$6,$7,$8,$9,0*
20,1,$1+$1,$8,$9,$2,$3,0*%
G04 Aperture macros list end*
%ADD10C,0.120000*%
%ADD11R,1.000000X1.000000*%
%ADD12RoundRect,0.160000X0.160000X-0.197500X0.160000X0.197500X-0.160000X0.197500X-0.160000X-0.197500X0*%
%ADD13RoundRect,0.160000X0.197500X0.160000X-0.197500X0.160000X-0.197500X-0.160000X0.197500X-0.160000X0*%
%ADD14RoundRect,0.155000X0.155000X-0.212500X0.155000X0.212500X-0.155000X0.212500X-0.155000X-0.212500X0*%
%ADD15RoundRect,0.160000X-0.197500X-0.160000X0.197500X-0.160000X0.197500X0.160000X-0.197500X0.160000X0*%
%ADD16RoundRect,0.155000X-0.212500X-0.155000X0.212500X-0.155000X0.212500X0.155000X-0.212500X0.155000X0*%
%ADD17RoundRect,0.160000X-0.160000X0.197500X-0.160000X-0.197500X0.160000X-0.197500X0.160000X0.197500X0*%
%ADD18RoundRect,0.155000X-0.155000X0.212500X-0.155000X-0.212500X0.155000X-0.212500X0.155000X0.212500X0*%
G04 APERTURE END LIST*
D10*
%TO.C,H2*%
X172070800Y-51624000D02*
X173470800Y-51624000D01*
X172070800Y-53024000D02*
X172070800Y-51624000D01*
X173470800Y-51624000D02*
X173470800Y-53024000D01*
X173470800Y-53024000D02*
X172070800Y-53024000D01*
%TO.C,R6*%
X172797200Y-55234821D02*
X172797200Y-54899579D01*
X173557200Y-55234821D02*
X173557200Y-54899579D01*
%TO.C,R3*%
X170474621Y-59564000D02*
X170139379Y-59564000D01*
X170474621Y-60324000D02*
X170139379Y-60324000D01*
%TO.C,C4*%
X164740000Y-59551835D02*
X164740000Y-59320165D01*
X165460000Y-59551835D02*
X165460000Y-59320165D01*
%TO.C,H8*%
X167194000Y-51624000D02*
X168594000Y-51624000D01*
X167194000Y-53024000D02*
X167194000Y-51624000D01*
X168594000Y-51624000D02*
X168594000Y-53024000D01*
X168594000Y-53024000D02*
X167194000Y-53024000D01*
%TO.C,H4*%
X167448000Y-61225200D02*
X168848000Y-61225200D01*
X167448000Y-62625200D02*
X167448000Y-61225200D01*
X168848000Y-61225200D02*
X168848000Y-62625200D01*
X168848000Y-62625200D02*
X167448000Y-62625200D01*
%TO.C,R4*%
X170266379Y-53925200D02*
X170601621Y-53925200D01*
X170266379Y-54685200D02*
X170601621Y-54685200D01*
%TO.C,H1*%
X169683200Y-51624000D02*
X171083200Y-51624000D01*
X169683200Y-53024000D02*
X169683200Y-51624000D01*
X171083200Y-51624000D02*
X171083200Y-53024000D01*
X171083200Y-53024000D02*
X169683200Y-53024000D01*
%TO.C,H9*%
X169632400Y-57212000D02*
X171032400Y-57212000D01*
X169632400Y-58612000D02*
X169632400Y-57212000D01*
X171032400Y-57212000D02*
X171032400Y-58612000D01*
X171032400Y-58612000D02*
X169632400Y-58612000D01*
%TO.C,R7*%
X164720000Y-55031621D02*
X164720000Y-54696379D01*
X165480000Y-55031621D02*
X165480000Y-54696379D01*
%TO.C,R2*%
X166244000Y-59603621D02*
X166244000Y-59268379D01*
X167004000Y-59603621D02*
X167004000Y-59268379D01*
%TO.C,H6*%
X169734000Y-61276000D02*
X171134000Y-61276000D01*
X169734000Y-62676000D02*
X169734000Y-61276000D01*
X171134000Y-61276000D02*
X171134000Y-62676000D01*
X171134000Y-62676000D02*
X169734000Y-62676000D01*
%TO.C,C6*%
X172604165Y-59584000D02*
X172835835Y-59584000D01*
X172604165Y-60304000D02*
X172835835Y-60304000D01*
%TO.C,R1*%
X167768000Y-54696379D02*
X167768000Y-55031621D01*
X168528000Y-54696379D02*
X168528000Y-55031621D01*
%TO.C,H10*%
X172070800Y-57212000D02*
X173470800Y-57212000D01*
X172070800Y-58612000D02*
X172070800Y-57212000D01*
X173470800Y-57212000D02*
X173470800Y-58612000D01*
X173470800Y-58612000D02*
X172070800Y-58612000D01*
%TO.C,H5*%
X172020000Y-61276000D02*
X173420000Y-61276000D01*
X172020000Y-62676000D02*
X172020000Y-61276000D01*
X173420000Y-61276000D02*
X173420000Y-62676000D01*
X173420000Y-62676000D02*
X172020000Y-62676000D01*
%TO.C,H3*%
X164908000Y-61225200D02*
X166308000Y-61225200D01*
X164908000Y-62625200D02*
X164908000Y-61225200D01*
X166308000Y-61225200D02*
X166308000Y-62625200D01*
X166308000Y-62625200D02*
X164908000Y-62625200D01*
%TO.C,H7*%
X164755600Y-51624000D02*
X166155600Y-51624000D01*
X164755600Y-53024000D02*
X164755600Y-51624000D01*
X166155600Y-51624000D02*
X166155600Y-53024000D01*
X166155600Y-53024000D02*
X164755600Y-53024000D01*
%TO.C,C5*%
X167788000Y-59320165D02*
X167788000Y-59551835D01*
X168508000Y-59320165D02*
X168508000Y-59551835D01*
%TO.C,C1*%
X166264000Y-54979835D02*
X166264000Y-54748165D01*
X166984000Y-54979835D02*
X166984000Y-54748165D01*
%TO.C,R5*%
X169910779Y-55373000D02*
X170246021Y-55373000D01*
X169910779Y-56133000D02*
X170246021Y-56133000D01*
%TD*%
%LPC*%
D11*
%TO.C,H2*%
X172770800Y-52324000D03*
%TD*%
D12*
%TO.C,R6*%
X173177200Y-55664700D03*
X173177200Y-54469700D03*
%TD*%
D13*
%TO.C,R3*%
X170904500Y-59944000D03*
X169709500Y-59944000D03*
%TD*%
D14*
%TO.C,C4*%
X165100000Y-60003500D03*
X165100000Y-58868500D03*
%TD*%
D11*
%TO.C,H8*%
X167894000Y-52324000D03*
%TD*%
%TO.C,H4*%
X168148000Y-61925200D03*
%TD*%
D15*
%TO.C,R4*%
X169836500Y-54305200D03*
X171031500Y-54305200D03*
%TD*%
D11*
%TO.C,H1*%
X170383200Y-52324000D03*
%TD*%
%TO.C,H9*%
X170332400Y-57912000D03*
%TD*%
D12*
%TO.C,R7*%
X165100000Y-55461500D03*
X165100000Y-54266500D03*
%TD*%
%TO.C,R2*%
X166624000Y-60033500D03*
X166624000Y-58838500D03*
%TD*%
D11*
%TO.C,H6*%
X170434000Y-61976000D03*
%TD*%
D16*
%TO.C,C6*%
X172152500Y-59944000D03*
X173287500Y-59944000D03*
%TD*%
D17*
%TO.C,R1*%
X168148000Y-54266500D03*
X168148000Y-55461500D03*
%TD*%
D11*
%TO.C,H10*%
X172770800Y-57912000D03*
%TD*%
%TO.C,H5*%
X172720000Y-61976000D03*
%TD*%
%TO.C,H3*%
X165608000Y-61925200D03*
%TD*%
%TO.C,H7*%
X165455600Y-52324000D03*
%TD*%
D18*
%TO.C,C5*%
X168148000Y-58868500D03*
X168148000Y-60003500D03*
%TD*%
D14*
%TO.C,C1*%
X166624000Y-55431500D03*
X166624000Y-54296500D03*
%TD*%
D15*
%TO.C,R5*%
X169480900Y-55753000D03*
X170675900Y-55753000D03*
%TD*%
%LPD*%
M02*
