0
SECTION
2
HEADER
9
$INSUNITS
70
4
9
$ACADVER
1
AC1014
9
$HANDSEED
5
FFFF
0
ENDSEC
0
SECTION
2
TABLES
0
TABLE
2
VPORT
5
8
100
AcDbSymbolTable
0
ENDTAB
0
TABLE
2
LTYPE
5
5
100
AcDbSymbolTable
0
LTYPE
5
14
100
AcDbSymbolTableRecord
100
AcDbLinetypeTableRecord
2
BYBLOCK
70
0
0
LTYPE
5
15
100
AcDbSymbolTableRecord
100
AcDbLinetypeTableRecord
2
BYLAYER
70
0
0
LTYPE
5
16
100
AcDbSymbolTableRecord
100
AcDbLinetypeTableRecord
2
DASHED
70
0
3
Dashed __ __ __ __ __ __ __ __ __ __ __ __ __ _
72
65
73
2
40
0.75
49
0.5
74
0
49
-0.25
74
0
0
ENDTAB
0
TABLE
2
LAYER
5
2
100
AcDbSymbolTable
70
2
0
LAYER
5
50
100
AcDbSymbolTableRecord
100
AcDbLayerTableRecord
2
0
70
0
62
7
6
CONTINUOUS
0
ENDTAB
0
TABLE
2
STYLE
5
3
100
AcDbSymbolTable
70
1
0
STYLE
5
11
100
AcDbSymbolTableRecord
100
AcDbTextStyleTableRecord
2
STANDARD
70
0
0
ENDTAB
0
TABLE
2
VIEW
5
6
100
AcDbSymbolTable
70
0
0
ENDTAB
0
TABLE
2
UCS
5
7
100
AcDbSymbolTable
70
0
0
ENDTAB
0
TABLE
2
APPID
5
9
100
AcDbSymbolTable
70
2
0
APPID
5
12
100
AcDbSymbolTableRecord
100
AcDbRegAppTableRecord
2
ACAD
70
0
0
ENDTAB
0
TABLE
2
DIMSTYLE
5
A
100
AcDbSymbolTable
70
1
0
ENDTAB
0
TABLE
2
BLOCK_RECORD
5
1
100
AcDbSymbolTable
70
1
0
BLOCK_RECORD
5
1F
100
AcDbSymbolTableRecord
100
AcDbBlockTableRecord
2
*MODEL_SPACE
0
BLOCK_RECORD
5
1B
100
AcDbSymbolTableRecord
100
AcDbBlockTableRecord
2
*PAPER_SPACE
0
ENDTAB
0
ENDSEC
0
SECTION
2
BLOCKS
0
BLOCK
5
20
100
AcDbEntity
100
AcDbBlockBegin
2
*MODEL_SPACE
0
ENDBLK
5
21
100
AcDbEntity
100
AcDbBlockEnd
0
BLOCK
5
1C
100
AcDbEntity
100
AcDbBlockBegin
2
*PAPER_SPACE
0
ENDBLK
5
1D
100
AcDbEntity
100
AcDbBlockEnd
0
ENDSEC
0
SECTION
2
ENTITIES
0
POINT
5
100
100
AcDbEntity
8
0
100
AcDbPoint
10
15.175778153286894
20
23.158155603007756
30
-2
0
POINT
5
101
100
AcDbEntity
8
0
100
AcDbPoint
10
4.2458335118675432
20
2.2323307897385196
30
-2
0
SPLINE
5
102
100
AcDbEntity
8
0
100
AcDbSpline
70
6
71
5
72
46
73
40
74
0
42
0.000000001
43
0.0000000001
44
0.0000000001
40
0
40
0
40
0
40
0
40
0
40
0
40
0.028571428571428571
40
0.057142857142857141
40
0.085714285714285715
40
0.11428571428571428
40
0.14285714285714285
40
0.17142857142857143
40
0.20000000000000001
40
0.22857142857142859
40
0.25714285714285717
40
0.28571428571428575
40
0.31428571428571433
40
0.34285714285714292
40
0.3714285714285715
40
0.40000000000000008
40
0.42857142857142866
40
0.45714285714285724
40
0.48571428571428582
40
0.51428571428571435
40
0.54285714285714293
40
0.57142857142857151
40
0.60000000000000009
40
0.62857142857142867
40
0.65714285714285725
40
0.68571428571428583
40
0.71428571428571441
40
0.74285714285714299
40
0.77142857142857157
40
0.80000000000000016
40
0.82857142857142874
40
0.85714285714285732
40
0.8857142857142859
40
0.91428571428571448
40
0.94285714285714306
40
0.97142857142857164
40
1
40
1
40
1
40
1
40
1
40
1
41
1
41
1
41
1
41
1
41
1
41
1
41
1
41
1
41
1
41
1
41
1
41
1
41
1
41
1
41
1
41
1
41
1
41
1
41
1
41
1
41
1
41
1
41
1
41
1
41
1
41
1
41
1
41
1
41
1
41
1
41
1
41
1
41
1
41
1
41
1
41
1
41
1
41
1
41
1
41
1
10
12.394017351830943
20
0.72787697211488789
30
-2
10
13.174360548976532
20
0.72868098055342223
30
-2
10
14.710325671268322
20
0.79511704638234415
30
-2.0000000000000058
10
16.837002724169444
20
1.1017738143173941
30
-2.0000000000000342
10
18.935464717958109
20
1.9526332397937851
30
-2.000000000000028
10
20.356817431734591
20
3.6622277114927004
30
-2.0000000000000315
10
20.91785133094907
20
5.8323412934095664
30
-2.0000000000000111
10
21.092609755386775
20
8.1327424892397513
30
-2.0000000000000004
10
21.266487269802845
20
10.249624241508112
30
-1.9999999999999993
10
21.140645967297566
20
11.571458985784595
30
-2.0000000000000013
10
20.380529768884195
20
12.14317484208792
30
-2.0000000000000009
10
19.292469993527863
20
12.882658042979248
30
-2.0000000000000018
10
18.215870239549865
20
14.635863447937517
30
-1.9999999999999998
10
17.393765974886051
20
17.517664630222491
30
-2.0000000000000009
10
16.634195594781033
20
20.445318110957722
30
-1.9999999999999991
10
15.655500269475324
20
22.888971719746614
30
-1.9999999999999987
10
14.163645910751704
20
24.420320571019403
30
-2.0000000000000009
10
12.08239688587647
20
24.8980071844171
30
-2.0000000000000013
10
9.5528836648508495
20
24.359833784658779
30
-1.9999999999999998
10
7.4261065580933918
20
23.121089931970516
30
-2.0000000000000013
10
6.531786795774865
20
21.581221951511207
30
-1.9999999999999973
10
6.5130668588494949
20
19.94154828137648
30
-1.9999999999999951
10
6.7338691658802681
20
18.328917764193054
30
-1.9999999999999969
10
6.4453028404155148
20
16.781280171825479
30
-2.0000000000000013
10
5.3236540794568139
20
15.288396808848567
30
-2.0000000000000049
10
3.6616350653368279
20
13.814087145275241
30
-2.000000000000008
10
2.0407900150112619
20
12.319669188052579
30
-2.0000000000000075
10
1.0000334446322365
20
10.812324239345383
30
-2.0000000000000036
10
0.87912064530158029
20
9.3255878414110231
30
-1.9999999999999964
10
1.180954604263901
20
8.0664658688262634
30
-2.0000000000000049
10
1.3612357705818168
20
7.0762847853287738
30
-2.0000000000000178
10
1.3796956085478407
20
6.1740524042986333
30
-2.0000000000000115
10
1.3824338521923096
20
5.1796757006922896
30
-1.9999999999999729
10
1.7411234140854257
20
4.0429789201621089
30
-1.9999999999999218
10
2.8546696343468625
20
2.8414621337885992
30
-1.9999999999998845
10
5.0470476840192617
20
1.7279110320879503
30
-1.9999999999999043
10
7.6790979874985696
20
1.0670886683827292
30
-1.9999999999999363
10
10.028266488394745
20
0.79029299575113343
30
-1.9999999999999962
10
11.613674154685363
20
0.72707296367635343
30
-2
10
12.394017351830943
20
0.72787697211488789
30
-2
0
ENDSEC
0
SECTION
2
OBJECTS
0
DICTIONARY
5
C
100
AcDbDictionary
3
ACAD_GROUP
350
D
3
ACAD_MLINESTYLE
350
17
0
DICTIONARY
5
D
100
AcDbDictionary
0
DICTIONARY
5
1A
330
C
100
AcDbDictionary
0
DICTIONARY
5
17
100
AcDbDictionary
0
ENDSEC
0
EOF
