0
SECTION
2
HEADER
9
$INSUNITS
70
4
9
$ACADVER
1
AC1014
9
$HANDSEED
5
FFFF
0
ENDSEC
0
SECTION
2
TABLES
0
TABLE
2
VPORT
5
8
100
AcDbSymbolTable
0
ENDTAB
0
TABLE
2
LTYPE
5
5
100
AcDbSymbolTable
0
LTYPE
5
14
100
AcDbSymbolTableRecord
100
AcDbLinetypeTableRecord
2
BYBLOCK
70
0
0
LTYPE
5
15
100
AcDbSymbolTableRecord
100
AcDbLinetypeTableRecord
2
BYLAYER
70
0
0
LTYPE
5
16
100
AcDbSymbolTableRecord
100
AcDbLinetypeTableRecord
2
DASHED
70
0
3
Dashed __ __ __ __ __ __ __ __ __ __ __ __ __ _
72
65
73
2
40
0.75
49
0.5
74
0
49
-0.25
74
0
0
ENDTAB
0
TABLE
2
LAYER
5
2
100
AcDbSymbolTable
70
2
0
LAYER
5
50
100
AcDbSymbolTableRecord
100
AcDbLayerTableRecord
2
0
70
0
62
7
6
CONTINUOUS
0
ENDTAB
0
TABLE
2
STYLE
5
3
100
AcDbSymbolTable
70
1
0
STYLE
5
11
100
AcDbSymbolTableRecord
100
AcDbTextStyleTableRecord
2
STANDARD
70
0
0
ENDTAB
0
TABLE
2
VIEW
5
6
100
AcDbSymbolTable
70
0
0
ENDTAB
0
TABLE
2
UCS
5
7
100
AcDbSymbolTable
70
0
0
ENDTAB
0
TABLE
2
APPID
5
9
100
AcDbSymbolTable
70
2
0
APPID
5
12
100
AcDbSymbolTableRecord
100
AcDbRegAppTableRecord
2
ACAD
70
0
0
ENDTAB
0
TABLE
2
DIMSTYLE
5
A
100
AcDbSymbolTable
70
1
0
ENDTAB
0
TABLE
2
BLOCK_RECORD
5
1
100
AcDbSymbolTable
70
1
0
BLOCK_RECORD
5
1F
100
AcDbSymbolTableRecord
100
AcDbBlockTableRecord
2
*MODEL_SPACE
0
BLOCK_RECORD
5
1B
100
AcDbSymbolTableRecord
100
AcDbBlockTableRecord
2
*PAPER_SPACE
0
ENDTAB
0
ENDSEC
0
SECTION
2
BLOCKS
0
BLOCK
5
20
100
AcDbEntity
100
AcDbBlockBegin
2
*MODEL_SPACE
0
ENDBLK
5
21
100
AcDbEntity
100
AcDbBlockEnd
0
BLOCK
5
1C
100
AcDbEntity
100
AcDbBlockBegin
2
*PAPER_SPACE
0
ENDBLK
5
1D
100
AcDbEntity
100
AcDbBlockEnd
0
ENDSEC
0
SECTION
2
ENTITIES
0
SPLINE
5
100
100
AcDbEntity
8
0
100
AcDbSpline
70
0
71
3
72
17
73
13
74
0
42
0.000000001
43
0.0000000001
44
0.0000000001
40
-1.3058092932235965
40
-1.3058092932235965
40
-1.3058092932235965
40
-1.3058092932235965
40
-1.1204465462667832
40
-1.1204465462667832
40
-1.1204465462667832
40
-0.95077387283572823
40
-0.95077387283572823
40
-0.95077387283572823
40
-0.65290464661179826
40
-0.65290464661179826
40
-0.65290464661179826
40
0
40
0
40
0
40
0
10
10.386430033881712
20
-23.532792460627672
30
0
10
10.731610128469239
20
-23.677414803955873
30
0
10
11.121595774886382
20
-23.776939415216681
30
0
10
11.418984205115905
20
-23.77478022385359
30
0
10
11.691200121382316
20
-23.772803797753742
30
0
10
11.811683789435115
20
-23.722852933049772
30
0
10
11.951739238759444
20
-23.646199338025941
30
0
10
12.197613883598084
20
-23.511629954663746
30
0
10
12.480507020355473
20
-23.206833357037986
30
0
10
12.751414694935711
20
-22.687546882880241
30
0
10
13.345221855811282
20
-21.549313987195458
30
0
10
13.740885824081701
20
-19.666079470330555
30
0
10
14.488174100247333
20
-17.577436854245029
30
0
0
SPLINE
5
101
100
AcDbEntity
8
0
100
AcDbSpline
70
0
71
3
72
8
73
4
74
0
42
0.000000001
43
0.0000000001
44
0.0000000001
40
-0.55912928745031854
40
-0.55912928745031854
40
-0.55912928745031854
40
-0.55912928745031854
40
-0.30665545382922815
40
-0.30665545382922815
40
-0.30665545382922815
40
-0.30665545382922815
10
14.488174100247324
20
-17.57743685424505
30
0
10
14.773244931533183
20
-16.78067460623863
30
0
10
15.099349067642764
20
-15.998119021945971
30
0
10
15.469211653444146
20
-15.239451125289957
30
0
0
SPLINE
5
102
100
AcDbEntity
8
0
100
AcDbSpline
70
0
71
3
72
23
73
19
74
0
42
0.000000001
43
0.0000000001
44
0.0000000001
40
-2.6351163037576186
40
-2.6351163037576186
40
-2.6351163037576186
40
-2.6351163037576186
40
-1.8621534102515078
40
-1.8621534102515078
40
-1.8621534102515078
40
-1.5655269118090216
40
-1.5655269118090216
40
-1.5655269118090216
40
-1.2551021216620792
40
-1.2551021216620792
40
-1.2551021216620792
40
-0.95370763773232592
40
-0.95370763773232592
40
-0.95370763773232592
40
-0.60882296977426031
40
-0.60882296977426031
40
-0.60882296977426031
40
0
40
0
40
0
40
0
10
15.469211653444132
20
-15.23945112528998
30
0
10
16.401269363175842
20
-13.327599834162305
30
0
10
17.409581122869358
20
-11.936190056032741
30
0
10
18.107618331300984
20
-10.634513180141189
30
0
10
18.375491905387374
20
-10.134991331106644
30
0
10
18.593403679971797
20
-9.6601945943274696
30
0
10
18.747677227004086
20
-9.1722184713268629
30
0
10
18.909127177410351
20
-8.6615429707408857
30
0
10
19.032212948286531
20
-8.0416860328246038
30
0
10
18.989783328431621
20
-7.2501940612305527
30
0
10
18.948587992925546
20
-6.4817267162088754
30
0
10
18.734374382286425
20
-5.5179219032468163
30
0
10
18.280172767102712
20
-4.6673838051922267
30
0
10
17.760431426132573
20
-3.6941159944860074
30
0
10
16.942325839288788
20
-2.9052943236171136
30
0
10
15.958255075975723
20
-2.3433574963066315
30
0
10
14.22108047747739
20
-1.351373567144865
30
0
10
11.969428437693605
20
-0.99999999999999989
30
0
10
10.000000149011612
20
-1.0000000000000002
30
0
0
SPLINE
5
103
100
AcDbEntity
8
0
100
AcDbSpline
70
0
71
3
72
8
73
4
74
0
42
0.000000001
43
0.0000000001
44
0.0000000001
40
-8.0603314237804042
40
-8.0603314237804042
40
-8.0603314237804042
40
-8.0603314237804042
40
-7.7684649426642256
40
-7.7684649426642256
40
-7.7684649426642256
40
-7.7684649426642256
10
10.000000149011614
20
-1
30
0
10
9.5461462620234609
20
-1
30
0
10
9.0942107128443741
20
-1.0184710804145258
30
0
10
8.6385249939847615
20
-1.0570841588933846
30
0
0
SPLINE
5
104
100
AcDbEntity
8
0
100
AcDbSpline
70
0
71
3
72
32
73
28
74
0
42
0.000000001
43
0.0000000001
44
0.0000000001
40
-1.7303364874200136
40
-1.7303364874200136
40
-1.7303364874200136
40
-1.7303364874200136
40
-1.639190767236659
40
-1.639190767236659
40
-1.639190767236659
40
-1.492497812353081
40
-1.492497812353081
40
-1.492497812353081
40
-1.4082036912241611
40
-1.4082036912241611
40
-1.4082036912241611
40
-1.3286761674564982
40
-1.3286761674564982
40
-1.3286761674564982
40
-1.1947893941353265
40
-1.1947893941353265
40
-1.1947893941353265
40
-1.0329652200951775
40
-1.0329652200951775
40
-1.0329652200951775
40
-0.85524304603734946
40
-0.85524304603734946
40
-0.85524304603734946
40
-0.56354523224312802
40
-0.56354523224312802
40
-0.56354523224312802
40
0
40
0
40
0
40
0
10
8.6385249939849178
20
-1.0570841588933713
30
0
10
7.7965579708783412
20
-1.1284292491480814
30
0
10
6.9413175136262595
20
-1.2700980160696078
30
0
10
6.1319720619438147
20
-1.4976112387276741
30
0
10
4.829384561509932
20
-1.8637785896428753
30
0
10
3.6035617560421036
20
-2.4741429364442573
30
0
10
2.7029189871313211
20
-3.3738075455407488
30
0
10
2.1853829492438583
20
-3.8907815037977707
30
0
10
1.761738608364805
20
-4.5472743284648924
30
0
10
1.5058864277256137
20
-5.141161577713925
30
0
10
1.2645019740497467
20
-5.7014661600196126
30
0
10
1.150625068818161
20
-6.1906749891328205
30
0
10
1.0874016417224699
20
-6.5643173571372024
30
0
10
0.98096326352176033
20
-7.1933545590792285
30
0
10
0.98820739294632254
20
-7.7283940559595168
30
0
10
1.0340912225015075
20
-8.1522259012258438
30
0
10
1.089549372962384
20
-8.6644963562588337
30
0
10
1.1748058876676932
20
-8.9771850415350016
30
0
10
1.2909611295896024
20
-9.3435169274604633
30
0
10
1.4185277446829256
20
-9.7458381478809937
30
0
10
1.5862912770888578
20
-10.154783393883701
30
0
10
1.7861678077473073
20
-10.573240838600686
30
0
10
2.114227867393395
20
-11.260060715956808
30
0
10
2.5395131535243598
20
-11.988344016404442
30
0
10
2.9834894569323684
20
-12.706625992419845
30
0
10
3.8412289297109199
20
-14.09430997168754
30
0
10
4.7739972523528396
20
-15.444129264984838
30
0
10
5.6165819635423651
20
-17.170755907253341
30
0
0
SPLINE
5
105
100
AcDbEntity
8
0
100
AcDbSpline
70
0
71
3
72
20
73
16
74
0
42
0.000000001
43
0.0000000001
44
0.0000000001
40
-2.9822624062807805
40
-2.9822624062807805
40
-2.9822624062807805
40
-2.9822624062807805
40
-2.9382535787067718
40
-2.9382535787067718
40
-2.9382535787067718
40
-2.4144862108451508
40
-2.4144862108451508
40
-2.4144862108451508
40
-2.1510559656901109
40
-2.1510559656901109
40
-2.1510559656901109
40
-1.9038791875845635
40
-1.9038791875845635
40
-1.9038791875845635
40
-1.5444181146858245
40
-1.5444181146858245
40
-1.5444181146858245
40
-1.5444181146858245
10
5.6165819635423597
20
-17.170755907253323
30
0
10
5.6473899398729177
20
-17.23388768738214
30
0
10
5.6776702800001111
20
-17.296689216782518
30
0
10
5.7075512969563356
20
-17.359383656187696
30
0
10
6.0631777124492476
20
-18.105536265038445
30
0
10
6.3738385291672142
20
-18.894936075029879
30
0
10
6.6981660457121297
20
-19.611583026827297
30
0
10
6.8612874664733505
20
-19.972022591766905
30
0
10
7.018995283410959
20
-20.294530975493011
30
0
10
7.2254150832456308
20
-20.647175914913056
30
0
10
7.4190989217520915
20
-20.978062901294482
30
0
10
7.6907907365759201
20
-21.391332475859052
30
0
10
8.0777347769138768
20
-21.825854200413243
30
0
10
8.6404547903297857
20
-22.457764877877302
30
0
10
9.5013470667338709
20
-23.161963508564909
30
0
10
10.386430033881734
20
-23.532792460627686
30
0
0
ENDSEC
0
SECTION
2
OBJECTS
0
DICTIONARY
5
C
100
AcDbDictionary
3
ACAD_GROUP
350
D
3
ACAD_MLINESTYLE
350
17
0
DICTIONARY
5
D
100
AcDbDictionary
0
DICTIONARY
5
1A
330
C
100
AcDbDictionary
0
DICTIONARY
5
17
100
AcDbDictionary
0
ENDSEC
0
EOF
