%TF.GenerationSoftware,KiCad,Pcbnew,9.0.6*%
%TF.CreationDate,2026-01-01T02:54:19-05:00*%
%TF.ProjectId,Project Resonator Crossover Circuit PCB,50726f6a-6563-4742-9052-65736f6e6174,rev?*%
%TF.SameCoordinates,Original*%
%TF.FileFunction,Drillmap*%
%TF.FilePolarity,Positive*%
%FSLAX45Y45*%
G04 Gerber Fmt 4.5, Leading zero omitted, Abs format (unit mm)*
G04 Created by KiCad (PCBNEW 9.0.6) date 2026-01-01 02:54:19*
%MOMM*%
%LPD*%
G01*
G04 APERTURE LIST*
%ADD10C,0.050000*%
%ADD11C,0.200000*%
G04 APERTURE END LIST*
D10*
X15940000Y-8680000D02*
X15970000Y-8682500D01*
X15995000Y-8690000D01*
X16027500Y-8702500D01*
X16050000Y-8712500D01*
X16062500Y-8720000D01*
X16087500Y-8737500D01*
X16110000Y-8755000D01*
X16135000Y-8782500D01*
X16155000Y-8805000D01*
X16195000Y-8865000D01*
X16217500Y-8902500D01*
X16240000Y-8960000D01*
X16270000Y-9042500D01*
X16282500Y-9085000D01*
X16300000Y-9142500D01*
X16320000Y-9207500D01*
X16342500Y-9297500D01*
X16360000Y-9352500D01*
X16385000Y-9420000D01*
X16405000Y-9475000D01*
X16427500Y-9527500D01*
X16465000Y-9585000D01*
X16507500Y-9632500D01*
X16560000Y-9675000D01*
X16587500Y-9700000D01*
X16612500Y-9730000D01*
X16622500Y-9755000D01*
X16630000Y-9782500D01*
X16632500Y-9837500D01*
X16632500Y-9910000D01*
X16627500Y-9967500D01*
X16622500Y-10037500D01*
X16617500Y-10087500D01*
X16610000Y-10137500D01*
X16597500Y-10222500D01*
X16590000Y-10257500D01*
X16567500Y-10312500D01*
X16545000Y-10360000D01*
X16515000Y-10410000D01*
X16487500Y-10437500D01*
X16440000Y-10475000D01*
X16365000Y-10520000D01*
X16317500Y-10540000D01*
X16247500Y-10560000D01*
X16195000Y-10572500D01*
X16110000Y-10585000D01*
X15987500Y-10595000D01*
X15875000Y-10595000D01*
X15797500Y-10590000D01*
X15737500Y-10585000D01*
X15652500Y-10575000D01*
X15615000Y-10570000D01*
X15530000Y-10557500D01*
X15492500Y-10550000D01*
X15437500Y-10535000D01*
X15357500Y-10507500D01*
X15265000Y-10472500D01*
X15222500Y-10447500D01*
X15177500Y-10417500D01*
X15140000Y-10390000D01*
X15097500Y-10337500D01*
X15072500Y-10302500D01*
X15057500Y-10265000D01*
X15047500Y-10227500D01*
X15045000Y-10155000D01*
X15042500Y-10100000D01*
X15037500Y-10067500D01*
X15027500Y-9995000D01*
X15020000Y-9955000D01*
X15015000Y-9920000D01*
X15015000Y-9855000D01*
X15022500Y-9820000D01*
X15030000Y-9797500D01*
X15055000Y-9737500D01*
X15092500Y-9687500D01*
X15130000Y-9645000D01*
X15172500Y-9600000D01*
X15282500Y-9495000D01*
X15385000Y-9390000D01*
X15415000Y-9345000D01*
X15445000Y-9280000D01*
X15455000Y-9257500D01*
X15465000Y-9185000D01*
X15465000Y-9135000D01*
X15462500Y-9040000D01*
X15460000Y-9005000D01*
X15472500Y-8937500D01*
X15490000Y-8892500D01*
X15500000Y-8870000D01*
X15527500Y-8832500D01*
X15552500Y-8810000D01*
X15590000Y-8777500D01*
X15605000Y-8767500D01*
X15640000Y-8747500D01*
X15677500Y-8730000D01*
X15725000Y-8710000D01*
X15785000Y-8690000D01*
X15832500Y-8682500D01*
X15862500Y-8680000D01*
X15902500Y-8677500D01*
X15940000Y-8680000D01*
D11*
X15273277Y-10908984D02*
X15273277Y-10708984D01*
X15273277Y-10708984D02*
X15320896Y-10708984D01*
X15320896Y-10708984D02*
X15349467Y-10718508D01*
X15349467Y-10718508D02*
X15368515Y-10737555D01*
X15368515Y-10737555D02*
X15378039Y-10756603D01*
X15378039Y-10756603D02*
X15387562Y-10794698D01*
X15387562Y-10794698D02*
X15387562Y-10823270D01*
X15387562Y-10823270D02*
X15378039Y-10861365D01*
X15378039Y-10861365D02*
X15368515Y-10880412D01*
X15368515Y-10880412D02*
X15349467Y-10899460D01*
X15349467Y-10899460D02*
X15320896Y-10908984D01*
X15320896Y-10908984D02*
X15273277Y-10908984D01*
X15473277Y-10908984D02*
X15473277Y-10775650D01*
X15473277Y-10813746D02*
X15482801Y-10794698D01*
X15482801Y-10794698D02*
X15492324Y-10785174D01*
X15492324Y-10785174D02*
X15511372Y-10775650D01*
X15511372Y-10775650D02*
X15530420Y-10775650D01*
X15597086Y-10908984D02*
X15597086Y-10775650D01*
X15597086Y-10708984D02*
X15587562Y-10718508D01*
X15587562Y-10718508D02*
X15597086Y-10728031D01*
X15597086Y-10728031D02*
X15606610Y-10718508D01*
X15606610Y-10718508D02*
X15597086Y-10708984D01*
X15597086Y-10708984D02*
X15597086Y-10728031D01*
X15720896Y-10908984D02*
X15701848Y-10899460D01*
X15701848Y-10899460D02*
X15692324Y-10880412D01*
X15692324Y-10880412D02*
X15692324Y-10708984D01*
X15825658Y-10908984D02*
X15806610Y-10899460D01*
X15806610Y-10899460D02*
X15797086Y-10880412D01*
X15797086Y-10880412D02*
X15797086Y-10708984D01*
X16054229Y-10908984D02*
X16054229Y-10708984D01*
X16054229Y-10708984D02*
X16120896Y-10851841D01*
X16120896Y-10851841D02*
X16187562Y-10708984D01*
X16187562Y-10708984D02*
X16187562Y-10908984D01*
X16368515Y-10908984D02*
X16368515Y-10804222D01*
X16368515Y-10804222D02*
X16358991Y-10785174D01*
X16358991Y-10785174D02*
X16339943Y-10775650D01*
X16339943Y-10775650D02*
X16301848Y-10775650D01*
X16301848Y-10775650D02*
X16282801Y-10785174D01*
X16368515Y-10899460D02*
X16349467Y-10908984D01*
X16349467Y-10908984D02*
X16301848Y-10908984D01*
X16301848Y-10908984D02*
X16282801Y-10899460D01*
X16282801Y-10899460D02*
X16273277Y-10880412D01*
X16273277Y-10880412D02*
X16273277Y-10861365D01*
X16273277Y-10861365D02*
X16282801Y-10842317D01*
X16282801Y-10842317D02*
X16301848Y-10832793D01*
X16301848Y-10832793D02*
X16349467Y-10832793D01*
X16349467Y-10832793D02*
X16368515Y-10823270D01*
X16463753Y-10775650D02*
X16463753Y-10975650D01*
X16463753Y-10785174D02*
X16482801Y-10775650D01*
X16482801Y-10775650D02*
X16520896Y-10775650D01*
X16520896Y-10775650D02*
X16539943Y-10785174D01*
X16539943Y-10785174D02*
X16549467Y-10794698D01*
X16549467Y-10794698D02*
X16558991Y-10813746D01*
X16558991Y-10813746D02*
X16558991Y-10870889D01*
X16558991Y-10870889D02*
X16549467Y-10889936D01*
X16549467Y-10889936D02*
X16539943Y-10899460D01*
X16539943Y-10899460D02*
X16520896Y-10908984D01*
X16520896Y-10908984D02*
X16482801Y-10908984D01*
X16482801Y-10908984D02*
X16463753Y-10899460D01*
X16644705Y-10889936D02*
X16654229Y-10899460D01*
X16654229Y-10899460D02*
X16644705Y-10908984D01*
X16644705Y-10908984D02*
X16635182Y-10899460D01*
X16635182Y-10899460D02*
X16644705Y-10889936D01*
X16644705Y-10889936D02*
X16644705Y-10908984D01*
X16644705Y-10785174D02*
X16654229Y-10794698D01*
X16654229Y-10794698D02*
X16644705Y-10804222D01*
X16644705Y-10804222D02*
X16635182Y-10794698D01*
X16635182Y-10794698D02*
X16644705Y-10785174D01*
X16644705Y-10785174D02*
X16644705Y-10804222D01*
M02*
