%TF.GenerationSoftware,KiCad,Pcbnew,9.0.6*%
%TF.CreationDate,2026-01-01T02:53:18-05:00*%
%TF.ProjectId,Project Resonator Crossover Circuit PCB,50726f6a-6563-4742-9052-65736f6e6174,rev?*%
%TF.SameCoordinates,Original*%
%TF.FileFunction,Profile,NP*%
%FSLAX46Y46*%
G04 Gerber Fmt 4.6, Leading zero omitted, Abs format (unit mm)*
G04 Created by KiCad (PCBNEW 9.0.6) date 2026-01-01 02:53:18*
%MOMM*%
%LPD*%
G01*
G04 APERTURE LIST*
%TA.AperFunction,Profile*%
%ADD10C,0.050000*%
%TD*%
G04 APERTURE END LIST*
D10*
X159400000Y-86800000D02*
X159700000Y-86825000D01*
X159950000Y-86900000D01*
X160275000Y-87025000D01*
X160500000Y-87125000D01*
X160625000Y-87200000D01*
X160875000Y-87375000D01*
X161100000Y-87550000D01*
X161350000Y-87825000D01*
X161550000Y-88050000D01*
X161950000Y-88650000D01*
X162175000Y-89025000D01*
X162400000Y-89600000D01*
X162700000Y-90425000D01*
X162825000Y-90850000D01*
X163000000Y-91425000D01*
X163200000Y-92075000D01*
X163425000Y-92975000D01*
X163600000Y-93525000D01*
X163850000Y-94200000D01*
X164050000Y-94750000D01*
X164275000Y-95275000D01*
X164650000Y-95850000D01*
X165075000Y-96325000D01*
X165600000Y-96750000D01*
X165875000Y-97000000D01*
X166125000Y-97300000D01*
X166225000Y-97550000D01*
X166300000Y-97825000D01*
X166325000Y-98375000D01*
X166325000Y-99100000D01*
X166275000Y-99675000D01*
X166225000Y-100375000D01*
X166175000Y-100875000D01*
X166100000Y-101375000D01*
X165975000Y-102225000D01*
X165900000Y-102575000D01*
X165675000Y-103125000D01*
X165450000Y-103600000D01*
X165150000Y-104100000D01*
X164875000Y-104375000D01*
X164400000Y-104750000D01*
X163650000Y-105200000D01*
X163175000Y-105400000D01*
X162475000Y-105600000D01*
X161950000Y-105725000D01*
X161100000Y-105850000D01*
X159875000Y-105950000D01*
X158750000Y-105950000D01*
X157975000Y-105900000D01*
X157375000Y-105850000D01*
X156525000Y-105750000D01*
X156150000Y-105700000D01*
X155300000Y-105575000D01*
X154925000Y-105500000D01*
X154375000Y-105350000D01*
X153575000Y-105075000D01*
X152650000Y-104725000D01*
X152225000Y-104475000D01*
X151775000Y-104175000D01*
X151400000Y-103900000D01*
X150975000Y-103375000D01*
X150725000Y-103025000D01*
X150575000Y-102650000D01*
X150475000Y-102275000D01*
X150450000Y-101550000D01*
X150425000Y-101000000D01*
X150375000Y-100675000D01*
X150275000Y-99950000D01*
X150200000Y-99550000D01*
X150150000Y-99200000D01*
X150150000Y-98550000D01*
X150225000Y-98200000D01*
X150300000Y-97975000D01*
X150550000Y-97375000D01*
X150925000Y-96875000D01*
X151300000Y-96450000D01*
X151725000Y-96000000D01*
X152825000Y-94950000D01*
X153850000Y-93900000D01*
X154150000Y-93450000D01*
X154450000Y-92800000D01*
X154550000Y-92575000D01*
X154650000Y-91850000D01*
X154650000Y-91350000D01*
X154625000Y-90400000D01*
X154600000Y-90050000D01*
X154725000Y-89375000D01*
X154900000Y-88925000D01*
X155000000Y-88700000D01*
X155275000Y-88325000D01*
X155525000Y-88100000D01*
X155900000Y-87775000D01*
X156050000Y-87675000D01*
X156400000Y-87475000D01*
X156775000Y-87300000D01*
X157250000Y-87100000D01*
X157850000Y-86900000D01*
X158325000Y-86825000D01*
X158625000Y-86800000D01*
X159025000Y-86775000D01*
X159400000Y-86800000D01*
M02*
