0
SECTION
2
HEADER
9
$INSUNITS
70
4
9
$ACADVER
1
AC1014
9
$HANDSEED
5
FFFF
0
ENDSEC
0
SECTION
2
TABLES
0
TABLE
2
VPORT
5
8
100
AcDbSymbolTable
0
ENDTAB
0
TABLE
2
LTYPE
5
5
100
AcDbSymbolTable
0
LTYPE
5
14
100
AcDbSymbolTableRecord
100
AcDbLinetypeTableRecord
2
BYBLOCK
70
0
0
LTYPE
5
15
100
AcDbSymbolTableRecord
100
AcDbLinetypeTableRecord
2
BYLAYER
70
0
0
LTYPE
5
16
100
AcDbSymbolTableRecord
100
AcDbLinetypeTableRecord
2
DASHED
70
0
3
Dashed __ __ __ __ __ __ __ __ __ __ __ __ __ _
72
65
73
2
40
0.75
49
0.5
74
0
49
-0.25
74
0
0
ENDTAB
0
TABLE
2
LAYER
5
2
100
AcDbSymbolTable
70
2
0
LAYER
5
50
100
AcDbSymbolTableRecord
100
AcDbLayerTableRecord
2
0
70
0
62
7
6
CONTINUOUS
0
ENDTAB
0
TABLE
2
STYLE
5
3
100
AcDbSymbolTable
70
1
0
STYLE
5
11
100
AcDbSymbolTableRecord
100
AcDbTextStyleTableRecord
2
STANDARD
70
0
0
ENDTAB
0
TABLE
2
VIEW
5
6
100
AcDbSymbolTable
70
0
0
ENDTAB
0
TABLE
2
UCS
5
7
100
AcDbSymbolTable
70
0
0
ENDTAB
0
TABLE
2
APPID
5
9
100
AcDbSymbolTable
70
2
0
APPID
5
12
100
AcDbSymbolTableRecord
100
AcDbRegAppTableRecord
2
ACAD
70
0
0
ENDTAB
0
TABLE
2
DIMSTYLE
5
A
100
AcDbSymbolTable
70
1
0
ENDTAB
0
TABLE
2
BLOCK_RECORD
5
1
100
AcDbSymbolTable
70
1
0
BLOCK_RECORD
5
1F
100
AcDbSymbolTableRecord
100
AcDbBlockTableRecord
2
*MODEL_SPACE
0
BLOCK_RECORD
5
1B
100
AcDbSymbolTableRecord
100
AcDbBlockTableRecord
2
*PAPER_SPACE
0
ENDTAB
0
ENDSEC
0
SECTION
2
BLOCKS
0
BLOCK
5
20
100
AcDbEntity
100
AcDbBlockBegin
2
*MODEL_SPACE
0
ENDBLK
5
21
100
AcDbEntity
100
AcDbBlockEnd
0
BLOCK
5
1C
100
AcDbEntity
100
AcDbBlockBegin
2
*PAPER_SPACE
0
ENDBLK
5
1D
100
AcDbEntity
100
AcDbBlockEnd
0
ENDSEC
0
SECTION
2
ENTITIES
0
SPLINE
5
100
100
AcDbEntity
8
0
100
AcDbSpline
70
2
71
3
72
68
73
64
74
0
42
0.000000001
43
0.0000000001
44
0.0000000001
40
0
40
0
40
0
40
0
40
0.039094497790245118
40
0.039094497790245118
40
0.039094497790245118
40
0.087477224207532081
40
0.087477224207532081
40
0.087477224207532081
40
0.14109856734081366
40
0.14109856734081366
40
0.14109856734081366
40
0.18619736323057742
40
0.18619736323057742
40
0.18619736323057742
40
0.23087830600397902
40
0.23087830600397902
40
0.23087830600397902
40
0.27894841187873032
40
0.27894841187873032
40
0.27894841187873032
40
0.34201304543446881
40
0.34201304543446881
40
0.34201304543446881
40
0.38933754463625031
40
0.38933754463625031
40
0.38933754463625031
40
0.43256807499500272
40
0.43256807499500272
40
0.43256807499500272
40
0.476190796712194
40
0.476190796712194
40
0.476190796712194
40
0.51262795995770638
40
0.51262795995770638
40
0.51262795995770638
40
0.56287669738316237
40
0.56287669738316237
40
0.56287669738316237
40
0.60361661527206678
40
0.60361661527206678
40
0.60361661527206678
40
0.67258326775314803
40
0.67258326775314803
40
0.67258326775314803
40
0.71617036416513269
40
0.71617036416513269
40
0.71617036416513269
40
0.77898868857181847
40
0.77898868857181847
40
0.77898868857181847
40
0.83177148550775037
40
0.83177148550775037
40
0.83177148550775037
40
0.89411815527133731
40
0.89411815527133731
40
0.89411815527133731
40
0.94125681100586722
40
0.94125681100586722
40
0.94125681100586722
40
0.9836143751991232
40
0.9836143751991232
40
0.9836143751991232
40
1
40
1
40
1
40
1
10
13.200065458997546
20
-2.9799455594659223
30
0
10
14.92508597465093
20
-2.981459418862511
30
0
10
16.555014595445193
20
-3.2023644007213163
30
0
10
17.743818181060536
20
-3.6172299479989567
30
0
10
19.215062522280054
20
-4.1306609269972485
30
0
10
20.025326871873737
20
-4.8906316169897996
30
0
10
20.502190158806847
20
-5.8432542969836208
30
0
10
21.03068559157288
20
-6.8990217450587252
30
0
10
21.15663796778637
20
-8.2705093844847877
30
0
10
21.230894435752759
20
-9.5852975569712981
30
0
10
21.293348620907857
20
-10.69111400923471
30
0
10
21.329672378870178
20
-11.714850371407938
30
0
10
21.271229555706462
20
-12.344956927889051
30
0
10
21.213328221850965
20
-12.969225368671699
30
0
10
21.099910378521578
20
-13.170102872360911
30
0
10
20.770952394633532
20
-13.62749292373465
30
0
10
20.417042111360445
20
-14.119577173323989
30
0
10
19.840787579369163
20
-14.888071972488426
30
0
10
19.304522419753187
20
-16.096769466068025
30
0
10
18.600979850739321
20
-17.682496460532054
30
0
10
17.968478560858149
20
-19.998084266134409
30
0
10
17.230224687982016
20
-21.79580054804822
30
0
10
16.676229638018555
20
-23.14482959890708
30
0
10
16.039961720950803
20
-24.185200995071462
30
0
10
15.270852802999528
20
-24.783111071313751
30
0
10
14.568278301684403
20
-25.329296876526101
30
0
10
13.723544716101854
20
-25.566862837407335
30
0
10
12.699960177303124
20
-25.514771284604151
30
0
10
11.667089585166231
20
-25.462207152429684
30
0
10
10.486280163512568
20
-25.084358504809753
30
0
10
9.6589721484240894
20
-24.566843099309395
30
0
10
8.9679387600094493
20
-24.134573113164706
30
0
10
8.564180244974489
20
-23.647629272151867
30
0
10
8.3554711111681108
20
-23.132069371277556
30
0
10
8.0676503938343398
20
-22.421085535582883
30
0
10
8.138139053208409
20
-21.559654037579627
30
0
10
8.1483241443971703
20
-20.556775594237934
30
0
10
8.1565818599136382
20
-19.743676847331017
30
0
10
8.061420308789387
20
-18.836094721821755
30
0
10
7.6566204039207832
20
-17.989352286864658
30
0
10
6.9713540653980157
20
-16.555942641515934
30
0
10
5.4827180355057799
20
-15.352807020787381
30
0
10
4.2986937002930228
20
-14.194473655675083
30
0
10
3.5503873667760875
20
-13.462404079350232
30
0
10
2.9708293322917885
20
-12.759224005148893
30
0
10
2.7083538406186385
20
-12.139470481344208
30
0
10
2.3300705425324031
20
-11.246273156554187
30
0
10
2.5157785507595998
20
-10.454338130829656
30
0
10
2.7451565101442621
20
-9.708915524112923
30
0
10
2.9378902445462973
20
-9.082577740458273
30
0
10
3.1294916128831551
20
-8.4886913237354857
30
0
10
3.2425419505842772
20
-7.8865646675313883
30
0
10
3.3760762170588094
20
-7.1753368817856522
30
0
10
3.4237884221932262
20
-6.526671362211566
30
0
10
3.9558727204756856
20
-5.8078489020668824
30
0
10
4.3581674806223543
20
-5.2643663935143898
30
0
10
5.100354988000749
20
-4.6508296502463047
30
0
10
6.400606941653427
20
-4.1230098140290679
30
0
10
7.5689793684026698
20
-3.6487247024434941
30
0
10
9.1966733299290073
20
-3.2583784076432649
30
0
10
11.032692604534038
20
-3.08309767488312
30
0
10
11.742939369990065
20
-3.0152919741415332
30
0
10
12.4770599072965
20
-2.9793110575928745
30
0
10
13.200065458997546
20
-2.9799455594659223
30
0
0
SPLINE
5
101
100
AcDbEntity
8
0
100
AcDbSpline
70
6
71
5
72
46
73
40
74
0
42
0.000000001
43
0.0000000001
44
0.0000000001
40
0
40
0
40
0
40
0
40
0
40
0
40
0.028571428571428571
40
0.057142857142857141
40
0.085714285714285715
40
0.11428571428571428
40
0.14285714285714285
40
0.17142857142857143
40
0.20000000000000001
40
0.22857142857142859
40
0.25714285714285717
40
0.28571428571428575
40
0.31428571428571433
40
0.34285714285714292
40
0.3714285714285715
40
0.40000000000000008
40
0.42857142857142866
40
0.45714285714285724
40
0.48571428571428582
40
0.51428571428571435
40
0.54285714285714293
40
0.57142857142857151
40
0.60000000000000009
40
0.62857142857142867
40
0.65714285714285725
40
0.68571428571428583
40
0.71428571428571441
40
0.74285714285714299
40
0.77142857142857157
40
0.80000000000000016
40
0.82857142857142874
40
0.85714285714285732
40
0.8857142857142859
40
0.91428571428571448
40
0.94285714285714306
40
0.97142857142857164
40
1
40
1
40
1
40
1
40
1
40
1
41
1
41
1
41
1
41
1
41
1
41
1
41
1
41
1
41
1
41
1
41
1
41
1
41
1
41
1
41
1
41
1
41
1
41
1
41
1
41
1
41
1
41
1
41
1
41
1
41
1
41
1
41
1
41
1
41
1
41
1
41
1
41
1
41
1
41
1
41
1
41
1
41
1
41
1
41
1
41
1
10
13.200679771210023
20
-2.2799458290227559
30
0
10
13.98166860658433
20
-2.2806312164000846
30
0
10
15.526240477046562
20
-2.3505210069371101
30
0
10
17.683817958660136
20
-2.6730812687806118
30
0
10
19.833771860370216
20
-3.5595430694061028
30
0
10
21.294231229154391
20
-5.305660379231611
30
0
10
21.835864009663233
20
-7.4722787127891497
30
0
10
21.945144542282073
20
-9.7299705782741484
30
0
10
22.040660695184794
20
-11.781246000991633
30
0
10
21.975388814818665
20
-13.150858156597154
30
0
10
21.466959953422045
20
-13.920011416624888
30
0
10
20.658992507778358
20
-14.859289022082347
30
0
10
19.7199816895479
20
-16.648922546209491
30
0
10
18.820144878082267
20
-19.450830293291851
30
0
10
17.903214085139336
20
-22.262750985791403
30
0
10
16.761548601730141
20
-24.563705176919406
30
0
10
15.173153497133914
20
-25.995749312277525
30
0
10
13.071813774223385
20
-26.450386170619367
30
0
10
10.594111077944206
20
-25.983668804183143
30
0
10
8.4348215325359117
20
-24.838667672726
30
0
10
7.453655799968848
20
-23.34239016712182
30
0
10
7.3545834905424083
20
-21.69733443767899
30
0
10
7.5468024904854891
20
-20.048578456900181
30
0
10
7.3071912692299623
20
-18.467097689761928
30
0
10
6.2682473598212294
20
-16.963425950298355
30
0
10
4.6606638425206217
20
-15.49819376113077
30
0
10
3.0210356705102526
20
-14.016567448713236
30
0
10
1.8916643366390233
20
-12.509971665456682
30
0
10
1.6471818605220849
20
-11.001294865544155
30
0
10
1.982221100108523
20
-9.716799180174732
30
0
10
2.3372520025975803
20
-8.7483882391361742
30
0
10
2.55981521738632
20
-7.8875458737286532
30
0
10
2.6711522778739121
20
-6.9188736230188308
30
0
10
2.9994981692046299
20
-5.768041028864916
30
0
10
3.9771044353518143
20
-4.5190868589700264
30
0
10
5.9983772065605532
20
-3.3430265103450836
30
0
10
8.5260777806090218
20
-2.6405195628708316
30
0
10
10.840307464800663
20
-2.346408682673125
30
0
10
12.419690935835721
20
-2.2792604416454272
30
0
10
13.200679771210023
20
-2.2799458290227559
30
0
0
SPLINE
5
102
100
AcDbEntity
8
0
100
AcDbSpline
70
0
71
3
72
68
73
64
74
0
42
0.000000001
43
0.0000000001
44
0.0000000001
40
0
40
0
40
0
40
0
40
0.039153442898866089
40
0.039153442898866089
40
0.039153442898866089
40
0.088345987533227921
40
0.088345987533227921
40
0.088345987533227921
40
0.14239890403435296
40
0.14239890403435296
40
0.14239890403435296
40
0.1864049726297145
40
0.1864049726297145
40
0.1864049726297145
40
0.23102812489813718
40
0.23102812489813718
40
0.23102812489813718
40
0.27908886709200359
40
0.27908886709200359
40
0.27908886709200359
40
0.34196535803864259
40
0.34196535803864259
40
0.34196535803864259
40
0.38944088741642191
40
0.38944088741642191
40
0.38944088741642191
40
0.43277092844842019
40
0.43277092844842019
40
0.43277092844842019
40
0.47640060197460099
40
0.47640060197460099
40
0.47640060197460099
40
0.51320409663815858
40
0.51320409663815858
40
0.51320409663815858
40
0.5638372549009919
40
0.5638372549009919
40
0.5638372549009919
40
0.6045831868725019
40
0.6045831868725019
40
0.6045831868725019
40
0.67671488254974721
40
0.67671488254974721
40
0.67671488254974721
40
0.72019484694329605
40
0.72019484694329605
40
0.72019484694329605
40
0.79014613520747201
40
0.79014613520747201
40
0.79014613520747201
40
0.84257575231339976
40
0.84257575231339976
40
0.84257575231339976
40
0.90308076622984479
40
0.90308076622984479
40
0.90308076622984479
40
0.95154038311492239
40
0.95154038311492239
40
0.95154038311492239
40
0.99382441630588225
40
0.99382441630588225
40
0.99382441630588225
40
1
40
1
40
1
40
1
10
13.200083010775042
20
-2.9599455671675461
30
0
10
14.929307833465064
20
-2.9614631162186376
30
0
10
16.563372785469163
20
-3.1831320567043342
30
0
10
17.755796231206556
20
-3.6002293312371054
30
0
10
19.253961890073686
20
-4.1242720405161464
30
0
10
20.070417608179156
20
-4.905148754598347
30
0
10
20.545563352967374
20
-5.886062274645333
30
0
10
21.067654931270532
20
-6.9638930107461059
30
0
10
21.184405860139051
20
-8.3586259440829522
30
0
10
21.256152888975773
20
-9.6796934577245572
30
0
10
21.314564254668436
20
-10.755213362801396
30
0
10
21.34846410261099
20
-11.741239633058589
30
0
10
21.290327389648098
20
-12.355520599600087
30
0
10
21.231375443297633
20
-12.978415440709895
30
0
10
21.114291331181377
20
-13.184817136417866
30
0
10
20.783867783808098
20
-13.643786363349529
30
0
10
20.427989722357751
20
-14.138112751539058
30
0
10
19.853511513249394
20
-14.906280137981939
30
0
10
19.318109540550626
20
-16.115471808763171
30
0
10
18.61765849147168
20
-17.697422599991906
30
0
10
17.987031106776332
20
-20.004363406544471
30
0
10
17.250401697705136
20
-21.799314861860029
30
0
10
16.694202224350697
20
-23.154611082522877
30
0
10
16.054501890444428
20
-24.201417209868229
30
0
10
15.278059588246846
20
-24.802833976855887
30
0
10
14.569415003254669
20
-25.351735980318409
30
0
10
13.715347277581042
20
-25.589185347216777
30
0
10
12.684473466250829
20
-25.533989834935788
30
0
10
11.646471037362922
20
-25.478412638986406
30
0
10
10.463808319053346
20
-25.097121502049969
30
0
10
9.6364050286125842
20
-24.576293658513123
30
0
10
8.9384549839927523
20
-24.13695310858354
30
0
10
8.5339858701804729
20
-23.641569078469146
30
0
10
8.3270854444105638
20
-23.114882843875442
30
0
10
8.0424379646420565
20
-22.390283516696748
30
0
10
8.1228083460269538
20
-21.512581724147957
30
0
10
8.1287893161620151
20
-20.499013332717098
30
0
10
8.1336023716894186
20
-19.683366232227431
30
0
10
8.0248957182747702
20
-18.778545926947025
30
0
10
7.6094434778233815
20
-17.938055951461724
30
0
10
6.8739768158355599
20
-16.450153621141453
30
0
10
5.2686612829790223
20
-15.204356492052211
30
0
10
4.0755799766146463
20
-14.001203361038293
30
0
10
3.3564074653867371
20
-13.275959696581161
30
0
10
2.8387276041986005
20
-12.586355986639324
30
0
10
2.6235344112612857
20
-11.97619329781193
30
0
10
2.2773280313434596
20
-10.994553438407115
30
0
10
2.5919420767088237
20
-10.118551873669722
30
0
10
2.849964139652724
20
-9.3116240391224192
30
0
10
3.0433558312244484
20
-8.7068186317129754
30
0
10
3.1826821599486639
20
-8.1041026648965548
30
0
10
3.2894816517830474
20
-7.5164371574791247
30
0
10
3.4127307826445814
20
-6.8382573105298663
30
0
10
3.5203308701069651
20
-6.2021601143043767
30
0
10
4.2064023684373915
20
-5.479273677803512
30
0
10
4.7558900854516555
20
-4.900300176324329
30
0
10
5.7517624970228765
20
-4.2634517769641356
30
0
10
7.3185593048892708
20
-3.7748590757472593
30
0
10
8.6856870802579067
20
-3.3485315204941974
30
0
10
10.50263074077677
20
-3.042374533922052
30
0
10
12.37894941963669
20
-2.9745499521370262
30
0
10
12.652985791375544
20
-2.9646441709301969
30
0
10
12.927336303772748
20
-2.9597062075996239
30
0
10
13.200083010775042
20
-2.9599455671675461
30
0
0
ENDSEC
0
SECTION
2
OBJECTS
0
DICTIONARY
5
C
100
AcDbDictionary
3
ACAD_GROUP
350
D
3
ACAD_MLINESTYLE
350
17
0
DICTIONARY
5
D
100
AcDbDictionary
0
DICTIONARY
5
1A
330
C
100
AcDbDictionary
0
DICTIONARY
5
17
100
AcDbDictionary
0
ENDSEC
0
EOF
