%TF.GenerationSoftware,KiCad,Pcbnew,9.0.0*%
%TF.CreationDate,2025-04-04T13:41:00-04:00*%
%TF.ProjectId,Project Resonator Crossover Circuit PCB,50726f6a-6563-4742-9052-65736f6e6174,rev?*%
%TF.SameCoordinates,Original*%
%TF.FileFunction,Drillmap*%
%TF.FilePolarity,Positive*%
%FSLAX45Y45*%
G04 Gerber Fmt 4.5, Leading zero omitted, Abs format (unit mm)*
G04 Created by KiCad (PCBNEW 9.0.0) date 2025-04-04 13:41:00*
%MOMM*%
%LPD*%
G01*
G04 APERTURE LIST*
%ADD10C,0.050000*%
%ADD11C,0.200000*%
G04 APERTURE END LIST*
D10*
X16387099Y-5089880D02*
X17437100Y-5089880D01*
X17437100Y-6339881D01*
X16387099Y-6339881D01*
X16387099Y-5089880D01*
D11*
X16645376Y-6653864D02*
X16645376Y-6453864D01*
X16645376Y-6453864D02*
X16692995Y-6453864D01*
X16692995Y-6453864D02*
X16721567Y-6463388D01*
X16721567Y-6463388D02*
X16740614Y-6482436D01*
X16740614Y-6482436D02*
X16750138Y-6501483D01*
X16750138Y-6501483D02*
X16759662Y-6539579D01*
X16759662Y-6539579D02*
X16759662Y-6568150D01*
X16759662Y-6568150D02*
X16750138Y-6606245D01*
X16750138Y-6606245D02*
X16740614Y-6625293D01*
X16740614Y-6625293D02*
X16721567Y-6644341D01*
X16721567Y-6644341D02*
X16692995Y-6653864D01*
X16692995Y-6653864D02*
X16645376Y-6653864D01*
X16845376Y-6653864D02*
X16845376Y-6520531D01*
X16845376Y-6558626D02*
X16854900Y-6539579D01*
X16854900Y-6539579D02*
X16864424Y-6530055D01*
X16864424Y-6530055D02*
X16883471Y-6520531D01*
X16883471Y-6520531D02*
X16902519Y-6520531D01*
X16969186Y-6653864D02*
X16969186Y-6520531D01*
X16969186Y-6453864D02*
X16959662Y-6463388D01*
X16959662Y-6463388D02*
X16969186Y-6472912D01*
X16969186Y-6472912D02*
X16978710Y-6463388D01*
X16978710Y-6463388D02*
X16969186Y-6453864D01*
X16969186Y-6453864D02*
X16969186Y-6472912D01*
X17092995Y-6653864D02*
X17073948Y-6644341D01*
X17073948Y-6644341D02*
X17064424Y-6625293D01*
X17064424Y-6625293D02*
X17064424Y-6453864D01*
X17197757Y-6653864D02*
X17178710Y-6644341D01*
X17178710Y-6644341D02*
X17169186Y-6625293D01*
X17169186Y-6625293D02*
X17169186Y-6453864D01*
X17426329Y-6653864D02*
X17426329Y-6453864D01*
X17426329Y-6453864D02*
X17492995Y-6596722D01*
X17492995Y-6596722D02*
X17559662Y-6453864D01*
X17559662Y-6453864D02*
X17559662Y-6653864D01*
X17740614Y-6653864D02*
X17740614Y-6549103D01*
X17740614Y-6549103D02*
X17731091Y-6530055D01*
X17731091Y-6530055D02*
X17712043Y-6520531D01*
X17712043Y-6520531D02*
X17673948Y-6520531D01*
X17673948Y-6520531D02*
X17654900Y-6530055D01*
X17740614Y-6644341D02*
X17721567Y-6653864D01*
X17721567Y-6653864D02*
X17673948Y-6653864D01*
X17673948Y-6653864D02*
X17654900Y-6644341D01*
X17654900Y-6644341D02*
X17645376Y-6625293D01*
X17645376Y-6625293D02*
X17645376Y-6606245D01*
X17645376Y-6606245D02*
X17654900Y-6587198D01*
X17654900Y-6587198D02*
X17673948Y-6577674D01*
X17673948Y-6577674D02*
X17721567Y-6577674D01*
X17721567Y-6577674D02*
X17740614Y-6568150D01*
X17835852Y-6520531D02*
X17835852Y-6720531D01*
X17835852Y-6530055D02*
X17854900Y-6520531D01*
X17854900Y-6520531D02*
X17892995Y-6520531D01*
X17892995Y-6520531D02*
X17912043Y-6530055D01*
X17912043Y-6530055D02*
X17921567Y-6539579D01*
X17921567Y-6539579D02*
X17931091Y-6558626D01*
X17931091Y-6558626D02*
X17931091Y-6615769D01*
X17931091Y-6615769D02*
X17921567Y-6634817D01*
X17921567Y-6634817D02*
X17912043Y-6644341D01*
X17912043Y-6644341D02*
X17892995Y-6653864D01*
X17892995Y-6653864D02*
X17854900Y-6653864D01*
X17854900Y-6653864D02*
X17835852Y-6644341D01*
X18016805Y-6634817D02*
X18026329Y-6644341D01*
X18026329Y-6644341D02*
X18016805Y-6653864D01*
X18016805Y-6653864D02*
X18007281Y-6644341D01*
X18007281Y-6644341D02*
X18016805Y-6634817D01*
X18016805Y-6634817D02*
X18016805Y-6653864D01*
X18016805Y-6530055D02*
X18026329Y-6539579D01*
X18026329Y-6539579D02*
X18016805Y-6549103D01*
X18016805Y-6549103D02*
X18007281Y-6539579D01*
X18007281Y-6539579D02*
X18016805Y-6530055D01*
X18016805Y-6530055D02*
X18016805Y-6549103D01*
M02*
