%TF.GenerationSoftware,KiCad,Pcbnew,9.0.0*%
%TF.CreationDate,2025-03-22T00:35:49-04:00*%
%TF.ProjectId,Project Resonator Crossover Circuit PCB,50726f6a-6563-4742-9052-65736f6e6174,rev?*%
%TF.SameCoordinates,Original*%
%TF.FileFunction,Copper,L2,Bot*%
%TF.FilePolarity,Positive*%
%FSLAX46Y46*%
G04 Gerber Fmt 4.6, Leading zero omitted, Abs format (unit mm)*
G04 Created by KiCad (PCBNEW 9.0.0) date 2025-03-22 00:35:49*
%MOMM*%
%LPD*%
G01*
G04 APERTURE LIST*
%TA.AperFunction,ViaPad*%
%ADD10C,0.600000*%
%TD*%
%TA.AperFunction,Conductor*%
%ADD11C,0.508000*%
%TD*%
%TA.AperFunction,Conductor*%
%ADD12C,0.200000*%
%TD*%
%TA.AperFunction,Conductor*%
%ADD13C,0.254000*%
%TD*%
G04 APERTURE END LIST*
D10*
%TO.N,+*%
X166573200Y-54926900D03*
X171399200Y-53390800D03*
X173228000Y-53390800D03*
X170078400Y-56345200D03*
X164891600Y-58064400D03*
X166592112Y-52318936D03*
X169210796Y-52679845D03*
X167335200Y-54926900D03*
%TO.N,GND*%
X167233600Y-54102000D03*
X169011600Y-57048400D03*
%TO.N,+*%
X169283000Y-59690000D03*
X168656000Y-57912000D03*
%TD*%
D11*
%TO.N,+*%
X167335200Y-54926900D02*
X166573200Y-54926900D01*
X165569300Y-55930800D02*
X166573200Y-54926900D01*
X164846600Y-55930800D02*
X165569300Y-55930800D01*
X166115755Y-52679845D02*
X164846600Y-53949000D01*
X169210796Y-52679845D02*
X166115755Y-52679845D01*
X164846600Y-53949000D02*
X164846600Y-55930800D01*
X166478600Y-52432448D02*
X166478600Y-54832300D01*
X166592112Y-52318936D02*
X166478600Y-52432448D01*
X166478600Y-54832300D02*
X166573200Y-54926900D01*
X171399200Y-53390800D02*
X173228000Y-53390800D01*
X170434000Y-57810400D02*
X170434000Y-56700800D01*
X170180000Y-58064400D02*
X170434000Y-57810400D01*
X164891600Y-58064400D02*
X170180000Y-58064400D01*
X170434000Y-56700800D02*
X170078400Y-56345200D01*
%TO.N,GND*%
X169011600Y-54356000D02*
X169011600Y-57048400D01*
D12*
X168960800Y-54356000D02*
X169011600Y-54356000D01*
D11*
X168706800Y-54102000D02*
X168960800Y-54356000D01*
X167233600Y-54102000D02*
X168706800Y-54102000D01*
D13*
%TO.N,+*%
X168656000Y-57912000D02*
X168656000Y-59063000D01*
X168656000Y-59063000D02*
X169283000Y-59690000D01*
%TD*%
%TA.AperFunction,Conductor*%
%TO.N,GND*%
G36*
X173534139Y-51418985D02*
G01*
X173579894Y-51471789D01*
X173591100Y-51523300D01*
X173591100Y-52495748D01*
X173571415Y-52562787D01*
X173518611Y-52608542D01*
X173449453Y-52618486D01*
X173442909Y-52617365D01*
X173306845Y-52590300D01*
X173306842Y-52590300D01*
X173149158Y-52590300D01*
X173149155Y-52590300D01*
X172994511Y-52621060D01*
X172994506Y-52621062D01*
X172994504Y-52621062D01*
X172994503Y-52621063D01*
X172980501Y-52626862D01*
X172933053Y-52636300D01*
X171694147Y-52636300D01*
X171646698Y-52626862D01*
X171632697Y-52621063D01*
X171632693Y-52621062D01*
X171632688Y-52621060D01*
X171478045Y-52590300D01*
X171478042Y-52590300D01*
X171320358Y-52590300D01*
X171320355Y-52590300D01*
X171165710Y-52621061D01*
X171165698Y-52621064D01*
X171020027Y-52681402D01*
X171020014Y-52681409D01*
X170888911Y-52769010D01*
X170888907Y-52769013D01*
X170777413Y-52880507D01*
X170777410Y-52880511D01*
X170689809Y-53011614D01*
X170689802Y-53011627D01*
X170629464Y-53157298D01*
X170629461Y-53157310D01*
X170598700Y-53311953D01*
X170598700Y-53469646D01*
X170629461Y-53624289D01*
X170629464Y-53624301D01*
X170689802Y-53769972D01*
X170689809Y-53769985D01*
X170777410Y-53901088D01*
X170777413Y-53901092D01*
X170888907Y-54012586D01*
X170888911Y-54012589D01*
X171020014Y-54100190D01*
X171020027Y-54100197D01*
X171157557Y-54157163D01*
X171165703Y-54160537D01*
X171320353Y-54191299D01*
X171320356Y-54191300D01*
X171320358Y-54191300D01*
X171478044Y-54191300D01*
X171478045Y-54191299D01*
X171582806Y-54170461D01*
X171632688Y-54160539D01*
X171632689Y-54160538D01*
X171632697Y-54160537D01*
X171646698Y-54154737D01*
X171694147Y-54145300D01*
X172933053Y-54145300D01*
X172980501Y-54154737D01*
X172994503Y-54160537D01*
X172994508Y-54160538D01*
X172994511Y-54160539D01*
X173149153Y-54191299D01*
X173149156Y-54191300D01*
X173149158Y-54191300D01*
X173306843Y-54191300D01*
X173340427Y-54184619D01*
X173442910Y-54164234D01*
X173512499Y-54170461D01*
X173567677Y-54213323D01*
X173590922Y-54279213D01*
X173591100Y-54285851D01*
X173591100Y-62675100D01*
X173571415Y-62742139D01*
X173518611Y-62787894D01*
X173467100Y-62799100D01*
X164716100Y-62799100D01*
X164649061Y-62779415D01*
X164603306Y-62726611D01*
X164592100Y-62675100D01*
X164592100Y-58972102D01*
X164611785Y-58905063D01*
X164664589Y-58859308D01*
X164733747Y-58849364D01*
X164740267Y-58850480D01*
X164797035Y-58861772D01*
X164812757Y-58864900D01*
X164812758Y-58864900D01*
X164970444Y-58864900D01*
X164970445Y-58864899D01*
X165102736Y-58838585D01*
X165125088Y-58834139D01*
X165125089Y-58834138D01*
X165125097Y-58834137D01*
X165139098Y-58828337D01*
X165186547Y-58818900D01*
X167904500Y-58818900D01*
X167971539Y-58838585D01*
X168017294Y-58891389D01*
X168028500Y-58942900D01*
X168028500Y-59124807D01*
X168052612Y-59246027D01*
X168052615Y-59246039D01*
X168070822Y-59289993D01*
X168099915Y-59360230D01*
X168164243Y-59456503D01*
X168164248Y-59456510D01*
X168168591Y-59463011D01*
X168457907Y-59752326D01*
X168491392Y-59813649D01*
X168491843Y-59815815D01*
X168513261Y-59923491D01*
X168513264Y-59923501D01*
X168573602Y-60069172D01*
X168573609Y-60069185D01*
X168661210Y-60200288D01*
X168661213Y-60200292D01*
X168772707Y-60311786D01*
X168772711Y-60311789D01*
X168903814Y-60399390D01*
X168903827Y-60399397D01*
X169049498Y-60459735D01*
X169049503Y-60459737D01*
X169204153Y-60490499D01*
X169204156Y-60490500D01*
X169204158Y-60490500D01*
X169361844Y-60490500D01*
X169361845Y-60490499D01*
X169516497Y-60459737D01*
X169662179Y-60399394D01*
X169793289Y-60311789D01*
X169904789Y-60200289D01*
X169992394Y-60069179D01*
X170052737Y-59923497D01*
X170083500Y-59768842D01*
X170083500Y-59611158D01*
X170083500Y-59611155D01*
X170083499Y-59611153D01*
X170052737Y-59456503D01*
X170012860Y-59360230D01*
X169992397Y-59310827D01*
X169992390Y-59310814D01*
X169904789Y-59179711D01*
X169904786Y-59179707D01*
X169793292Y-59068213D01*
X169793288Y-59068210D01*
X169760052Y-59046002D01*
X169715247Y-58992389D01*
X169706540Y-58923064D01*
X169736695Y-58860037D01*
X169796138Y-58823318D01*
X169828943Y-58818900D01*
X170099554Y-58818900D01*
X170099574Y-58818901D01*
X170105688Y-58818901D01*
X170254314Y-58818901D01*
X170292663Y-58811271D01*
X170375894Y-58794715D01*
X170400080Y-58789905D01*
X170458352Y-58765768D01*
X170462046Y-58764238D01*
X170537385Y-58733032D01*
X170537386Y-58733031D01*
X170537389Y-58733030D01*
X170660966Y-58650459D01*
X170914963Y-58396460D01*
X170914966Y-58396459D01*
X171020059Y-58291366D01*
X171102629Y-58167790D01*
X171159505Y-58030480D01*
X171188500Y-57884712D01*
X171188500Y-56626488D01*
X171159505Y-56480720D01*
X171102629Y-56343410D01*
X171020059Y-56219834D01*
X171020054Y-56219828D01*
X170910647Y-56110421D01*
X170910624Y-56110400D01*
X170820472Y-56020248D01*
X170793590Y-55980015D01*
X170787794Y-55966022D01*
X170787793Y-55966020D01*
X170700189Y-55834910D01*
X170588692Y-55723413D01*
X170588688Y-55723410D01*
X170457585Y-55635809D01*
X170457572Y-55635802D01*
X170311901Y-55575464D01*
X170311889Y-55575461D01*
X170157245Y-55544700D01*
X170157242Y-55544700D01*
X169999558Y-55544700D01*
X169999555Y-55544700D01*
X169844910Y-55575461D01*
X169844898Y-55575464D01*
X169699227Y-55635802D01*
X169699214Y-55635809D01*
X169568111Y-55723410D01*
X169568107Y-55723413D01*
X169456613Y-55834907D01*
X169456610Y-55834911D01*
X169369009Y-55966014D01*
X169369002Y-55966027D01*
X169308664Y-56111698D01*
X169308661Y-56111710D01*
X169277900Y-56266353D01*
X169277900Y-56424046D01*
X169308661Y-56578689D01*
X169308664Y-56578701D01*
X169369002Y-56724372D01*
X169369009Y-56724385D01*
X169456610Y-56855488D01*
X169456613Y-56855492D01*
X169568105Y-56966984D01*
X169568108Y-56966986D01*
X169568111Y-56966989D01*
X169624391Y-57004594D01*
X169629481Y-57010683D01*
X169636703Y-57013982D01*
X169651566Y-57037110D01*
X169669195Y-57058204D01*
X169671146Y-57067578D01*
X169674477Y-57072760D01*
X169679500Y-57107695D01*
X169679500Y-57185900D01*
X169659815Y-57252939D01*
X169607011Y-57298694D01*
X169555500Y-57309900D01*
X169233371Y-57309900D01*
X169166332Y-57290215D01*
X169164480Y-57289002D01*
X169035185Y-57202609D01*
X169035172Y-57202602D01*
X168889501Y-57142264D01*
X168889489Y-57142261D01*
X168734845Y-57111500D01*
X168734842Y-57111500D01*
X168577158Y-57111500D01*
X168577155Y-57111500D01*
X168422510Y-57142261D01*
X168422498Y-57142264D01*
X168276827Y-57202602D01*
X168276814Y-57202609D01*
X168147520Y-57289002D01*
X168080843Y-57309880D01*
X168078629Y-57309900D01*
X165186547Y-57309900D01*
X165139098Y-57300462D01*
X165125097Y-57294663D01*
X165125093Y-57294662D01*
X165125088Y-57294660D01*
X164970445Y-57263900D01*
X164970442Y-57263900D01*
X164812758Y-57263900D01*
X164812755Y-57263900D01*
X164740291Y-57278314D01*
X164670700Y-57272087D01*
X164615522Y-57229224D01*
X164592278Y-57163334D01*
X164592100Y-57156697D01*
X164592100Y-56800552D01*
X164611785Y-56733513D01*
X164664589Y-56687758D01*
X164733747Y-56677814D01*
X164740257Y-56678928D01*
X164772288Y-56685300D01*
X164920912Y-56685300D01*
X165488854Y-56685300D01*
X165488874Y-56685301D01*
X165494988Y-56685301D01*
X165643614Y-56685301D01*
X165675614Y-56678935D01*
X165765194Y-56661115D01*
X165789380Y-56656305D01*
X165861364Y-56626488D01*
X165926689Y-56599430D01*
X166050266Y-56516859D01*
X166849406Y-55717719D01*
X166876333Y-55703015D01*
X166902152Y-55686423D01*
X166908352Y-55685531D01*
X166910729Y-55684234D01*
X166937087Y-55681400D01*
X167040253Y-55681400D01*
X167087701Y-55690837D01*
X167101703Y-55696637D01*
X167101708Y-55696638D01*
X167101711Y-55696639D01*
X167256353Y-55727399D01*
X167256356Y-55727400D01*
X167256358Y-55727400D01*
X167414044Y-55727400D01*
X167414045Y-55727399D01*
X167568697Y-55696637D01*
X167714379Y-55636294D01*
X167845489Y-55548689D01*
X167956989Y-55437189D01*
X168044594Y-55306079D01*
X168104937Y-55160397D01*
X168135700Y-55005742D01*
X168135700Y-54848058D01*
X168135700Y-54848055D01*
X168135699Y-54848053D01*
X168104938Y-54693410D01*
X168104937Y-54693403D01*
X168104935Y-54693398D01*
X168044597Y-54547727D01*
X168044590Y-54547714D01*
X167956989Y-54416611D01*
X167956986Y-54416607D01*
X167845492Y-54305113D01*
X167845488Y-54305110D01*
X167714385Y-54217509D01*
X167714372Y-54217502D01*
X167568701Y-54157164D01*
X167568689Y-54157161D01*
X167414045Y-54126400D01*
X167414042Y-54126400D01*
X167357100Y-54126400D01*
X167290061Y-54106715D01*
X167244306Y-54053911D01*
X167233100Y-54002400D01*
X167233100Y-53558345D01*
X167252785Y-53491306D01*
X167305589Y-53445551D01*
X167357100Y-53434345D01*
X168915849Y-53434345D01*
X168963297Y-53443782D01*
X168977299Y-53449582D01*
X168977304Y-53449583D01*
X168977307Y-53449584D01*
X169131949Y-53480344D01*
X169131952Y-53480345D01*
X169131954Y-53480345D01*
X169289640Y-53480345D01*
X169289641Y-53480344D01*
X169444293Y-53449582D01*
X169589975Y-53389239D01*
X169721085Y-53301634D01*
X169832585Y-53190134D01*
X169920190Y-53059024D01*
X169980533Y-52913342D01*
X170011296Y-52758687D01*
X170011296Y-52601003D01*
X170011296Y-52601000D01*
X170011295Y-52600998D01*
X169980534Y-52446355D01*
X169980533Y-52446348D01*
X169980531Y-52446343D01*
X169920193Y-52300672D01*
X169920186Y-52300659D01*
X169832585Y-52169556D01*
X169832582Y-52169552D01*
X169721088Y-52058058D01*
X169721084Y-52058055D01*
X169589981Y-51970454D01*
X169589968Y-51970447D01*
X169444297Y-51910109D01*
X169444285Y-51910106D01*
X169289641Y-51879345D01*
X169289638Y-51879345D01*
X169131954Y-51879345D01*
X169131951Y-51879345D01*
X168977307Y-51910105D01*
X168977302Y-51910107D01*
X168977300Y-51910107D01*
X168977299Y-51910108D01*
X168963297Y-51915907D01*
X168915849Y-51925345D01*
X167358156Y-51925345D01*
X167291117Y-51905660D01*
X167255054Y-51870236D01*
X167213901Y-51808647D01*
X167213898Y-51808643D01*
X167102404Y-51697149D01*
X167102400Y-51697146D01*
X166996525Y-51626402D01*
X166951720Y-51572790D01*
X166943013Y-51503465D01*
X166973168Y-51440437D01*
X167032611Y-51403718D01*
X167065416Y-51399300D01*
X173467100Y-51399300D01*
X173534139Y-51418985D01*
G37*
%TD.AperFunction*%
%TD*%
M02*
