%TF.GenerationSoftware,KiCad,Pcbnew,9.0.0*%
%TF.CreationDate,2025-04-04T03:51:44-04:00*%
%TF.ProjectId,Project Resonator Crossover Circuit PCB,50726f6a-6563-4742-9052-65736f6e6174,rev?*%
%TF.SameCoordinates,Original*%
%TF.FileFunction,Copper,L2,Bot*%
%TF.FilePolarity,Positive*%
%FSLAX46Y46*%
G04 Gerber Fmt 4.6, Leading zero omitted, Abs format (unit mm)*
G04 Created by KiCad (PCBNEW 9.0.0) date 2025-04-04 03:51:44*
%MOMM*%
%LPD*%
G01*
G04 APERTURE LIST*
%TA.AperFunction,ViaPad*%
%ADD10C,0.600000*%
%TD*%
%TA.AperFunction,Conductor*%
%ADD11C,0.190500*%
%TD*%
G04 APERTURE END LIST*
D10*
%TO.N,GND*%
X168958000Y-59055384D03*
X171612000Y-55055137D03*
X173228000Y-56388000D03*
X169129433Y-54888120D03*
%TD*%
D11*
%TO.N,GND*%
X169164000Y-56388000D02*
X170629313Y-56388000D01*
X168958000Y-56594000D02*
X169164000Y-56388000D01*
X168958000Y-59055384D02*
X168958000Y-56594000D01*
X171612000Y-56296000D02*
X171704000Y-56388000D01*
X171704000Y-56388000D02*
X173228000Y-56388000D01*
X171612000Y-55055137D02*
X171612000Y-56296000D01*
X170629313Y-56388000D02*
X171704000Y-56388000D01*
X169129433Y-54888120D02*
X170629313Y-56388000D01*
%TD*%
%TA.AperFunction,Conductor*%
%TO.N,Net-(C1-Pad2)*%
G36*
X173852194Y-51417606D02*
G01*
X173870500Y-51461800D01*
X173870500Y-56168684D01*
X173852194Y-56212878D01*
X173808000Y-56231184D01*
X173763806Y-56212878D01*
X173747630Y-56184860D01*
X173744713Y-56173974D01*
X173744712Y-56173971D01*
X173706701Y-56108134D01*
X173671711Y-56047529D01*
X173671709Y-56047527D01*
X173671706Y-56047523D01*
X173568476Y-55944293D01*
X173568472Y-55944290D01*
X173568471Y-55944289D01*
X173505250Y-55907788D01*
X173442028Y-55871287D01*
X173442025Y-55871286D01*
X173301007Y-55833501D01*
X173301002Y-55833500D01*
X173301001Y-55833500D01*
X173154999Y-55833500D01*
X173154998Y-55833500D01*
X173154992Y-55833501D01*
X173013974Y-55871286D01*
X173013971Y-55871287D01*
X172887527Y-55944290D01*
X172887524Y-55944293D01*
X172811874Y-56019944D01*
X172767680Y-56038250D01*
X172024250Y-56038250D01*
X171980056Y-56019944D01*
X171961750Y-55975750D01*
X171961750Y-55515457D01*
X171980056Y-55471263D01*
X172008701Y-55442618D01*
X172055711Y-55395608D01*
X172128712Y-55269166D01*
X172166500Y-55128138D01*
X172166500Y-54982136D01*
X172128712Y-54841108D01*
X172055711Y-54714666D01*
X172055709Y-54714664D01*
X172055706Y-54714660D01*
X171952476Y-54611430D01*
X171952472Y-54611427D01*
X171952471Y-54611426D01*
X171842006Y-54547649D01*
X171826028Y-54538424D01*
X171826025Y-54538423D01*
X171685007Y-54500638D01*
X171685002Y-54500637D01*
X171685001Y-54500637D01*
X171538999Y-54500637D01*
X171538998Y-54500637D01*
X171538992Y-54500638D01*
X171397974Y-54538423D01*
X171397971Y-54538424D01*
X171271527Y-54611427D01*
X171271523Y-54611430D01*
X171168293Y-54714660D01*
X171168290Y-54714664D01*
X171095287Y-54841108D01*
X171095286Y-54841111D01*
X171057501Y-54982129D01*
X171057500Y-54982137D01*
X171057500Y-55128136D01*
X171057501Y-55128144D01*
X171095286Y-55269162D01*
X171095287Y-55269165D01*
X171168290Y-55395609D01*
X171243944Y-55471263D01*
X171262250Y-55515457D01*
X171262250Y-55975750D01*
X171243944Y-56019944D01*
X171199750Y-56038250D01*
X170800073Y-56038250D01*
X170755879Y-56019944D01*
X169702239Y-54966304D01*
X169683933Y-54922110D01*
X169683933Y-54815120D01*
X169683931Y-54815112D01*
X169646146Y-54674094D01*
X169646145Y-54674091D01*
X169573144Y-54547649D01*
X169573142Y-54547647D01*
X169573139Y-54547643D01*
X169469909Y-54444413D01*
X169469905Y-54444410D01*
X169469904Y-54444409D01*
X169406683Y-54407908D01*
X169343461Y-54371407D01*
X169343458Y-54371406D01*
X169202440Y-54333621D01*
X169202435Y-54333620D01*
X169202434Y-54333620D01*
X169056432Y-54333620D01*
X169056431Y-54333620D01*
X169056425Y-54333621D01*
X168915407Y-54371406D01*
X168915404Y-54371407D01*
X168788960Y-54444410D01*
X168788956Y-54444413D01*
X168685726Y-54547643D01*
X168685723Y-54547647D01*
X168612720Y-54674091D01*
X168612719Y-54674094D01*
X168574934Y-54815112D01*
X168574933Y-54815120D01*
X168574933Y-54961119D01*
X168574934Y-54961127D01*
X168612719Y-55102145D01*
X168612720Y-55102148D01*
X168685723Y-55228592D01*
X168685726Y-55228596D01*
X168788956Y-55331826D01*
X168788960Y-55331829D01*
X168788962Y-55331831D01*
X168915404Y-55404832D01*
X168915407Y-55404833D01*
X169001707Y-55427956D01*
X169056432Y-55442620D01*
X169163424Y-55442620D01*
X169207618Y-55460926D01*
X169678247Y-55931556D01*
X169696553Y-55975750D01*
X169678247Y-56019944D01*
X169634053Y-56038250D01*
X169213886Y-56038250D01*
X169213870Y-56038249D01*
X169210045Y-56038249D01*
X169117955Y-56038249D01*
X169117949Y-56038249D01*
X169029003Y-56062084D01*
X169028999Y-56062085D01*
X168999809Y-56078936D01*
X168999810Y-56078937D01*
X168949248Y-56108129D01*
X168949243Y-56108134D01*
X168884130Y-56173248D01*
X168743248Y-56314130D01*
X168678134Y-56379243D01*
X168678129Y-56379248D01*
X168648937Y-56429810D01*
X168632085Y-56458999D01*
X168632084Y-56459003D01*
X168608249Y-56547949D01*
X168608249Y-56645076D01*
X168608250Y-56645089D01*
X168608250Y-58595063D01*
X168589944Y-58639257D01*
X168514293Y-58714907D01*
X168514290Y-58714911D01*
X168441287Y-58841355D01*
X168441286Y-58841358D01*
X168403501Y-58982376D01*
X168403500Y-58982384D01*
X168403500Y-59128383D01*
X168403501Y-59128391D01*
X168441286Y-59269409D01*
X168441287Y-59269412D01*
X168514290Y-59395856D01*
X168514293Y-59395860D01*
X168617523Y-59499090D01*
X168617527Y-59499093D01*
X168617529Y-59499095D01*
X168743971Y-59572096D01*
X168743974Y-59572097D01*
X168830274Y-59595220D01*
X168884999Y-59609884D01*
X168885000Y-59609884D01*
X169031000Y-59609884D01*
X169031001Y-59609884D01*
X169172029Y-59572096D01*
X169298471Y-59499095D01*
X169401711Y-59395855D01*
X169474712Y-59269413D01*
X169512500Y-59128385D01*
X169512500Y-58982383D01*
X169474712Y-58841355D01*
X169401711Y-58714913D01*
X169401709Y-58714911D01*
X169401706Y-58714907D01*
X169326056Y-58639257D01*
X169307750Y-58595063D01*
X169307750Y-56800250D01*
X169326056Y-56756056D01*
X169370250Y-56737750D01*
X170583264Y-56737750D01*
X170583268Y-56737751D01*
X170675359Y-56737751D01*
X170675363Y-56737750D01*
X171654114Y-56737750D01*
X171654130Y-56737751D01*
X171657955Y-56737751D01*
X171753871Y-56737751D01*
X171753887Y-56737750D01*
X172767680Y-56737750D01*
X172811874Y-56756056D01*
X172887529Y-56831711D01*
X173013971Y-56904712D01*
X173013974Y-56904713D01*
X173100274Y-56927836D01*
X173154999Y-56942500D01*
X173155000Y-56942500D01*
X173301000Y-56942500D01*
X173301001Y-56942500D01*
X173442029Y-56904712D01*
X173568471Y-56831711D01*
X173671711Y-56728471D01*
X173744712Y-56602029D01*
X173747630Y-56591138D01*
X173776749Y-56553189D01*
X173824175Y-56546944D01*
X173862126Y-56576064D01*
X173870500Y-56607315D01*
X173870500Y-62835807D01*
X173852194Y-62880001D01*
X173808000Y-62898307D01*
X164433994Y-62898307D01*
X164389800Y-62880001D01*
X164371494Y-62835807D01*
X164371494Y-51461800D01*
X164389800Y-51417606D01*
X164433994Y-51399300D01*
X173808000Y-51399300D01*
X173852194Y-51417606D01*
G37*
%TD.AperFunction*%
%TD*%
M02*
