%TF.GenerationSoftware,KiCad,Pcbnew,9.0.0*%
%TF.CreationDate,2025-03-22T00:36:34-04:00*%
%TF.ProjectId,Project Resonator Crossover Circuit PCB,50726f6a-6563-4742-9052-65736f6e6174,rev?*%
%TF.SameCoordinates,Original*%
%TF.FileFunction,Drillmap*%
%TF.FilePolarity,Positive*%
%FSLAX45Y45*%
G04 Gerber Fmt 4.5, Leading zero omitted, Abs format (unit mm)*
G04 Created by KiCad (PCBNEW 9.0.0) date 2025-03-22 00:36:34*
%MOMM*%
%LPD*%
G01*
G04 APERTURE LIST*
%ADD10C,0.050000*%
%ADD11C,0.200000*%
G04 APERTURE END LIST*
D10*
X16409160Y-5089880D02*
X17409160Y-5089880D01*
X17409160Y-6329960D01*
X16409160Y-6329960D01*
X16409160Y-5089880D01*
D11*
X16667437Y-6643944D02*
X16667437Y-6443944D01*
X16667437Y-6443944D02*
X16715056Y-6443944D01*
X16715056Y-6443944D02*
X16743627Y-6453468D01*
X16743627Y-6453468D02*
X16762675Y-6472515D01*
X16762675Y-6472515D02*
X16772199Y-6491563D01*
X16772199Y-6491563D02*
X16781723Y-6529658D01*
X16781723Y-6529658D02*
X16781723Y-6558229D01*
X16781723Y-6558229D02*
X16772199Y-6596325D01*
X16772199Y-6596325D02*
X16762675Y-6615372D01*
X16762675Y-6615372D02*
X16743627Y-6634420D01*
X16743627Y-6634420D02*
X16715056Y-6643944D01*
X16715056Y-6643944D02*
X16667437Y-6643944D01*
X16867437Y-6643944D02*
X16867437Y-6510610D01*
X16867437Y-6548706D02*
X16876961Y-6529658D01*
X16876961Y-6529658D02*
X16886484Y-6520134D01*
X16886484Y-6520134D02*
X16905532Y-6510610D01*
X16905532Y-6510610D02*
X16924580Y-6510610D01*
X16991246Y-6643944D02*
X16991246Y-6510610D01*
X16991246Y-6443944D02*
X16981723Y-6453468D01*
X16981723Y-6453468D02*
X16991246Y-6462991D01*
X16991246Y-6462991D02*
X17000770Y-6453468D01*
X17000770Y-6453468D02*
X16991246Y-6443944D01*
X16991246Y-6443944D02*
X16991246Y-6462991D01*
X17115056Y-6643944D02*
X17096008Y-6634420D01*
X17096008Y-6634420D02*
X17086484Y-6615372D01*
X17086484Y-6615372D02*
X17086484Y-6443944D01*
X17219818Y-6643944D02*
X17200770Y-6634420D01*
X17200770Y-6634420D02*
X17191246Y-6615372D01*
X17191246Y-6615372D02*
X17191246Y-6443944D01*
X17448389Y-6643944D02*
X17448389Y-6443944D01*
X17448389Y-6443944D02*
X17515056Y-6586801D01*
X17515056Y-6586801D02*
X17581723Y-6443944D01*
X17581723Y-6443944D02*
X17581723Y-6643944D01*
X17762675Y-6643944D02*
X17762675Y-6539182D01*
X17762675Y-6539182D02*
X17753151Y-6520134D01*
X17753151Y-6520134D02*
X17734104Y-6510610D01*
X17734104Y-6510610D02*
X17696008Y-6510610D01*
X17696008Y-6510610D02*
X17676961Y-6520134D01*
X17762675Y-6634420D02*
X17743627Y-6643944D01*
X17743627Y-6643944D02*
X17696008Y-6643944D01*
X17696008Y-6643944D02*
X17676961Y-6634420D01*
X17676961Y-6634420D02*
X17667437Y-6615372D01*
X17667437Y-6615372D02*
X17667437Y-6596325D01*
X17667437Y-6596325D02*
X17676961Y-6577277D01*
X17676961Y-6577277D02*
X17696008Y-6567753D01*
X17696008Y-6567753D02*
X17743627Y-6567753D01*
X17743627Y-6567753D02*
X17762675Y-6558229D01*
X17857913Y-6510610D02*
X17857913Y-6710610D01*
X17857913Y-6520134D02*
X17876961Y-6510610D01*
X17876961Y-6510610D02*
X17915056Y-6510610D01*
X17915056Y-6510610D02*
X17934104Y-6520134D01*
X17934104Y-6520134D02*
X17943627Y-6529658D01*
X17943627Y-6529658D02*
X17953151Y-6548706D01*
X17953151Y-6548706D02*
X17953151Y-6605848D01*
X17953151Y-6605848D02*
X17943627Y-6624896D01*
X17943627Y-6624896D02*
X17934104Y-6634420D01*
X17934104Y-6634420D02*
X17915056Y-6643944D01*
X17915056Y-6643944D02*
X17876961Y-6643944D01*
X17876961Y-6643944D02*
X17857913Y-6634420D01*
X18038865Y-6624896D02*
X18048389Y-6634420D01*
X18048389Y-6634420D02*
X18038865Y-6643944D01*
X18038865Y-6643944D02*
X18029342Y-6634420D01*
X18029342Y-6634420D02*
X18038865Y-6624896D01*
X18038865Y-6624896D02*
X18038865Y-6643944D01*
X18038865Y-6520134D02*
X18048389Y-6529658D01*
X18048389Y-6529658D02*
X18038865Y-6539182D01*
X18038865Y-6539182D02*
X18029342Y-6529658D01*
X18029342Y-6529658D02*
X18038865Y-6520134D01*
X18038865Y-6520134D02*
X18038865Y-6539182D01*
M02*
