%TF.GenerationSoftware,KiCad,Pcbnew,9.0.0*%
%TF.CreationDate,2025-04-04T03:51:44-04:00*%
%TF.ProjectId,Project Resonator Crossover Circuit PCB,50726f6a-6563-4742-9052-65736f6e6174,rev?*%
%TF.SameCoordinates,Original*%
%TF.FileFunction,Legend,Top*%
%TF.FilePolarity,Positive*%
%FSLAX46Y46*%
G04 Gerber Fmt 4.6, Leading zero omitted, Abs format (unit mm)*
G04 Created by KiCad (PCBNEW 9.0.0) date 2025-04-04 03:51:44*
%MOMM*%
%LPD*%
G01*
G04 APERTURE LIST*
%ADD10C,0.120000*%
G04 APERTURE END LIST*
D10*
%TO.C,C1*%
X166984000Y-54979835D02*
X166984000Y-54748165D01*
X166264000Y-54979835D02*
X166264000Y-54748165D01*
%TO.C,C4*%
X165460000Y-59551835D02*
X165460000Y-59320165D01*
X164740000Y-59551835D02*
X164740000Y-59320165D01*
%TO.C,C5*%
X168508000Y-59320165D02*
X168508000Y-59551835D01*
X167788000Y-59320165D02*
X167788000Y-59551835D01*
%TO.C,C6*%
X172604165Y-59584000D02*
X172835835Y-59584000D01*
X172604165Y-60304000D02*
X172835835Y-60304000D01*
%TO.C,H1*%
X171083200Y-53024000D02*
X169683200Y-53024000D01*
X171083200Y-51624000D02*
X171083200Y-53024000D01*
X169683200Y-53024000D02*
X169683200Y-51624000D01*
X169683200Y-51624000D02*
X171083200Y-51624000D01*
%TO.C,H2*%
X173470800Y-53024000D02*
X172070800Y-53024000D01*
X173470800Y-51624000D02*
X173470800Y-53024000D01*
X172070800Y-53024000D02*
X172070800Y-51624000D01*
X172070800Y-51624000D02*
X173470800Y-51624000D01*
%TO.C,H3*%
X166308000Y-62625200D02*
X164908000Y-62625200D01*
X166308000Y-61225200D02*
X166308000Y-62625200D01*
X164908000Y-62625200D02*
X164908000Y-61225200D01*
X164908000Y-61225200D02*
X166308000Y-61225200D01*
%TO.C,H4*%
X168848000Y-62625200D02*
X167448000Y-62625200D01*
X168848000Y-61225200D02*
X168848000Y-62625200D01*
X167448000Y-62625200D02*
X167448000Y-61225200D01*
X167448000Y-61225200D02*
X168848000Y-61225200D01*
%TO.C,H5*%
X173420000Y-62676000D02*
X172020000Y-62676000D01*
X173420000Y-61276000D02*
X173420000Y-62676000D01*
X172020000Y-62676000D02*
X172020000Y-61276000D01*
X172020000Y-61276000D02*
X173420000Y-61276000D01*
%TO.C,H6*%
X171134000Y-62676000D02*
X169734000Y-62676000D01*
X171134000Y-61276000D02*
X171134000Y-62676000D01*
X169734000Y-62676000D02*
X169734000Y-61276000D01*
X169734000Y-61276000D02*
X171134000Y-61276000D01*
%TO.C,H7*%
X166155600Y-53024000D02*
X164755600Y-53024000D01*
X166155600Y-51624000D02*
X166155600Y-53024000D01*
X164755600Y-53024000D02*
X164755600Y-51624000D01*
X164755600Y-51624000D02*
X166155600Y-51624000D01*
%TO.C,H8*%
X168594000Y-53024000D02*
X167194000Y-53024000D01*
X168594000Y-51624000D02*
X168594000Y-53024000D01*
X167194000Y-53024000D02*
X167194000Y-51624000D01*
X167194000Y-51624000D02*
X168594000Y-51624000D01*
%TO.C,H9*%
X171032400Y-58612000D02*
X169632400Y-58612000D01*
X171032400Y-57212000D02*
X171032400Y-58612000D01*
X169632400Y-58612000D02*
X169632400Y-57212000D01*
X169632400Y-57212000D02*
X171032400Y-57212000D01*
%TO.C,H10*%
X173470800Y-58612000D02*
X172070800Y-58612000D01*
X173470800Y-57212000D02*
X173470800Y-58612000D01*
X172070800Y-58612000D02*
X172070800Y-57212000D01*
X172070800Y-57212000D02*
X173470800Y-57212000D01*
%TO.C,R1*%
X168528000Y-54696379D02*
X168528000Y-55031621D01*
X167768000Y-54696379D02*
X167768000Y-55031621D01*
%TO.C,R2*%
X167004000Y-59603621D02*
X167004000Y-59268379D01*
X166244000Y-59603621D02*
X166244000Y-59268379D01*
%TO.C,R3*%
X170474621Y-59564000D02*
X170139379Y-59564000D01*
X170474621Y-60324000D02*
X170139379Y-60324000D01*
%TO.C,R4*%
X170266379Y-53925200D02*
X170601621Y-53925200D01*
X170266379Y-54685200D02*
X170601621Y-54685200D01*
%TO.C,R5*%
X170266379Y-56133000D02*
X170601621Y-56133000D01*
X170266379Y-55373000D02*
X170601621Y-55373000D01*
%TO.C,R6*%
X172848000Y-54777621D02*
X172848000Y-54442379D01*
X173608000Y-54777621D02*
X173608000Y-54442379D01*
%TO.C,R7*%
X165480000Y-55031621D02*
X165480000Y-54696379D01*
X164720000Y-55031621D02*
X164720000Y-54696379D01*
%TD*%
M02*
