%TF.GenerationSoftware,KiCad,Pcbnew,9.0.0*%
%TF.CreationDate,2025-04-04T13:40:51-04:00*%
%TF.ProjectId,Project Resonator Crossover Circuit PCB,50726f6a-6563-4742-9052-65736f6e6174,rev?*%
%TF.SameCoordinates,Original*%
%TF.FileFunction,Copper,L2,Bot*%
%TF.FilePolarity,Positive*%
%FSLAX46Y46*%
G04 Gerber Fmt 4.6, Leading zero omitted, Abs format (unit mm)*
G04 Created by KiCad (PCBNEW 9.0.0) date 2025-04-04 13:40:51*
%MOMM*%
%LPD*%
G01*
G04 APERTURE LIST*
%TA.AperFunction,ViaPad*%
%ADD10C,0.600000*%
%TD*%
%TA.AperFunction,Conductor*%
%ADD11C,0.203200*%
%TD*%
%TA.AperFunction,Conductor*%
%ADD12C,0.200000*%
%TD*%
G04 APERTURE END LIST*
D10*
%TO.N,GND*%
X172942196Y-53575004D03*
X168958000Y-59055384D03*
X171612000Y-55055137D03*
X169129433Y-54888120D03*
X172788229Y-56560869D03*
%TD*%
D11*
%TO.N,GND*%
X169871256Y-55629944D02*
X170629313Y-56388000D01*
D12*
X172942196Y-53575004D02*
X171926196Y-53575004D01*
X171926196Y-53575004D02*
X169871256Y-55629944D01*
D11*
X172615360Y-56388000D02*
X172788229Y-56560869D01*
X171704000Y-56388000D02*
X172615360Y-56388000D01*
X169129433Y-54888120D02*
X169871256Y-55629944D01*
X170629313Y-56388000D02*
X171704000Y-56388000D01*
X171612000Y-55055137D02*
X171612000Y-56296000D01*
X168958000Y-59055384D02*
X168958000Y-56594000D01*
X169164000Y-56388000D02*
X170629313Y-56388000D01*
X168958000Y-56594000D02*
X169164000Y-56388000D01*
X171612000Y-56296000D02*
X171704000Y-56388000D01*
%TD*%
%TA.AperFunction,Conductor*%
%TO.N,GND*%
G36*
X173852194Y-51417606D02*
G01*
X173870500Y-51461800D01*
X173870500Y-62835807D01*
X173852194Y-62880001D01*
X173808000Y-62898307D01*
X164433994Y-62898307D01*
X164389800Y-62880001D01*
X164371494Y-62835807D01*
X164371494Y-51461800D01*
X164389800Y-51417606D01*
X164433994Y-51399300D01*
X173808000Y-51399300D01*
X173852194Y-51417606D01*
G37*
%TD.AperFunction*%
%TD*%
M02*
