%TF.GenerationSoftware,KiCad,Pcbnew,9.0.0*%
%TF.CreationDate,2025-04-04T03:51:44-04:00*%
%TF.ProjectId,Project Resonator Crossover Circuit PCB,50726f6a-6563-4742-9052-65736f6e6174,rev?*%
%TF.SameCoordinates,Original*%
%TF.FileFunction,Copper,L1,Top*%
%TF.FilePolarity,Positive*%
%FSLAX46Y46*%
G04 Gerber Fmt 4.6, Leading zero omitted, Abs format (unit mm)*
G04 Created by KiCad (PCBNEW 9.0.0) date 2025-04-04 03:51:44*
%MOMM*%
%LPD*%
G01*
G04 APERTURE LIST*
G04 Aperture macros list*
%AMRoundRect*
0 Rectangle with rounded corners*
0 $1 Rounding radius*
0 $2 $3 $4 $5 $6 $7 $8 $9 X,Y pos of 4 corners*
0 Add a 4 corners polygon primitive as box body*
4,1,4,$2,$3,$4,$5,$6,$7,$8,$9,$2,$3,0*
0 Add four circle primitives for the rounded corners*
1,1,$1+$1,$2,$3*
1,1,$1+$1,$4,$5*
1,1,$1+$1,$6,$7*
1,1,$1+$1,$8,$9*
0 Add four rect primitives between the rounded corners*
20,1,$1+$1,$2,$3,$4,$5,0*
20,1,$1+$1,$4,$5,$6,$7,0*
20,1,$1+$1,$6,$7,$8,$9,0*
20,1,$1+$1,$8,$9,$2,$3,0*%
G04 Aperture macros list end*
%TA.AperFunction,SMDPad,CuDef*%
%ADD10RoundRect,0.155000X0.155000X-0.212500X0.155000X0.212500X-0.155000X0.212500X-0.155000X-0.212500X0*%
%TD*%
%TA.AperFunction,SMDPad,CuDef*%
%ADD11RoundRect,0.155000X-0.155000X0.212500X-0.155000X-0.212500X0.155000X-0.212500X0.155000X0.212500X0*%
%TD*%
%TA.AperFunction,SMDPad,CuDef*%
%ADD12RoundRect,0.155000X-0.212500X-0.155000X0.212500X-0.155000X0.212500X0.155000X-0.212500X0.155000X0*%
%TD*%
%TA.AperFunction,SMDPad,CuDef*%
%ADD13R,1.000000X1.000000*%
%TD*%
%TA.AperFunction,SMDPad,CuDef*%
%ADD14RoundRect,0.160000X-0.160000X0.197500X-0.160000X-0.197500X0.160000X-0.197500X0.160000X0.197500X0*%
%TD*%
%TA.AperFunction,SMDPad,CuDef*%
%ADD15RoundRect,0.160000X0.160000X-0.197500X0.160000X0.197500X-0.160000X0.197500X-0.160000X-0.197500X0*%
%TD*%
%TA.AperFunction,SMDPad,CuDef*%
%ADD16RoundRect,0.160000X0.197500X0.160000X-0.197500X0.160000X-0.197500X-0.160000X0.197500X-0.160000X0*%
%TD*%
%TA.AperFunction,SMDPad,CuDef*%
%ADD17RoundRect,0.160000X-0.197500X-0.160000X0.197500X-0.160000X0.197500X0.160000X-0.197500X0.160000X0*%
%TD*%
%TA.AperFunction,ViaPad*%
%ADD18C,0.600000*%
%TD*%
%TA.AperFunction,Conductor*%
%ADD19C,0.190500*%
%TD*%
%TA.AperFunction,Conductor*%
%ADD20C,0.200000*%
%TD*%
G04 APERTURE END LIST*
D10*
%TO.P,C1,2*%
%TO.N,GND*%
X166624000Y-54296500D03*
%TO.P,C1,1*%
%TO.N,+*%
X166624000Y-55431500D03*
%TD*%
%TO.P,C4,2*%
%TO.N,+*%
X165100000Y-58868500D03*
%TO.P,C4,1*%
X165100000Y-60003500D03*
%TD*%
D11*
%TO.P,C5,2*%
%TO.N,GND*%
X168148000Y-60003500D03*
%TO.P,C5,1*%
%TO.N,+*%
X168148000Y-58868500D03*
%TD*%
D12*
%TO.P,C6,2*%
%TO.N,+*%
X173287500Y-59944000D03*
%TO.P,C6,1*%
X172152500Y-59944000D03*
%TD*%
D13*
%TO.P,H1,1,1*%
%TO.N,+*%
X170383200Y-52324000D03*
%TD*%
%TO.P,H2,1,1*%
%TO.N,GND*%
X172770800Y-52324000D03*
%TD*%
%TO.P,H3,1,1*%
%TO.N,+*%
X165608000Y-61925200D03*
%TD*%
%TO.P,H4,1,1*%
%TO.N,GND*%
X168148000Y-61925200D03*
%TD*%
%TO.P,H5,1,1*%
%TO.N,+*%
X172720000Y-61976000D03*
%TD*%
%TO.P,H6,1,1*%
%TO.N,GND*%
X170434000Y-61976000D03*
%TD*%
%TO.P,H7,1,1*%
%TO.N,+*%
X165455600Y-52324000D03*
%TD*%
%TO.P,H8,1,1*%
%TO.N,GND*%
X167894000Y-52324000D03*
%TD*%
%TO.P,H9,1,1*%
%TO.N,+*%
X170332400Y-57912000D03*
%TD*%
%TO.P,H10,1,1*%
%TO.N,GND*%
X172770800Y-57912000D03*
%TD*%
D14*
%TO.P,R1,2*%
%TO.N,+*%
X168148000Y-55461500D03*
%TO.P,R1,1*%
X168148000Y-54266500D03*
%TD*%
D15*
%TO.P,R2,2*%
%TO.N,+*%
X166624000Y-58838500D03*
%TO.P,R2,1*%
X166624000Y-60033500D03*
%TD*%
D16*
%TO.P,R3,2*%
%TO.N,GND*%
X169709500Y-59944000D03*
%TO.P,R3,1*%
%TO.N,+*%
X170904500Y-59944000D03*
%TD*%
D17*
%TO.P,R4,2*%
%TO.N,+*%
X171031500Y-54305200D03*
%TO.P,R4,1*%
X169836500Y-54305200D03*
%TD*%
%TO.P,R5,2*%
%TO.N,+*%
X171031500Y-55753000D03*
%TO.P,R5,1*%
X169836500Y-55753000D03*
%TD*%
D15*
%TO.P,R6,2*%
%TO.N,GND*%
X173228000Y-54012500D03*
%TO.P,R6,1*%
%TO.N,+*%
X173228000Y-55207500D03*
%TD*%
%TO.P,R7,2*%
%TO.N,+*%
X165100000Y-54266500D03*
%TO.P,R7,1*%
X165100000Y-55461500D03*
%TD*%
D18*
%TO.N,GND*%
X168958000Y-59055384D03*
X171612000Y-55055137D03*
X173228000Y-56388000D03*
X169129433Y-54888120D03*
%TD*%
D19*
%TO.N,+*%
X169836500Y-55753000D02*
X171031500Y-55753000D01*
X169836500Y-54305200D02*
X171031500Y-54305200D01*
X172152500Y-59944000D02*
X173287500Y-59944000D01*
X166624000Y-60033500D02*
X166624000Y-58838500D01*
X165100000Y-60003500D02*
X165100000Y-58868500D01*
X168148000Y-55461500D02*
X168148000Y-54266500D01*
X165100000Y-55461500D02*
X165100000Y-54266500D01*
D20*
X168973500Y-56578500D02*
X170014900Y-56578500D01*
X165100000Y-58547000D02*
X166687500Y-56959500D01*
X166687500Y-56959500D02*
X168592500Y-56959500D01*
X165100000Y-58868500D02*
X165100000Y-58547000D01*
X168592500Y-56959500D02*
X168973500Y-56578500D01*
X170014900Y-56578500D02*
X170332400Y-56896000D01*
D19*
X171704000Y-58928000D02*
X171704000Y-56388000D01*
X173287500Y-59495500D02*
X172720000Y-58928000D01*
X172720000Y-58928000D02*
X171704000Y-58928000D01*
X173287500Y-59944000D02*
X173287500Y-59495500D01*
X171704000Y-56388000D02*
X172212000Y-56388000D01*
X170764200Y-56464200D02*
X170840400Y-56388000D01*
X171704000Y-60960000D02*
X172720000Y-61976000D01*
X170904500Y-60668500D02*
X170904500Y-59944000D01*
X171704000Y-60960000D02*
X171196000Y-60960000D01*
X171196000Y-60960000D02*
X170904500Y-60668500D01*
X172152500Y-60511500D02*
X171704000Y-60960000D01*
X172152500Y-59944000D02*
X172152500Y-60511500D01*
%TO.N,GND*%
X169164000Y-60864000D02*
X168958000Y-60658000D01*
X170434000Y-61976000D02*
X169164000Y-61976000D01*
X169164000Y-61976000D02*
X169164000Y-60864000D01*
X169709500Y-61251500D02*
X170434000Y-61976000D01*
X169709500Y-59944000D02*
X169709500Y-61251500D01*
X168958000Y-60658000D02*
X168958000Y-59055384D01*
X168656000Y-60960000D02*
X168958000Y-60658000D01*
X168148000Y-61468000D02*
X168656000Y-60960000D01*
X168148000Y-61925200D02*
X168148000Y-61468000D01*
X168148000Y-60003500D02*
X168148000Y-61925200D01*
%TO.N,+*%
X167537000Y-59479500D02*
X168148000Y-58868500D01*
X167132000Y-60960000D02*
X167537000Y-60555000D01*
X166624000Y-60960000D02*
X167132000Y-60960000D01*
X167537000Y-60555000D02*
X167537000Y-59479500D01*
X166573200Y-60960000D02*
X165608000Y-61925200D01*
X166624000Y-60960000D02*
X166573200Y-60960000D01*
X166624000Y-60033500D02*
X166624000Y-60960000D01*
X165459000Y-60003500D02*
X166624000Y-58838500D01*
X165100000Y-60003500D02*
X165459000Y-60003500D01*
%TO.N,GND*%
X169572551Y-55055137D02*
X171612000Y-55055137D01*
X169178000Y-51927200D02*
X169178000Y-54660586D01*
X169178000Y-54660586D02*
X169572551Y-55055137D01*
X169582200Y-51523000D02*
X169178000Y-51927200D01*
X171969800Y-51523000D02*
X169582200Y-51523000D01*
X172770800Y-52324000D02*
X171969800Y-51523000D01*
X173228000Y-57454800D02*
X172770800Y-57912000D01*
X173228000Y-56388000D02*
X173228000Y-57454800D01*
X169129433Y-53559433D02*
X169129433Y-54888120D01*
X167894000Y-52324000D02*
X169129433Y-53559433D01*
%TO.N,+*%
X170383200Y-53644800D02*
X170383200Y-52324000D01*
X170180000Y-53848000D02*
X170383200Y-53644800D01*
%TO.N,GND*%
X173228000Y-52781200D02*
X172770800Y-52324000D01*
X173228000Y-54012500D02*
X173228000Y-52781200D01*
%TO.N,+*%
X172607000Y-54586500D02*
X173228000Y-55207500D01*
X169836500Y-54191500D02*
X170180000Y-53848000D01*
X169836500Y-54305200D02*
X169836500Y-54191500D01*
X170180000Y-53848000D02*
X172607000Y-53848000D01*
X172607000Y-53848000D02*
X172607000Y-54586500D01*
X172212000Y-54356000D02*
X171082300Y-54356000D01*
X170840400Y-56388000D02*
X171704000Y-56388000D01*
X170332400Y-56896000D02*
X170764200Y-56464200D01*
X170332400Y-56896000D02*
X170332400Y-56452100D01*
X172212000Y-56388000D02*
X172212000Y-54356000D01*
X170332400Y-57912000D02*
X170332400Y-56896000D01*
X165455600Y-53910900D02*
X165455600Y-52324000D01*
X165100000Y-54266500D02*
X165455600Y-53910900D01*
X166026500Y-56388000D02*
X165100000Y-55461500D01*
X167415750Y-56104250D02*
X167132000Y-56388000D01*
X167415750Y-54639750D02*
X167415750Y-56104250D01*
X167132000Y-56388000D02*
X166026500Y-56388000D01*
X167415750Y-54639750D02*
X166624000Y-55431500D01*
%TO.N,GND*%
X167894000Y-53086000D02*
X167894000Y-52324000D01*
X166624000Y-54296500D02*
X166683500Y-54296500D01*
X166683500Y-54296500D02*
X167894000Y-53086000D01*
%TO.N,+*%
X167789000Y-54266500D02*
X167415750Y-54639750D01*
X168148000Y-54266500D02*
X167789000Y-54266500D01*
X169836500Y-55753000D02*
X168439500Y-55753000D01*
X168439500Y-55753000D02*
X168148000Y-55461500D01*
X170332400Y-56452100D02*
X171031500Y-55753000D01*
%TD*%
%TA.AperFunction,Conductor*%
%TO.N,Net-(C1-Pad2)*%
G36*
X169104585Y-51417606D02*
G01*
X169122891Y-51461800D01*
X169104585Y-51505993D01*
X169026313Y-51584265D01*
X168963250Y-51647328D01*
X168963248Y-51647330D01*
X168898134Y-51712443D01*
X168898129Y-51712448D01*
X168868937Y-51763010D01*
X168852085Y-51792199D01*
X168852084Y-51792203D01*
X168828249Y-51881149D01*
X168828249Y-51978276D01*
X168828250Y-51978289D01*
X168828250Y-52612741D01*
X168809944Y-52656935D01*
X168765750Y-52675241D01*
X168721556Y-52656935D01*
X168666805Y-52602184D01*
X168648499Y-52557990D01*
X168648499Y-51798935D01*
X168648499Y-51798933D01*
X168633734Y-51724699D01*
X168625545Y-51712443D01*
X168577484Y-51640515D01*
X168493302Y-51584266D01*
X168493300Y-51584265D01*
X168419067Y-51569500D01*
X167368935Y-51569500D01*
X167368931Y-51569501D01*
X167294700Y-51584265D01*
X167294696Y-51584267D01*
X167210515Y-51640515D01*
X167154266Y-51724697D01*
X167154265Y-51724699D01*
X167139500Y-51798932D01*
X167139500Y-52849064D01*
X167139501Y-52849068D01*
X167154265Y-52923299D01*
X167154267Y-52923303D01*
X167210515Y-53007484D01*
X167294697Y-53063733D01*
X167298043Y-53065119D01*
X167331868Y-53098943D01*
X167331869Y-53146779D01*
X167318320Y-53167056D01*
X166829185Y-53656194D01*
X166784991Y-53674500D01*
X166436774Y-53674500D01*
X166436772Y-53674500D01*
X166436760Y-53674501D01*
X166340885Y-53689686D01*
X166340875Y-53689689D01*
X166225302Y-53748577D01*
X166133577Y-53840302D01*
X166074689Y-53955875D01*
X166074686Y-53955885D01*
X166059501Y-54051760D01*
X166059500Y-54051776D01*
X166059500Y-54541223D01*
X166059501Y-54541239D01*
X166074686Y-54637114D01*
X166074689Y-54637124D01*
X166133577Y-54752697D01*
X166200686Y-54819806D01*
X166218992Y-54864000D01*
X166200686Y-54908194D01*
X166133577Y-54975302D01*
X166074689Y-55090875D01*
X166074686Y-55090885D01*
X166059501Y-55186760D01*
X166059500Y-55186776D01*
X166059500Y-55676223D01*
X166059501Y-55676239D01*
X166074686Y-55772114D01*
X166075798Y-55775535D01*
X166072043Y-55823223D01*
X166035668Y-55854289D01*
X165987980Y-55850534D01*
X165972162Y-55839041D01*
X165692805Y-55559684D01*
X165674499Y-55515490D01*
X165674499Y-55231381D01*
X165674499Y-55231379D01*
X165674499Y-55231378D01*
X165659127Y-55134316D01*
X165599518Y-55017326D01*
X165506674Y-54924482D01*
X165506672Y-54924480D01*
X165497264Y-54919686D01*
X165466198Y-54883310D01*
X165469953Y-54835623D01*
X165497266Y-54808311D01*
X165506674Y-54803518D01*
X165599518Y-54710674D01*
X165659127Y-54593684D01*
X165666122Y-54549517D01*
X165674498Y-54496636D01*
X165674498Y-54496635D01*
X165674500Y-54496623D01*
X165674499Y-54212510D01*
X165692805Y-54168317D01*
X165692805Y-54168316D01*
X165735470Y-54125652D01*
X165781515Y-54045898D01*
X165805350Y-53956945D01*
X165805350Y-53140998D01*
X165823656Y-53096805D01*
X165867850Y-53078499D01*
X165980665Y-53078499D01*
X165980666Y-53078499D01*
X166054901Y-53063734D01*
X166139084Y-53007484D01*
X166195334Y-52923301D01*
X166210100Y-52849067D01*
X166210099Y-51798934D01*
X166195334Y-51724699D01*
X166187145Y-51712443D01*
X166139084Y-51640515D01*
X166054902Y-51584266D01*
X166054900Y-51584265D01*
X165980667Y-51569500D01*
X164930535Y-51569500D01*
X164930531Y-51569501D01*
X164856300Y-51584265D01*
X164856296Y-51584267D01*
X164772115Y-51640515D01*
X164715866Y-51724697D01*
X164715865Y-51724699D01*
X164701100Y-51798932D01*
X164701100Y-52849064D01*
X164701101Y-52849068D01*
X164715865Y-52923299D01*
X164715867Y-52923303D01*
X164772115Y-53007484D01*
X164856297Y-53063733D01*
X164856299Y-53063734D01*
X164930533Y-53078500D01*
X165043349Y-53078499D01*
X165087544Y-53096804D01*
X165105850Y-53140998D01*
X165105850Y-53592000D01*
X165087544Y-53636194D01*
X165043350Y-53654500D01*
X164907382Y-53654500D01*
X164907376Y-53654501D01*
X164810314Y-53669873D01*
X164693326Y-53729481D01*
X164600481Y-53822326D01*
X164540874Y-53939311D01*
X164540871Y-53939321D01*
X164525501Y-54036363D01*
X164525500Y-54036379D01*
X164525500Y-54496618D01*
X164525501Y-54496623D01*
X164540873Y-54593685D01*
X164600481Y-54710673D01*
X164693327Y-54803519D01*
X164702732Y-54808311D01*
X164733800Y-54844684D01*
X164730047Y-54892372D01*
X164702737Y-54919685D01*
X164693328Y-54924479D01*
X164600481Y-55017326D01*
X164540874Y-55134311D01*
X164540871Y-55134321D01*
X164525501Y-55231363D01*
X164525500Y-55231379D01*
X164525500Y-55691618D01*
X164525501Y-55691623D01*
X164540873Y-55788685D01*
X164600481Y-55905673D01*
X164693326Y-55998518D01*
X164810311Y-56058125D01*
X164810313Y-56058125D01*
X164810316Y-56058127D01*
X164810319Y-56058127D01*
X164810321Y-56058128D01*
X164907363Y-56073498D01*
X164907365Y-56073498D01*
X164907377Y-56073500D01*
X165191490Y-56073499D01*
X165235684Y-56091805D01*
X165744442Y-56600563D01*
X165744447Y-56600569D01*
X165746629Y-56602751D01*
X165746630Y-56602752D01*
X165811748Y-56667870D01*
X165862309Y-56697061D01*
X165862308Y-56697061D01*
X165882245Y-56708571D01*
X165891501Y-56713915D01*
X165933182Y-56725083D01*
X165980449Y-56737750D01*
X165980455Y-56737751D01*
X166076370Y-56737751D01*
X166076386Y-56737750D01*
X166257023Y-56737750D01*
X166301217Y-56756056D01*
X166319523Y-56800250D01*
X166301217Y-56844444D01*
X164910958Y-58234701D01*
X164876542Y-58252237D01*
X164816883Y-58261687D01*
X164816878Y-58261688D01*
X164701302Y-58320577D01*
X164609577Y-58412302D01*
X164550689Y-58527875D01*
X164550686Y-58527885D01*
X164535501Y-58623760D01*
X164535500Y-58623776D01*
X164535500Y-59113223D01*
X164535501Y-59113239D01*
X164550686Y-59209114D01*
X164550689Y-59209124D01*
X164609577Y-59324697D01*
X164676686Y-59391806D01*
X164694992Y-59436000D01*
X164676686Y-59480194D01*
X164609577Y-59547302D01*
X164550689Y-59662875D01*
X164550686Y-59662885D01*
X164535501Y-59758760D01*
X164535500Y-59758776D01*
X164535500Y-60248223D01*
X164535501Y-60248239D01*
X164550686Y-60344114D01*
X164550689Y-60344124D01*
X164609577Y-60459697D01*
X164701302Y-60551422D01*
X164816875Y-60610310D01*
X164816877Y-60610310D01*
X164816880Y-60610312D01*
X164816883Y-60610312D01*
X164816885Y-60610313D01*
X164912760Y-60625498D01*
X164912766Y-60625498D01*
X164912774Y-60625500D01*
X164912776Y-60625500D01*
X165287224Y-60625500D01*
X165287226Y-60625500D01*
X165330596Y-60618631D01*
X165383114Y-60610313D01*
X165383114Y-60610312D01*
X165383120Y-60610312D01*
X165498698Y-60551422D01*
X165590422Y-60459698D01*
X165649312Y-60344120D01*
X165652983Y-60320939D01*
X165670542Y-60286501D01*
X165673572Y-60283473D01*
X165673752Y-60283370D01*
X165738870Y-60218252D01*
X165738871Y-60218249D01*
X165942807Y-60014312D01*
X165987000Y-59996007D01*
X166031194Y-60014313D01*
X166049500Y-60058507D01*
X166049500Y-60263617D01*
X166049501Y-60263623D01*
X166064873Y-60360685D01*
X166124481Y-60477673D01*
X166217326Y-60570518D01*
X166240124Y-60582134D01*
X166246654Y-60589780D01*
X166255944Y-60593628D01*
X166261596Y-60607274D01*
X166271191Y-60618508D01*
X166274250Y-60637822D01*
X166274250Y-60738440D01*
X166255944Y-60782634D01*
X165886184Y-61152394D01*
X165841990Y-61170700D01*
X165082935Y-61170700D01*
X165082931Y-61170701D01*
X165008700Y-61185465D01*
X165008696Y-61185467D01*
X164924515Y-61241715D01*
X164868266Y-61325897D01*
X164868265Y-61325899D01*
X164853500Y-61400132D01*
X164853500Y-62450264D01*
X164853501Y-62450268D01*
X164868265Y-62524499D01*
X164868267Y-62524503D01*
X164924515Y-62608684D01*
X165008697Y-62664933D01*
X165008699Y-62664934D01*
X165082933Y-62679700D01*
X166133066Y-62679699D01*
X166207301Y-62664934D01*
X166291484Y-62608684D01*
X166347734Y-62524501D01*
X166362500Y-62450267D01*
X166362499Y-61691208D01*
X166380805Y-61647015D01*
X166699765Y-61328056D01*
X166743959Y-61309750D01*
X167082114Y-61309750D01*
X167082130Y-61309751D01*
X167085955Y-61309751D01*
X167178045Y-61309751D01*
X167178050Y-61309750D01*
X167212563Y-61300501D01*
X167266999Y-61285915D01*
X167296190Y-61269061D01*
X167316123Y-61257552D01*
X167363547Y-61251311D01*
X167401497Y-61280433D01*
X167408668Y-61323874D01*
X167393500Y-61400131D01*
X167393500Y-62450264D01*
X167393501Y-62450268D01*
X167408265Y-62524499D01*
X167408267Y-62524503D01*
X167464515Y-62608684D01*
X167548697Y-62664933D01*
X167548699Y-62664934D01*
X167622933Y-62679700D01*
X168673066Y-62679699D01*
X168747301Y-62664934D01*
X168831484Y-62608684D01*
X168887734Y-62524501D01*
X168902500Y-62450267D01*
X168902499Y-62337131D01*
X168920804Y-62292938D01*
X168964998Y-62274632D01*
X168996247Y-62283004D01*
X169029002Y-62301915D01*
X169083439Y-62316501D01*
X169117950Y-62325749D01*
X169117953Y-62325749D01*
X169117955Y-62325750D01*
X169210045Y-62325750D01*
X169617001Y-62325750D01*
X169661195Y-62344056D01*
X169679501Y-62388250D01*
X169679501Y-62501068D01*
X169694265Y-62575299D01*
X169694267Y-62575303D01*
X169750515Y-62659484D01*
X169834697Y-62715733D01*
X169834699Y-62715734D01*
X169908933Y-62730500D01*
X170959066Y-62730499D01*
X171033301Y-62715734D01*
X171117484Y-62659484D01*
X171173734Y-62575301D01*
X171188500Y-62501067D01*
X171188499Y-61450934D01*
X171175274Y-61384441D01*
X171184607Y-61337526D01*
X171224381Y-61310951D01*
X171236573Y-61309750D01*
X171533241Y-61309750D01*
X171577435Y-61328056D01*
X171947194Y-61697815D01*
X171965500Y-61742009D01*
X171965500Y-62501064D01*
X171965501Y-62501068D01*
X171980265Y-62575299D01*
X171980267Y-62575303D01*
X172036515Y-62659484D01*
X172120697Y-62715733D01*
X172120699Y-62715734D01*
X172194933Y-62730500D01*
X173245066Y-62730499D01*
X173319301Y-62715734D01*
X173403484Y-62659484D01*
X173459734Y-62575301D01*
X173474500Y-62501067D01*
X173474499Y-61450934D01*
X173459734Y-61376699D01*
X173433559Y-61337526D01*
X173403484Y-61292515D01*
X173319302Y-61236266D01*
X173319300Y-61236265D01*
X173245067Y-61221500D01*
X172486009Y-61221500D01*
X172441815Y-61203194D01*
X172242814Y-61004193D01*
X172224508Y-60959999D01*
X172242812Y-60915807D01*
X172362105Y-60796514D01*
X172362110Y-60796511D01*
X172367250Y-60791370D01*
X172367252Y-60791370D01*
X172432370Y-60726252D01*
X172461560Y-60675692D01*
X172461561Y-60675691D01*
X172469988Y-60661094D01*
X172478415Y-60646499D01*
X172497209Y-60576362D01*
X172502250Y-60557550D01*
X172502251Y-60557544D01*
X172502251Y-60526959D01*
X172520557Y-60482765D01*
X172536377Y-60471271D01*
X172539070Y-60469899D01*
X172608698Y-60434422D01*
X172675806Y-60367314D01*
X172720000Y-60349008D01*
X172764194Y-60367314D01*
X172831302Y-60434422D01*
X172946875Y-60493310D01*
X172946877Y-60493310D01*
X172946880Y-60493312D01*
X172946883Y-60493312D01*
X172946885Y-60493313D01*
X173042760Y-60508498D01*
X173042766Y-60508498D01*
X173042774Y-60508500D01*
X173042776Y-60508500D01*
X173532224Y-60508500D01*
X173532226Y-60508500D01*
X173628120Y-60493312D01*
X173743698Y-60434422D01*
X173763806Y-60414314D01*
X173808000Y-60396008D01*
X173852194Y-60414314D01*
X173870500Y-60458508D01*
X173870500Y-62835807D01*
X173852194Y-62880001D01*
X173808000Y-62898307D01*
X164433994Y-62898307D01*
X164389800Y-62880001D01*
X164371494Y-62835807D01*
X164371494Y-51461800D01*
X164389800Y-51417606D01*
X164433994Y-51399300D01*
X169060391Y-51399300D01*
X169104585Y-51417606D01*
G37*
%TD.AperFunction*%
%TA.AperFunction,Conductor*%
G36*
X170335373Y-60313950D02*
G01*
X170362687Y-60341264D01*
X170364140Y-60344114D01*
X170367482Y-60350674D01*
X170460326Y-60443518D01*
X170520624Y-60474241D01*
X170527154Y-60481887D01*
X170536444Y-60485735D01*
X170542096Y-60499381D01*
X170551691Y-60510615D01*
X170554750Y-60529929D01*
X170554750Y-60618613D01*
X170554749Y-60618631D01*
X170554749Y-60714550D01*
X170578584Y-60803496D01*
X170578586Y-60803502D01*
X170590998Y-60825001D01*
X170624627Y-60883248D01*
X170624634Y-60883257D01*
X170693303Y-60951926D01*
X170693317Y-60951938D01*
X170856185Y-61114806D01*
X170874491Y-61159000D01*
X170856185Y-61203194D01*
X170811991Y-61221500D01*
X170200010Y-61221500D01*
X170155816Y-61203194D01*
X170077556Y-61124934D01*
X170059250Y-61080740D01*
X170059250Y-60529929D01*
X170077556Y-60485735D01*
X170093376Y-60474241D01*
X170101898Y-60469899D01*
X170153674Y-60443518D01*
X170246518Y-60350674D01*
X170251312Y-60341265D01*
X170287685Y-60310198D01*
X170335373Y-60313950D01*
G37*
%TD.AperFunction*%
%TA.AperFunction,Conductor*%
G36*
X167779944Y-60895064D02*
G01*
X167798250Y-60939258D01*
X167798250Y-61108200D01*
X167779944Y-61152394D01*
X167735751Y-61170700D01*
X167622935Y-61170700D01*
X167622931Y-61170701D01*
X167566591Y-61181907D01*
X167519675Y-61172574D01*
X167493100Y-61132800D01*
X167502433Y-61085884D01*
X167510200Y-61076419D01*
X167691556Y-60895064D01*
X167735750Y-60876758D01*
X167779944Y-60895064D01*
G37*
%TD.AperFunction*%
%TA.AperFunction,Conductor*%
G36*
X171553452Y-60268654D02*
G01*
X171580767Y-60295967D01*
X171604578Y-60342698D01*
X171671435Y-60409555D01*
X171689741Y-60453749D01*
X171671435Y-60497943D01*
X171577435Y-60591944D01*
X171533241Y-60610250D01*
X171366759Y-60610250D01*
X171322565Y-60591944D01*
X171293879Y-60563258D01*
X171275573Y-60519064D01*
X171293879Y-60474870D01*
X171309700Y-60463376D01*
X171348672Y-60443519D01*
X171348671Y-60443519D01*
X171348674Y-60443518D01*
X171441518Y-60350674D01*
X171469391Y-60295968D01*
X171505764Y-60264901D01*
X171553452Y-60268654D01*
G37*
%TD.AperFunction*%
%TA.AperFunction,Conductor*%
G36*
X171335944Y-56756056D02*
G01*
X171354250Y-56800250D01*
X171354250Y-58974049D01*
X171378084Y-59062995D01*
X171378086Y-59063000D01*
X171415838Y-59128391D01*
X171424130Y-59142752D01*
X171489248Y-59207870D01*
X171569002Y-59253915D01*
X171623439Y-59268501D01*
X171657950Y-59277749D01*
X171657953Y-59277749D01*
X171657955Y-59277750D01*
X171781052Y-59277750D01*
X171825246Y-59296056D01*
X171843552Y-59340250D01*
X171825246Y-59384444D01*
X171809426Y-59395938D01*
X171696302Y-59453577D01*
X171604576Y-59545303D01*
X171580766Y-59592032D01*
X171544392Y-59623098D01*
X171496704Y-59619344D01*
X171469391Y-59592031D01*
X171460227Y-59574046D01*
X171441518Y-59537326D01*
X171348674Y-59444482D01*
X171348673Y-59444481D01*
X171231688Y-59384874D01*
X171231678Y-59384871D01*
X171134636Y-59369501D01*
X171134624Y-59369500D01*
X171134623Y-59369500D01*
X171134620Y-59369500D01*
X170674381Y-59369500D01*
X170674376Y-59369501D01*
X170577314Y-59384873D01*
X170460326Y-59444481D01*
X170367480Y-59537327D01*
X170362685Y-59546738D01*
X170326309Y-59577802D01*
X170278621Y-59574046D01*
X170251311Y-59546733D01*
X170246518Y-59537326D01*
X170153674Y-59444482D01*
X170153673Y-59444481D01*
X170036688Y-59384874D01*
X170036678Y-59384871D01*
X169939636Y-59369501D01*
X169939624Y-59369500D01*
X169939623Y-59369500D01*
X169939621Y-59369500D01*
X169525179Y-59369500D01*
X169480985Y-59351194D01*
X169462679Y-59307000D01*
X169471054Y-59275748D01*
X169474712Y-59269413D01*
X169512500Y-59128385D01*
X169512500Y-58982383D01*
X169493772Y-58912490D01*
X169474713Y-58841358D01*
X169474712Y-58841355D01*
X169401711Y-58714913D01*
X169401709Y-58714911D01*
X169401706Y-58714907D01*
X169298476Y-58611677D01*
X169298472Y-58611674D01*
X169298471Y-58611673D01*
X169183421Y-58545249D01*
X169172028Y-58538671D01*
X169172025Y-58538670D01*
X169031007Y-58500885D01*
X169031002Y-58500884D01*
X169031001Y-58500884D01*
X168884999Y-58500884D01*
X168884998Y-58500884D01*
X168884992Y-58500885D01*
X168756642Y-58535276D01*
X168709216Y-58529032D01*
X168684778Y-58503280D01*
X168638422Y-58412302D01*
X168546697Y-58320577D01*
X168431124Y-58261689D01*
X168431114Y-58261686D01*
X168335239Y-58246501D01*
X168335227Y-58246500D01*
X168335226Y-58246500D01*
X167960774Y-58246500D01*
X167960772Y-58246500D01*
X167960760Y-58246501D01*
X167864885Y-58261686D01*
X167864875Y-58261689D01*
X167749302Y-58320577D01*
X167657577Y-58412302D01*
X167598689Y-58527875D01*
X167598686Y-58527885D01*
X167583501Y-58623760D01*
X167583500Y-58623776D01*
X167583500Y-58912490D01*
X167565194Y-58956684D01*
X167322248Y-59199629D01*
X167322248Y-59199630D01*
X167300425Y-59221453D01*
X167282368Y-59239510D01*
X167238173Y-59257815D01*
X167193979Y-59239509D01*
X167175674Y-59195314D01*
X167181661Y-59170381D01*
X167181606Y-59170364D01*
X167181833Y-59169663D01*
X167182488Y-59166938D01*
X167183127Y-59165684D01*
X167189035Y-59128383D01*
X167198498Y-59068636D01*
X167198498Y-59068635D01*
X167198500Y-59068623D01*
X167198499Y-58608378D01*
X167183127Y-58511316D01*
X167123518Y-58394326D01*
X167030674Y-58301482D01*
X167030673Y-58301481D01*
X166913688Y-58241874D01*
X166913678Y-58241871D01*
X166816636Y-58226501D01*
X166816624Y-58226500D01*
X166816623Y-58226500D01*
X166816620Y-58226500D01*
X166431381Y-58226500D01*
X166431376Y-58226501D01*
X166334314Y-58241873D01*
X166217326Y-58301481D01*
X166124481Y-58394326D01*
X166064874Y-58511311D01*
X166064871Y-58511321D01*
X166049501Y-58608363D01*
X166049500Y-58608379D01*
X166049500Y-58892490D01*
X166031194Y-58936684D01*
X165764730Y-59203147D01*
X165720536Y-59221453D01*
X165676342Y-59203147D01*
X165658036Y-59158953D01*
X165658806Y-59149174D01*
X165659824Y-59142752D01*
X165664500Y-59113226D01*
X165664500Y-58623774D01*
X165650348Y-58534422D01*
X165661515Y-58487909D01*
X165667879Y-58480459D01*
X166816033Y-57332306D01*
X166860227Y-57314000D01*
X168639171Y-57314000D01*
X168639176Y-57313999D01*
X168665960Y-57306821D01*
X168729332Y-57289841D01*
X168810168Y-57243171D01*
X169102032Y-56951305D01*
X169146226Y-56933000D01*
X169842173Y-56933000D01*
X169886367Y-56951306D01*
X169964344Y-57029283D01*
X169982650Y-57073477D01*
X169982650Y-57095000D01*
X169964344Y-57139194D01*
X169920151Y-57157500D01*
X169807335Y-57157500D01*
X169807331Y-57157501D01*
X169733100Y-57172265D01*
X169733096Y-57172267D01*
X169648915Y-57228515D01*
X169592666Y-57312697D01*
X169592665Y-57312699D01*
X169577900Y-57386932D01*
X169577900Y-58437064D01*
X169577901Y-58437068D01*
X169592665Y-58511299D01*
X169592667Y-58511303D01*
X169648915Y-58595484D01*
X169733097Y-58651733D01*
X169733099Y-58651734D01*
X169807333Y-58666500D01*
X170857466Y-58666499D01*
X170931701Y-58651734D01*
X171015884Y-58595484D01*
X171072134Y-58511301D01*
X171086900Y-58437067D01*
X171086899Y-57386934D01*
X171072134Y-57312699D01*
X171049450Y-57278750D01*
X171015884Y-57228515D01*
X170931702Y-57172266D01*
X170931700Y-57172265D01*
X170857467Y-57157500D01*
X170744650Y-57157500D01*
X170700456Y-57139194D01*
X170682150Y-57095000D01*
X170682150Y-57066759D01*
X170700456Y-57022565D01*
X170966965Y-56756056D01*
X171011159Y-56737750D01*
X171291750Y-56737750D01*
X171335944Y-56756056D01*
G37*
%TD.AperFunction*%
%TA.AperFunction,Conductor*%
G36*
X167189220Y-59305359D02*
G01*
X167207526Y-59349553D01*
X167205396Y-59365730D01*
X167187249Y-59433449D01*
X167187249Y-59502169D01*
X167178794Y-59522579D01*
X167171646Y-59543484D01*
X167169750Y-59544413D01*
X167168943Y-59546363D01*
X167148532Y-59554817D01*
X167128696Y-59564544D01*
X167126789Y-59563823D01*
X167124749Y-59564669D01*
X167083434Y-59549066D01*
X167081955Y-59547763D01*
X167030674Y-59496482D01*
X167014243Y-59488109D01*
X167008325Y-59482896D01*
X167001001Y-59467959D01*
X166990198Y-59455310D01*
X166990834Y-59447225D01*
X166987265Y-59439946D01*
X166992647Y-59424207D01*
X166993953Y-59407623D01*
X167000586Y-59400989D01*
X167002743Y-59394684D01*
X167010886Y-59390691D01*
X167021266Y-59380311D01*
X167030674Y-59375518D01*
X167100833Y-59305358D01*
X167145026Y-59287053D01*
X167189220Y-59305359D01*
G37*
%TD.AperFunction*%
%TA.AperFunction,Conductor*%
G36*
X173862126Y-56576064D02*
G01*
X173870500Y-56607315D01*
X173870500Y-59429492D01*
X173852194Y-59473686D01*
X173808000Y-59491992D01*
X173763806Y-59473686D01*
X173743697Y-59453577D01*
X173646492Y-59404049D01*
X173619185Y-59376749D01*
X173616199Y-59370892D01*
X173613415Y-59360501D01*
X173592744Y-59324698D01*
X173567370Y-59280748D01*
X173502252Y-59215630D01*
X173500074Y-59213452D01*
X173500063Y-59213442D01*
X173059814Y-58773193D01*
X173041508Y-58728999D01*
X173059814Y-58684805D01*
X173104008Y-58666499D01*
X173295865Y-58666499D01*
X173295866Y-58666499D01*
X173370101Y-58651734D01*
X173454284Y-58595484D01*
X173510534Y-58511301D01*
X173525300Y-58437067D01*
X173525299Y-57656109D01*
X173533672Y-57624861D01*
X173539874Y-57614116D01*
X173553915Y-57589798D01*
X173577750Y-57500845D01*
X173577750Y-56848320D01*
X173596056Y-56804126D01*
X173599932Y-56800250D01*
X173671711Y-56728471D01*
X173744712Y-56602029D01*
X173747630Y-56591138D01*
X173776749Y-56553189D01*
X173824175Y-56546944D01*
X173862126Y-56576064D01*
G37*
%TD.AperFunction*%
%TA.AperFunction,Conductor*%
G36*
X172668139Y-56449226D02*
G01*
X172674383Y-56464300D01*
X172711286Y-56602025D01*
X172711287Y-56602028D01*
X172784290Y-56728472D01*
X172859944Y-56804126D01*
X172878250Y-56848320D01*
X172878250Y-57095000D01*
X172859944Y-57139194D01*
X172815750Y-57157500D01*
X172245735Y-57157500D01*
X172245731Y-57157501D01*
X172171500Y-57172265D01*
X172171496Y-57172267D01*
X172150972Y-57185981D01*
X172104056Y-57195312D01*
X172064282Y-57168735D01*
X172053750Y-57134013D01*
X172053750Y-56800250D01*
X172072056Y-56756056D01*
X172116250Y-56737750D01*
X172258044Y-56737750D01*
X172258045Y-56737750D01*
X172346998Y-56713915D01*
X172426752Y-56667870D01*
X172491870Y-56602752D01*
X172537915Y-56522998D01*
X172553643Y-56464299D01*
X172582763Y-56426350D01*
X172630189Y-56420106D01*
X172668139Y-56449226D01*
G37*
%TD.AperFunction*%
%TA.AperFunction,Conductor*%
G36*
X167856376Y-56057138D02*
G01*
X167858316Y-56058127D01*
X167858319Y-56058127D01*
X167858321Y-56058128D01*
X167955363Y-56073498D01*
X167955365Y-56073498D01*
X167955377Y-56073500D01*
X168278993Y-56073499D01*
X168302907Y-56078255D01*
X168304497Y-56078912D01*
X168304501Y-56078915D01*
X168352607Y-56091805D01*
X168393449Y-56102749D01*
X168393452Y-56102749D01*
X168393454Y-56102750D01*
X168393455Y-56102750D01*
X168904604Y-56102750D01*
X168948798Y-56121056D01*
X168967104Y-56165250D01*
X168948798Y-56209444D01*
X168920781Y-56225620D01*
X168836670Y-56248158D01*
X168836668Y-56248159D01*
X168755831Y-56294829D01*
X168463967Y-56586694D01*
X168419773Y-56605000D01*
X167560508Y-56605000D01*
X167516314Y-56586694D01*
X167498008Y-56542500D01*
X167516314Y-56498306D01*
X167565394Y-56449226D01*
X167625355Y-56389265D01*
X167625360Y-56389261D01*
X167630500Y-56384120D01*
X167630502Y-56384120D01*
X167695620Y-56319002D01*
X167724810Y-56268442D01*
X167724811Y-56268441D01*
X167733238Y-56253844D01*
X167741665Y-56239249D01*
X167765501Y-56150295D01*
X167765501Y-56112826D01*
X167783807Y-56068632D01*
X167828001Y-56050326D01*
X167856376Y-56057138D01*
G37*
%TD.AperFunction*%
%TA.AperFunction,Conductor*%
G36*
X172633539Y-55526121D02*
G01*
X172643564Y-55525333D01*
X172654797Y-55534927D01*
X172668444Y-55540580D01*
X172679938Y-55556400D01*
X172728481Y-55651673D01*
X172821326Y-55744518D01*
X172937731Y-55803829D01*
X172968798Y-55840203D01*
X172965045Y-55887891D01*
X172940608Y-55913643D01*
X172887529Y-55944288D01*
X172887523Y-55944293D01*
X172784293Y-56047523D01*
X172784290Y-56047527D01*
X172711287Y-56173971D01*
X172711286Y-56173974D01*
X172684620Y-56273496D01*
X172655500Y-56311447D01*
X172608074Y-56317690D01*
X172570123Y-56288570D01*
X172561750Y-56257320D01*
X172561750Y-55584774D01*
X172565597Y-55575484D01*
X172564809Y-55565460D01*
X172574403Y-55554226D01*
X172580056Y-55540580D01*
X172589345Y-55536732D01*
X172595876Y-55529086D01*
X172610602Y-55527927D01*
X172624250Y-55522274D01*
X172633539Y-55526121D01*
G37*
%TD.AperFunction*%
%TA.AperFunction,Conductor*%
G36*
X173836374Y-55575699D02*
G01*
X173867441Y-55612073D01*
X173870500Y-55631387D01*
X173870500Y-56168684D01*
X173852194Y-56212878D01*
X173808000Y-56231184D01*
X173763806Y-56212878D01*
X173747630Y-56184860D01*
X173744713Y-56173974D01*
X173744712Y-56173971D01*
X173736458Y-56159674D01*
X173671711Y-56047529D01*
X173671709Y-56047527D01*
X173671706Y-56047523D01*
X173568476Y-55944293D01*
X173568472Y-55944290D01*
X173568471Y-55944289D01*
X173515390Y-55913642D01*
X173486271Y-55875693D01*
X173492514Y-55828267D01*
X173518264Y-55803831D01*
X173634674Y-55744518D01*
X173727518Y-55651674D01*
X173752312Y-55603013D01*
X173788686Y-55571946D01*
X173836374Y-55575699D01*
G37*
%TD.AperFunction*%
%TA.AperFunction,Conductor*%
G36*
X171831000Y-55589469D02*
G01*
X171860120Y-55627419D01*
X171862250Y-55643595D01*
X171862250Y-55975750D01*
X171843944Y-56019944D01*
X171799750Y-56038250D01*
X171702007Y-56038250D01*
X171657813Y-56019944D01*
X171639507Y-55975750D01*
X171640277Y-55965971D01*
X171643499Y-55945631D01*
X171643499Y-55945629D01*
X171643500Y-55945623D01*
X171643499Y-55668714D01*
X171649743Y-55653639D01*
X171651873Y-55637465D01*
X171658572Y-55632324D01*
X171661805Y-55624521D01*
X171689823Y-55608345D01*
X171783574Y-55583225D01*
X171831000Y-55589469D01*
G37*
%TD.AperFunction*%
%TA.AperFunction,Conductor*%
G36*
X173836374Y-54380699D02*
G01*
X173867441Y-54417073D01*
X173870500Y-54436387D01*
X173870500Y-54783613D01*
X173852194Y-54827807D01*
X173808000Y-54846113D01*
X173763806Y-54827807D01*
X173752312Y-54811987D01*
X173727518Y-54763326D01*
X173634674Y-54670482D01*
X173625265Y-54665687D01*
X173594198Y-54629315D01*
X173597950Y-54581627D01*
X173625264Y-54554312D01*
X173634674Y-54549518D01*
X173727518Y-54456674D01*
X173752312Y-54408013D01*
X173788686Y-54376946D01*
X173836374Y-54380699D01*
G37*
%TD.AperFunction*%
%TA.AperFunction,Conductor*%
G36*
X168292552Y-53220185D02*
G01*
X168305497Y-53230118D01*
X168761377Y-53685998D01*
X168779683Y-53730192D01*
X168779683Y-53821383D01*
X168761377Y-53865577D01*
X168717183Y-53883883D01*
X168672989Y-53865577D01*
X168661495Y-53849757D01*
X168647518Y-53822326D01*
X168554673Y-53729481D01*
X168437688Y-53669874D01*
X168437678Y-53669871D01*
X168340636Y-53654501D01*
X168340624Y-53654500D01*
X168340623Y-53654500D01*
X168340621Y-53654500D01*
X167971008Y-53654500D01*
X167926814Y-53636194D01*
X167908508Y-53592000D01*
X167926812Y-53547808D01*
X168173870Y-53300752D01*
X168207176Y-53243062D01*
X168245126Y-53213942D01*
X168292552Y-53220185D01*
G37*
%TD.AperFunction*%
%TA.AperFunction,Conductor*%
G36*
X169596164Y-52896104D02*
G01*
X169602443Y-52894856D01*
X169617601Y-52904984D01*
X169634444Y-52911961D01*
X169642217Y-52921432D01*
X169699715Y-53007484D01*
X169783897Y-53063733D01*
X169783899Y-53063734D01*
X169858133Y-53078500D01*
X169970949Y-53078499D01*
X170015144Y-53096804D01*
X170033450Y-53140998D01*
X170033450Y-53474040D01*
X170015144Y-53518234D01*
X169900128Y-53633250D01*
X169820983Y-53712394D01*
X169776789Y-53730700D01*
X169606382Y-53730700D01*
X169606369Y-53730701D01*
X169600019Y-53731707D01*
X169553507Y-53720534D01*
X169528518Y-53679744D01*
X169527750Y-53669975D01*
X169527750Y-52956155D01*
X169530199Y-52950240D01*
X169528951Y-52943962D01*
X169539079Y-52928803D01*
X169546056Y-52911961D01*
X169551970Y-52909511D01*
X169555527Y-52904188D01*
X169573407Y-52900631D01*
X169590250Y-52893655D01*
X169596164Y-52896104D01*
G37*
%TD.AperFunction*%
%TA.AperFunction,Conductor*%
G36*
X173852194Y-51417606D02*
G01*
X173870500Y-51461800D01*
X173870500Y-53588613D01*
X173852194Y-53632807D01*
X173808000Y-53651113D01*
X173763806Y-53632807D01*
X173752312Y-53616987D01*
X173727518Y-53568326D01*
X173634672Y-53475480D01*
X173611874Y-53463863D01*
X173580808Y-53427488D01*
X173577750Y-53408176D01*
X173577750Y-52735156D01*
X173577749Y-52735150D01*
X173561696Y-52675241D01*
X173553915Y-52646202D01*
X173534597Y-52612741D01*
X173533672Y-52611138D01*
X173525299Y-52579889D01*
X173525299Y-51798935D01*
X173525299Y-51798933D01*
X173510534Y-51724699D01*
X173502345Y-51712443D01*
X173454284Y-51640515D01*
X173370102Y-51584266D01*
X173370100Y-51584265D01*
X173295867Y-51569500D01*
X172536809Y-51569500D01*
X172492615Y-51551194D01*
X172447415Y-51505994D01*
X172429109Y-51461800D01*
X172447415Y-51417606D01*
X172491609Y-51399300D01*
X173808000Y-51399300D01*
X173852194Y-51417606D01*
G37*
%TD.AperFunction*%
%TA.AperFunction,Conductor*%
G36*
X171843235Y-51891056D02*
G01*
X171997994Y-52045815D01*
X172016300Y-52090009D01*
X172016300Y-52849064D01*
X172016301Y-52849068D01*
X172031065Y-52923299D01*
X172031067Y-52923303D01*
X172087315Y-53007484D01*
X172171497Y-53063733D01*
X172171499Y-53063734D01*
X172245733Y-53078500D01*
X172815750Y-53078499D01*
X172859944Y-53096805D01*
X172878250Y-53140999D01*
X172878250Y-53408177D01*
X172859944Y-53452371D01*
X172853794Y-53457764D01*
X172849236Y-53461260D01*
X172821326Y-53475482D01*
X172790430Y-53506377D01*
X172787172Y-53508877D01*
X172767727Y-53514085D01*
X172749126Y-53521790D01*
X172742316Y-53520893D01*
X172740966Y-53521255D01*
X172739755Y-53520555D01*
X172732952Y-53519660D01*
X172653051Y-53498251D01*
X172653046Y-53498250D01*
X172653045Y-53498250D01*
X172653044Y-53498250D01*
X170795450Y-53498250D01*
X170751256Y-53479944D01*
X170732950Y-53435750D01*
X170732950Y-53140999D01*
X170751256Y-53096805D01*
X170795450Y-53078499D01*
X170908265Y-53078499D01*
X170908266Y-53078499D01*
X170982501Y-53063734D01*
X171066684Y-53007484D01*
X171122934Y-52923301D01*
X171137700Y-52849067D01*
X171137699Y-51935249D01*
X171156005Y-51891056D01*
X171200199Y-51872750D01*
X171799041Y-51872750D01*
X171843235Y-51891056D01*
G37*
%TD.AperFunction*%
%TD*%
M02*
