%TF.GenerationSoftware,KiCad,Pcbnew,9.0.0*%
%TF.CreationDate,2025-04-04T03:53:13-04:00*%
%TF.ProjectId,Project Resonator Crossover Circuit PCB,50726f6a-6563-4742-9052-65736f6e6174,rev?*%
%TF.SameCoordinates,Original*%
%TF.FileFunction,Drillmap*%
%TF.FilePolarity,Positive*%
%FSLAX45Y45*%
G04 Gerber Fmt 4.5, Leading zero omitted, Abs format (unit mm)*
G04 Created by KiCad (PCBNEW 9.0.0) date 2025-04-04 03:53:13*
%MOMM*%
%LPD*%
G01*
G04 APERTURE LIST*
%ADD10C,0.050000*%
%ADD11C,0.200000*%
%ADD12C,0.100000*%
G04 APERTURE END LIST*
D10*
X16387099Y-5089880D02*
X17437100Y-5089880D01*
X17437100Y-6339881D01*
X16387099Y-6339881D01*
X16387099Y-5089880D01*
D11*
D12*
X16880800Y-5890538D02*
X16910800Y-5920538D01*
X16910800Y-5890538D02*
X16880800Y-5920538D01*
X16897943Y-5473812D02*
X16927943Y-5503812D01*
X16927943Y-5473812D02*
X16897943Y-5503812D01*
X17146200Y-5490514D02*
X17176200Y-5520514D01*
X17176200Y-5490514D02*
X17146200Y-5520514D01*
X17307800Y-5623800D02*
X17337800Y-5653800D01*
X17337800Y-5623800D02*
X17307800Y-5653800D01*
D11*
X16645376Y-6653864D02*
X16645376Y-6453864D01*
X16645376Y-6453864D02*
X16692995Y-6453864D01*
X16692995Y-6453864D02*
X16721567Y-6463388D01*
X16721567Y-6463388D02*
X16740614Y-6482436D01*
X16740614Y-6482436D02*
X16750138Y-6501483D01*
X16750138Y-6501483D02*
X16759662Y-6539579D01*
X16759662Y-6539579D02*
X16759662Y-6568150D01*
X16759662Y-6568150D02*
X16750138Y-6606245D01*
X16750138Y-6606245D02*
X16740614Y-6625293D01*
X16740614Y-6625293D02*
X16721567Y-6644341D01*
X16721567Y-6644341D02*
X16692995Y-6653864D01*
X16692995Y-6653864D02*
X16645376Y-6653864D01*
X16845376Y-6653864D02*
X16845376Y-6520531D01*
X16845376Y-6558626D02*
X16854900Y-6539579D01*
X16854900Y-6539579D02*
X16864424Y-6530055D01*
X16864424Y-6530055D02*
X16883471Y-6520531D01*
X16883471Y-6520531D02*
X16902519Y-6520531D01*
X16969186Y-6653864D02*
X16969186Y-6520531D01*
X16969186Y-6453864D02*
X16959662Y-6463388D01*
X16959662Y-6463388D02*
X16969186Y-6472912D01*
X16969186Y-6472912D02*
X16978710Y-6463388D01*
X16978710Y-6463388D02*
X16969186Y-6453864D01*
X16969186Y-6453864D02*
X16969186Y-6472912D01*
X17092995Y-6653864D02*
X17073948Y-6644341D01*
X17073948Y-6644341D02*
X17064424Y-6625293D01*
X17064424Y-6625293D02*
X17064424Y-6453864D01*
X17197757Y-6653864D02*
X17178710Y-6644341D01*
X17178710Y-6644341D02*
X17169186Y-6625293D01*
X17169186Y-6625293D02*
X17169186Y-6453864D01*
X17426329Y-6653864D02*
X17426329Y-6453864D01*
X17426329Y-6453864D02*
X17492995Y-6596722D01*
X17492995Y-6596722D02*
X17559662Y-6453864D01*
X17559662Y-6453864D02*
X17559662Y-6653864D01*
X17740614Y-6653864D02*
X17740614Y-6549103D01*
X17740614Y-6549103D02*
X17731091Y-6530055D01*
X17731091Y-6530055D02*
X17712043Y-6520531D01*
X17712043Y-6520531D02*
X17673948Y-6520531D01*
X17673948Y-6520531D02*
X17654900Y-6530055D01*
X17740614Y-6644341D02*
X17721567Y-6653864D01*
X17721567Y-6653864D02*
X17673948Y-6653864D01*
X17673948Y-6653864D02*
X17654900Y-6644341D01*
X17654900Y-6644341D02*
X17645376Y-6625293D01*
X17645376Y-6625293D02*
X17645376Y-6606245D01*
X17645376Y-6606245D02*
X17654900Y-6587198D01*
X17654900Y-6587198D02*
X17673948Y-6577674D01*
X17673948Y-6577674D02*
X17721567Y-6577674D01*
X17721567Y-6577674D02*
X17740614Y-6568150D01*
X17835852Y-6520531D02*
X17835852Y-6720531D01*
X17835852Y-6530055D02*
X17854900Y-6520531D01*
X17854900Y-6520531D02*
X17892995Y-6520531D01*
X17892995Y-6520531D02*
X17912043Y-6530055D01*
X17912043Y-6530055D02*
X17921567Y-6539579D01*
X17921567Y-6539579D02*
X17931091Y-6558626D01*
X17931091Y-6558626D02*
X17931091Y-6615769D01*
X17931091Y-6615769D02*
X17921567Y-6634817D01*
X17921567Y-6634817D02*
X17912043Y-6644341D01*
X17912043Y-6644341D02*
X17892995Y-6653864D01*
X17892995Y-6653864D02*
X17854900Y-6653864D01*
X17854900Y-6653864D02*
X17835852Y-6644341D01*
X18016805Y-6634817D02*
X18026329Y-6644341D01*
X18026329Y-6644341D02*
X18016805Y-6653864D01*
X18016805Y-6653864D02*
X18007281Y-6644341D01*
X18007281Y-6644341D02*
X18016805Y-6634817D01*
X18016805Y-6634817D02*
X18016805Y-6653864D01*
X18016805Y-6530055D02*
X18026329Y-6539579D01*
X18026329Y-6539579D02*
X18016805Y-6549103D01*
X18016805Y-6549103D02*
X18007281Y-6539579D01*
X18007281Y-6539579D02*
X18016805Y-6530055D01*
X18016805Y-6530055D02*
X18016805Y-6549103D01*
D12*
X16354599Y-6967381D02*
X16384599Y-6997381D01*
X16384599Y-6967381D02*
X16354599Y-6997381D01*
D11*
X16683471Y-6873864D02*
X16702519Y-6873864D01*
X16702519Y-6873864D02*
X16721567Y-6883388D01*
X16721567Y-6883388D02*
X16731090Y-6892912D01*
X16731090Y-6892912D02*
X16740614Y-6911960D01*
X16740614Y-6911960D02*
X16750138Y-6950055D01*
X16750138Y-6950055D02*
X16750138Y-6997674D01*
X16750138Y-6997674D02*
X16740614Y-7035769D01*
X16740614Y-7035769D02*
X16731090Y-7054817D01*
X16731090Y-7054817D02*
X16721567Y-7064341D01*
X16721567Y-7064341D02*
X16702519Y-7073864D01*
X16702519Y-7073864D02*
X16683471Y-7073864D01*
X16683471Y-7073864D02*
X16664424Y-7064341D01*
X16664424Y-7064341D02*
X16654900Y-7054817D01*
X16654900Y-7054817D02*
X16645376Y-7035769D01*
X16645376Y-7035769D02*
X16635852Y-6997674D01*
X16635852Y-6997674D02*
X16635852Y-6950055D01*
X16635852Y-6950055D02*
X16645376Y-6911960D01*
X16645376Y-6911960D02*
X16654900Y-6892912D01*
X16654900Y-6892912D02*
X16664424Y-6883388D01*
X16664424Y-6883388D02*
X16683471Y-6873864D01*
X16835852Y-7054817D02*
X16845376Y-7064341D01*
X16845376Y-7064341D02*
X16835852Y-7073864D01*
X16835852Y-7073864D02*
X16826329Y-7064341D01*
X16826329Y-7064341D02*
X16835852Y-7054817D01*
X16835852Y-7054817D02*
X16835852Y-7073864D01*
X16912043Y-6873864D02*
X17035852Y-6873864D01*
X17035852Y-6873864D02*
X16969186Y-6950055D01*
X16969186Y-6950055D02*
X16997757Y-6950055D01*
X16997757Y-6950055D02*
X17016805Y-6959579D01*
X17016805Y-6959579D02*
X17026329Y-6969103D01*
X17026329Y-6969103D02*
X17035852Y-6988150D01*
X17035852Y-6988150D02*
X17035852Y-7035769D01*
X17035852Y-7035769D02*
X17026329Y-7054817D01*
X17026329Y-7054817D02*
X17016805Y-7064341D01*
X17016805Y-7064341D02*
X16997757Y-7073864D01*
X16997757Y-7073864D02*
X16940614Y-7073864D01*
X16940614Y-7073864D02*
X16921567Y-7064341D01*
X16921567Y-7064341D02*
X16912043Y-7054817D01*
X17159662Y-6873864D02*
X17178710Y-6873864D01*
X17178710Y-6873864D02*
X17197757Y-6883388D01*
X17197757Y-6883388D02*
X17207281Y-6892912D01*
X17207281Y-6892912D02*
X17216805Y-6911960D01*
X17216805Y-6911960D02*
X17226329Y-6950055D01*
X17226329Y-6950055D02*
X17226329Y-6997674D01*
X17226329Y-6997674D02*
X17216805Y-7035769D01*
X17216805Y-7035769D02*
X17207281Y-7054817D01*
X17207281Y-7054817D02*
X17197757Y-7064341D01*
X17197757Y-7064341D02*
X17178710Y-7073864D01*
X17178710Y-7073864D02*
X17159662Y-7073864D01*
X17159662Y-7073864D02*
X17140614Y-7064341D01*
X17140614Y-7064341D02*
X17131091Y-7054817D01*
X17131091Y-7054817D02*
X17121567Y-7035769D01*
X17121567Y-7035769D02*
X17112043Y-6997674D01*
X17112043Y-6997674D02*
X17112043Y-6950055D01*
X17112043Y-6950055D02*
X17121567Y-6911960D01*
X17121567Y-6911960D02*
X17131091Y-6892912D01*
X17131091Y-6892912D02*
X17140614Y-6883388D01*
X17140614Y-6883388D02*
X17159662Y-6873864D01*
X17350138Y-6873864D02*
X17369186Y-6873864D01*
X17369186Y-6873864D02*
X17388233Y-6883388D01*
X17388233Y-6883388D02*
X17397757Y-6892912D01*
X17397757Y-6892912D02*
X17407281Y-6911960D01*
X17407281Y-6911960D02*
X17416805Y-6950055D01*
X17416805Y-6950055D02*
X17416805Y-6997674D01*
X17416805Y-6997674D02*
X17407281Y-7035769D01*
X17407281Y-7035769D02*
X17397757Y-7054817D01*
X17397757Y-7054817D02*
X17388233Y-7064341D01*
X17388233Y-7064341D02*
X17369186Y-7073864D01*
X17369186Y-7073864D02*
X17350138Y-7073864D01*
X17350138Y-7073864D02*
X17331091Y-7064341D01*
X17331091Y-7064341D02*
X17321567Y-7054817D01*
X17321567Y-7054817D02*
X17312043Y-7035769D01*
X17312043Y-7035769D02*
X17302519Y-6997674D01*
X17302519Y-6997674D02*
X17302519Y-6950055D01*
X17302519Y-6950055D02*
X17312043Y-6911960D01*
X17312043Y-6911960D02*
X17321567Y-6892912D01*
X17321567Y-6892912D02*
X17331091Y-6883388D01*
X17331091Y-6883388D02*
X17350138Y-6873864D01*
X17502519Y-7073864D02*
X17502519Y-6940531D01*
X17502519Y-6959579D02*
X17512043Y-6950055D01*
X17512043Y-6950055D02*
X17531091Y-6940531D01*
X17531091Y-6940531D02*
X17559662Y-6940531D01*
X17559662Y-6940531D02*
X17578710Y-6950055D01*
X17578710Y-6950055D02*
X17588233Y-6969103D01*
X17588233Y-6969103D02*
X17588233Y-7073864D01*
X17588233Y-6969103D02*
X17597757Y-6950055D01*
X17597757Y-6950055D02*
X17616805Y-6940531D01*
X17616805Y-6940531D02*
X17645376Y-6940531D01*
X17645376Y-6940531D02*
X17664424Y-6950055D01*
X17664424Y-6950055D02*
X17673948Y-6969103D01*
X17673948Y-6969103D02*
X17673948Y-7073864D01*
X17769186Y-7073864D02*
X17769186Y-6940531D01*
X17769186Y-6959579D02*
X17778710Y-6950055D01*
X17778710Y-6950055D02*
X17797757Y-6940531D01*
X17797757Y-6940531D02*
X17826329Y-6940531D01*
X17826329Y-6940531D02*
X17845376Y-6950055D01*
X17845376Y-6950055D02*
X17854900Y-6969103D01*
X17854900Y-6969103D02*
X17854900Y-7073864D01*
X17854900Y-6969103D02*
X17864424Y-6950055D01*
X17864424Y-6950055D02*
X17883472Y-6940531D01*
X17883472Y-6940531D02*
X17912043Y-6940531D01*
X17912043Y-6940531D02*
X17931091Y-6950055D01*
X17931091Y-6950055D02*
X17940614Y-6969103D01*
X17940614Y-6969103D02*
X17940614Y-7073864D01*
X18331091Y-6864341D02*
X18159662Y-7121483D01*
X18588234Y-6873864D02*
X18607281Y-6873864D01*
X18607281Y-6873864D02*
X18626329Y-6883388D01*
X18626329Y-6883388D02*
X18635853Y-6892912D01*
X18635853Y-6892912D02*
X18645376Y-6911960D01*
X18645376Y-6911960D02*
X18654900Y-6950055D01*
X18654900Y-6950055D02*
X18654900Y-6997674D01*
X18654900Y-6997674D02*
X18645376Y-7035769D01*
X18645376Y-7035769D02*
X18635853Y-7054817D01*
X18635853Y-7054817D02*
X18626329Y-7064341D01*
X18626329Y-7064341D02*
X18607281Y-7073864D01*
X18607281Y-7073864D02*
X18588234Y-7073864D01*
X18588234Y-7073864D02*
X18569186Y-7064341D01*
X18569186Y-7064341D02*
X18559662Y-7054817D01*
X18559662Y-7054817D02*
X18550138Y-7035769D01*
X18550138Y-7035769D02*
X18540615Y-6997674D01*
X18540615Y-6997674D02*
X18540615Y-6950055D01*
X18540615Y-6950055D02*
X18550138Y-6911960D01*
X18550138Y-6911960D02*
X18559662Y-6892912D01*
X18559662Y-6892912D02*
X18569186Y-6883388D01*
X18569186Y-6883388D02*
X18588234Y-6873864D01*
X18740615Y-7054817D02*
X18750138Y-7064341D01*
X18750138Y-7064341D02*
X18740615Y-7073864D01*
X18740615Y-7073864D02*
X18731091Y-7064341D01*
X18731091Y-7064341D02*
X18740615Y-7054817D01*
X18740615Y-7054817D02*
X18740615Y-7073864D01*
X18873948Y-6873864D02*
X18892996Y-6873864D01*
X18892996Y-6873864D02*
X18912043Y-6883388D01*
X18912043Y-6883388D02*
X18921567Y-6892912D01*
X18921567Y-6892912D02*
X18931091Y-6911960D01*
X18931091Y-6911960D02*
X18940615Y-6950055D01*
X18940615Y-6950055D02*
X18940615Y-6997674D01*
X18940615Y-6997674D02*
X18931091Y-7035769D01*
X18931091Y-7035769D02*
X18921567Y-7054817D01*
X18921567Y-7054817D02*
X18912043Y-7064341D01*
X18912043Y-7064341D02*
X18892996Y-7073864D01*
X18892996Y-7073864D02*
X18873948Y-7073864D01*
X18873948Y-7073864D02*
X18854900Y-7064341D01*
X18854900Y-7064341D02*
X18845376Y-7054817D01*
X18845376Y-7054817D02*
X18835853Y-7035769D01*
X18835853Y-7035769D02*
X18826329Y-6997674D01*
X18826329Y-6997674D02*
X18826329Y-6950055D01*
X18826329Y-6950055D02*
X18835853Y-6911960D01*
X18835853Y-6911960D02*
X18845376Y-6892912D01*
X18845376Y-6892912D02*
X18854900Y-6883388D01*
X18854900Y-6883388D02*
X18873948Y-6873864D01*
X19131091Y-7073864D02*
X19016805Y-7073864D01*
X19073948Y-7073864D02*
X19073948Y-6873864D01*
X19073948Y-6873864D02*
X19054900Y-6902436D01*
X19054900Y-6902436D02*
X19035853Y-6921483D01*
X19035853Y-6921483D02*
X19016805Y-6931007D01*
X19321567Y-7073864D02*
X19207281Y-7073864D01*
X19264424Y-7073864D02*
X19264424Y-6873864D01*
X19264424Y-6873864D02*
X19245376Y-6902436D01*
X19245376Y-6902436D02*
X19226329Y-6921483D01*
X19226329Y-6921483D02*
X19207281Y-6931007D01*
X19435853Y-6959579D02*
X19416805Y-6950055D01*
X19416805Y-6950055D02*
X19407281Y-6940531D01*
X19407281Y-6940531D02*
X19397757Y-6921483D01*
X19397757Y-6921483D02*
X19397757Y-6911960D01*
X19397757Y-6911960D02*
X19407281Y-6892912D01*
X19407281Y-6892912D02*
X19416805Y-6883388D01*
X19416805Y-6883388D02*
X19435853Y-6873864D01*
X19435853Y-6873864D02*
X19473948Y-6873864D01*
X19473948Y-6873864D02*
X19492996Y-6883388D01*
X19492996Y-6883388D02*
X19502519Y-6892912D01*
X19502519Y-6892912D02*
X19512043Y-6911960D01*
X19512043Y-6911960D02*
X19512043Y-6921483D01*
X19512043Y-6921483D02*
X19502519Y-6940531D01*
X19502519Y-6940531D02*
X19492996Y-6950055D01*
X19492996Y-6950055D02*
X19473948Y-6959579D01*
X19473948Y-6959579D02*
X19435853Y-6959579D01*
X19435853Y-6959579D02*
X19416805Y-6969103D01*
X19416805Y-6969103D02*
X19407281Y-6978626D01*
X19407281Y-6978626D02*
X19397757Y-6997674D01*
X19397757Y-6997674D02*
X19397757Y-7035769D01*
X19397757Y-7035769D02*
X19407281Y-7054817D01*
X19407281Y-7054817D02*
X19416805Y-7064341D01*
X19416805Y-7064341D02*
X19435853Y-7073864D01*
X19435853Y-7073864D02*
X19473948Y-7073864D01*
X19473948Y-7073864D02*
X19492996Y-7064341D01*
X19492996Y-7064341D02*
X19502519Y-7054817D01*
X19502519Y-7054817D02*
X19512043Y-7035769D01*
X19512043Y-7035769D02*
X19512043Y-6997674D01*
X19512043Y-6997674D02*
X19502519Y-6978626D01*
X19502519Y-6978626D02*
X19492996Y-6969103D01*
X19492996Y-6969103D02*
X19473948Y-6959579D01*
X19588234Y-6873864D02*
X19588234Y-6911960D01*
X19664424Y-6873864D02*
X19664424Y-6911960D01*
X19959662Y-7150055D02*
X19950138Y-7140531D01*
X19950138Y-7140531D02*
X19931091Y-7111960D01*
X19931091Y-7111960D02*
X19921567Y-7092912D01*
X19921567Y-7092912D02*
X19912043Y-7064341D01*
X19912043Y-7064341D02*
X19902519Y-7016722D01*
X19902519Y-7016722D02*
X19902519Y-6978626D01*
X19902519Y-6978626D02*
X19912043Y-6931007D01*
X19912043Y-6931007D02*
X19921567Y-6902436D01*
X19921567Y-6902436D02*
X19931091Y-6883388D01*
X19931091Y-6883388D02*
X19950138Y-6854817D01*
X19950138Y-6854817D02*
X19959662Y-6845293D01*
X20121567Y-6940531D02*
X20121567Y-7073864D01*
X20073948Y-6864341D02*
X20026329Y-7007198D01*
X20026329Y-7007198D02*
X20150138Y-7007198D01*
X20378710Y-7073864D02*
X20378710Y-6873864D01*
X20464424Y-7073864D02*
X20464424Y-6969103D01*
X20464424Y-6969103D02*
X20454900Y-6950055D01*
X20454900Y-6950055D02*
X20435853Y-6940531D01*
X20435853Y-6940531D02*
X20407281Y-6940531D01*
X20407281Y-6940531D02*
X20388234Y-6950055D01*
X20388234Y-6950055D02*
X20378710Y-6959579D01*
X20588234Y-7073864D02*
X20569186Y-7064341D01*
X20569186Y-7064341D02*
X20559662Y-7054817D01*
X20559662Y-7054817D02*
X20550139Y-7035769D01*
X20550139Y-7035769D02*
X20550139Y-6978626D01*
X20550139Y-6978626D02*
X20559662Y-6959579D01*
X20559662Y-6959579D02*
X20569186Y-6950055D01*
X20569186Y-6950055D02*
X20588234Y-6940531D01*
X20588234Y-6940531D02*
X20616805Y-6940531D01*
X20616805Y-6940531D02*
X20635853Y-6950055D01*
X20635853Y-6950055D02*
X20645377Y-6959579D01*
X20645377Y-6959579D02*
X20654900Y-6978626D01*
X20654900Y-6978626D02*
X20654900Y-7035769D01*
X20654900Y-7035769D02*
X20645377Y-7054817D01*
X20645377Y-7054817D02*
X20635853Y-7064341D01*
X20635853Y-7064341D02*
X20616805Y-7073864D01*
X20616805Y-7073864D02*
X20588234Y-7073864D01*
X20769186Y-7073864D02*
X20750139Y-7064341D01*
X20750139Y-7064341D02*
X20740615Y-7045293D01*
X20740615Y-7045293D02*
X20740615Y-6873864D01*
X20921567Y-7064341D02*
X20902520Y-7073864D01*
X20902520Y-7073864D02*
X20864424Y-7073864D01*
X20864424Y-7073864D02*
X20845377Y-7064341D01*
X20845377Y-7064341D02*
X20835853Y-7045293D01*
X20835853Y-7045293D02*
X20835853Y-6969103D01*
X20835853Y-6969103D02*
X20845377Y-6950055D01*
X20845377Y-6950055D02*
X20864424Y-6940531D01*
X20864424Y-6940531D02*
X20902520Y-6940531D01*
X20902520Y-6940531D02*
X20921567Y-6950055D01*
X20921567Y-6950055D02*
X20931091Y-6969103D01*
X20931091Y-6969103D02*
X20931091Y-6988150D01*
X20931091Y-6988150D02*
X20835853Y-7007198D01*
X21007281Y-7064341D02*
X21026329Y-7073864D01*
X21026329Y-7073864D02*
X21064424Y-7073864D01*
X21064424Y-7073864D02*
X21083472Y-7064341D01*
X21083472Y-7064341D02*
X21092996Y-7045293D01*
X21092996Y-7045293D02*
X21092996Y-7035769D01*
X21092996Y-7035769D02*
X21083472Y-7016722D01*
X21083472Y-7016722D02*
X21064424Y-7007198D01*
X21064424Y-7007198D02*
X21035853Y-7007198D01*
X21035853Y-7007198D02*
X21016805Y-6997674D01*
X21016805Y-6997674D02*
X21007281Y-6978626D01*
X21007281Y-6978626D02*
X21007281Y-6969103D01*
X21007281Y-6969103D02*
X21016805Y-6950055D01*
X21016805Y-6950055D02*
X21035853Y-6940531D01*
X21035853Y-6940531D02*
X21064424Y-6940531D01*
X21064424Y-6940531D02*
X21083472Y-6950055D01*
X21159662Y-7150055D02*
X21169186Y-7140531D01*
X21169186Y-7140531D02*
X21188234Y-7111960D01*
X21188234Y-7111960D02*
X21197758Y-7092912D01*
X21197758Y-7092912D02*
X21207281Y-7064341D01*
X21207281Y-7064341D02*
X21216805Y-7016722D01*
X21216805Y-7016722D02*
X21216805Y-6978626D01*
X21216805Y-6978626D02*
X21207281Y-6931007D01*
X21207281Y-6931007D02*
X21197758Y-6902436D01*
X21197758Y-6902436D02*
X21188234Y-6883388D01*
X21188234Y-6883388D02*
X21169186Y-6854817D01*
X21169186Y-6854817D02*
X21159662Y-6845293D01*
M02*
