%TF.GenerationSoftware,KiCad,Pcbnew,9.0.0*%
%TF.CreationDate,2025-03-22T00:35:49-04:00*%
%TF.ProjectId,Project Resonator Crossover Circuit PCB,50726f6a-6563-4742-9052-65736f6e6174,rev?*%
%TF.SameCoordinates,Original*%
%TF.FileFunction,Copper,L1,Top*%
%TF.FilePolarity,Positive*%
%FSLAX46Y46*%
G04 Gerber Fmt 4.6, Leading zero omitted, Abs format (unit mm)*
G04 Created by KiCad (PCBNEW 9.0.0) date 2025-03-22 00:35:49*
%MOMM*%
%LPD*%
G01*
G04 APERTURE LIST*
G04 Aperture macros list*
%AMRoundRect*
0 Rectangle with rounded corners*
0 $1 Rounding radius*
0 $2 $3 $4 $5 $6 $7 $8 $9 X,Y pos of 4 corners*
0 Add a 4 corners polygon primitive as box body*
4,1,4,$2,$3,$4,$5,$6,$7,$8,$9,$2,$3,0*
0 Add four circle primitives for the rounded corners*
1,1,$1+$1,$2,$3*
1,1,$1+$1,$4,$5*
1,1,$1+$1,$6,$7*
1,1,$1+$1,$8,$9*
0 Add four rect primitives between the rounded corners*
20,1,$1+$1,$2,$3,$4,$5,0*
20,1,$1+$1,$4,$5,$6,$7,0*
20,1,$1+$1,$6,$7,$8,$9,0*
20,1,$1+$1,$8,$9,$2,$3,0*%
G04 Aperture macros list end*
%TA.AperFunction,SMDPad,CuDef*%
%ADD10R,1.000000X1.000000*%
%TD*%
%TA.AperFunction,SMDPad,CuDef*%
%ADD11RoundRect,0.160000X-0.160000X0.197500X-0.160000X-0.197500X0.160000X-0.197500X0.160000X0.197500X0*%
%TD*%
%TA.AperFunction,SMDPad,CuDef*%
%ADD12RoundRect,0.155000X-0.212500X-0.155000X0.212500X-0.155000X0.212500X0.155000X-0.212500X0.155000X0*%
%TD*%
%TA.AperFunction,SMDPad,CuDef*%
%ADD13RoundRect,0.155000X-0.155000X0.212500X-0.155000X-0.212500X0.155000X-0.212500X0.155000X0.212500X0*%
%TD*%
%TA.AperFunction,SMDPad,CuDef*%
%ADD14RoundRect,0.160000X-0.197500X-0.160000X0.197500X-0.160000X0.197500X0.160000X-0.197500X0.160000X0*%
%TD*%
%TA.AperFunction,SMDPad,CuDef*%
%ADD15RoundRect,0.155000X0.155000X-0.212500X0.155000X0.212500X-0.155000X0.212500X-0.155000X-0.212500X0*%
%TD*%
%TA.AperFunction,ViaPad*%
%ADD16C,0.600000*%
%TD*%
%TA.AperFunction,Conductor*%
%ADD17C,0.508000*%
%TD*%
%TA.AperFunction,Conductor*%
%ADD18C,0.200000*%
%TD*%
%TA.AperFunction,Conductor*%
%ADD19C,0.254000*%
%TD*%
G04 APERTURE END LIST*
D10*
%TO.P,H8,1*%
%TO.N,GND*%
X165506400Y-52578000D03*
%TD*%
D11*
%TO.P,R4,2*%
%TO.N,+*%
X167233600Y-57341100D03*
%TO.P,R4,1*%
X167233600Y-56146100D03*
%TD*%
%TO.P,R5,2*%
%TO.N,+*%
X168402000Y-56121900D03*
%TO.P,R5,1*%
X168402000Y-54926900D03*
%TD*%
D10*
%TO.P,H2,1*%
%TO.N,GND*%
X172618400Y-52324000D03*
%TD*%
D12*
%TO.P,C1,2*%
%TO.N,GND*%
X172068300Y-55346600D03*
%TO.P,C1,1*%
%TO.N,+*%
X170933300Y-55346600D03*
%TD*%
D10*
%TO.P,H1,1,1*%
%TO.N,+*%
X170230800Y-52324000D03*
%TD*%
D12*
%TO.P,C2,2*%
%TO.N,GND*%
X172068300Y-54102000D03*
%TO.P,C2,1*%
%TO.N,+*%
X170933300Y-54102000D03*
%TD*%
D13*
%TO.P,C3,2*%
%TO.N,GND*%
X173278800Y-55279100D03*
%TO.P,C3,1*%
%TO.N,+*%
X173278800Y-54144100D03*
%TD*%
D11*
%TO.P,R1,2*%
%TO.N,+*%
X169722800Y-55309100D03*
%TO.P,R1,1*%
X169722800Y-54114100D03*
%TD*%
D12*
%TO.P,C7,1*%
%TO.N,+*%
X171545700Y-60257500D03*
%TO.P,C7,2*%
%TO.N,GND*%
X172680700Y-60257500D03*
%TD*%
D14*
%TO.P,R2,1*%
%TO.N,+*%
X166788500Y-58928000D03*
%TO.P,R2,2*%
%TO.N,GND*%
X167983500Y-58928000D03*
%TD*%
D12*
%TO.P,C5,1*%
%TO.N,+*%
X166818500Y-60198000D03*
%TO.P,C5,2*%
%TO.N,GND*%
X167953500Y-60198000D03*
%TD*%
D10*
%TO.P,H4,1*%
%TO.N,GND*%
X167894000Y-61925200D03*
%TD*%
D14*
%TO.P,R3,1*%
%TO.N,+*%
X171464900Y-59038300D03*
%TO.P,R3,2*%
%TO.N,GND*%
X172659900Y-59038300D03*
%TD*%
D15*
%TO.P,C4,1*%
%TO.N,+*%
X165455600Y-60105100D03*
%TO.P,C4,2*%
X165455600Y-58970100D03*
%TD*%
D10*
%TO.P,H9,1,1*%
%TO.N,+*%
X165506400Y-57048400D03*
%TD*%
%TO.P,H6,1*%
%TO.N,GND*%
X172567600Y-61925200D03*
%TD*%
%TO.P,H10,1*%
%TO.N,GND*%
X172618400Y-57099200D03*
%TD*%
D15*
%TO.P,C6,1*%
%TO.N,+*%
X170281600Y-60164600D03*
%TO.P,C6,2*%
X170281600Y-59029600D03*
%TD*%
D10*
%TO.P,H5,1,1*%
%TO.N,+*%
X170281600Y-61925200D03*
%TD*%
%TO.P,H3,1,1*%
%TO.N,+*%
X165608000Y-61925200D03*
%TD*%
%TO.P,H7,1,1*%
%TO.N,+*%
X165506400Y-54813200D03*
%TD*%
D13*
%TO.P,C8,1*%
%TO.N,+*%
X168402000Y-51807300D03*
%TO.P,C8,2*%
%TO.N,GND*%
X168402000Y-52942300D03*
%TD*%
D11*
%TO.P,R6,1*%
%TO.N,+*%
X167233600Y-51777300D03*
%TO.P,R6,2*%
%TO.N,GND*%
X167233600Y-52972300D03*
%TD*%
D16*
%TO.N,+*%
X166573200Y-54926900D03*
X171399200Y-53390800D03*
X173228000Y-53390800D03*
X170078400Y-56345200D03*
X164891600Y-58064400D03*
X166592112Y-52318936D03*
X169210796Y-52679845D03*
X167335200Y-54926900D03*
%TO.N,GND*%
X167233600Y-54102000D03*
X169011600Y-57048400D03*
%TO.N,+*%
X169283000Y-59690000D03*
X168656000Y-57912000D03*
%TD*%
D17*
%TO.N,+*%
X166573200Y-54926900D02*
X165620100Y-54926900D01*
X167335200Y-54926900D02*
X167081200Y-54926900D01*
%TO.N,GND*%
X172473000Y-55372000D02*
X172473000Y-54813200D01*
X172473000Y-54102000D02*
X172068300Y-54102000D01*
X172473000Y-54102000D02*
X172473000Y-52469400D01*
X172447600Y-55346600D02*
X172068300Y-55346600D01*
X172473000Y-55372000D02*
X172447600Y-55346600D01*
X169519600Y-57099200D02*
X171145200Y-57099200D01*
%TO.N,+*%
X173228000Y-54093300D02*
X173278800Y-54144100D01*
X173228000Y-53390800D02*
X173228000Y-54093300D01*
X170239500Y-53390800D02*
X171399200Y-53390800D01*
X170230800Y-53399500D02*
X170239500Y-53390800D01*
X170933300Y-55312500D02*
X170933300Y-55346600D01*
X170281600Y-54660800D02*
X170933300Y-55312500D01*
X170480450Y-54461950D02*
X170281600Y-54660800D01*
X170480450Y-53649150D02*
X170480450Y-54461950D01*
X170480450Y-53649150D02*
X170933300Y-54102000D01*
X170230800Y-53340000D02*
X170230800Y-53399500D01*
X170230800Y-53399500D02*
X170480450Y-53649150D01*
X169722800Y-53848000D02*
X170230800Y-53340000D01*
X169722800Y-54114100D02*
X169722800Y-53848000D01*
X170230800Y-53340000D02*
X170230800Y-52324000D01*
X169722800Y-55309100D02*
X169722800Y-54114100D01*
X170078400Y-55664700D02*
X169722800Y-55309100D01*
X170078400Y-56345200D02*
X170078400Y-55664700D01*
X165506400Y-57449600D02*
X164891600Y-58064400D01*
X165506400Y-57048400D02*
X165506400Y-57449600D01*
X166592112Y-52318936D02*
X167133748Y-51777300D01*
X167133748Y-51777300D02*
X167233600Y-51777300D01*
X166791248Y-52119800D02*
X166592112Y-52318936D01*
X168813966Y-52119800D02*
X166791248Y-52119800D01*
X169210796Y-52516630D02*
X168813966Y-52119800D01*
X169210796Y-52679845D02*
X169210796Y-52516630D01*
X169167000Y-52679600D02*
X169210551Y-52679600D01*
X169167000Y-52679600D02*
X169167000Y-51869800D01*
X169210551Y-52679600D02*
X169210796Y-52679845D01*
X169104500Y-51807300D02*
X168402000Y-51807300D01*
X167651866Y-54926900D02*
X169167000Y-53411766D01*
X169167000Y-53411766D02*
X169167000Y-52679600D01*
X167335200Y-54926900D02*
X167651866Y-54926900D01*
X169167000Y-51869800D02*
X169104500Y-51807300D01*
X167081200Y-54926900D02*
X166573200Y-54926900D01*
%TO.N,GND*%
X167242300Y-54102000D02*
X168402000Y-52942300D01*
X167233600Y-54102000D02*
X167242300Y-54102000D01*
X166471600Y-54102000D02*
X167233600Y-53340000D01*
X167233600Y-53340000D02*
X167233600Y-52972300D01*
X166471600Y-54102000D02*
X167233600Y-54102000D01*
X166065200Y-53695600D02*
X166471600Y-54102000D01*
X165608000Y-53695600D02*
X166065200Y-53695600D01*
D18*
X165506400Y-53594000D02*
X165608000Y-53695600D01*
D17*
X165506400Y-52578000D02*
X165506400Y-53594000D01*
D18*
X169468800Y-57048400D02*
X169519600Y-57099200D01*
D17*
X169011600Y-57048400D02*
X169468800Y-57048400D01*
X165506400Y-52578000D02*
X165709600Y-52578000D01*
%TO.N,+*%
X165620100Y-54926900D02*
X165506400Y-54813200D01*
X168402000Y-54926900D02*
X167081200Y-54926900D01*
X168402000Y-56121900D02*
X168402000Y-54926900D01*
X168377800Y-56146100D02*
X168402000Y-56121900D01*
X167233600Y-56146100D02*
X168377800Y-56146100D01*
X167233600Y-57341100D02*
X167233600Y-56146100D01*
D19*
%TO.N,GND*%
X172770200Y-58928000D02*
X172659900Y-59038300D01*
X173463600Y-58928000D02*
X173463600Y-60198000D01*
X173463600Y-58928000D02*
X172770200Y-58928000D01*
X173463600Y-58166000D02*
X173463600Y-58928000D01*
X173404100Y-60257500D02*
X172680700Y-60257500D01*
X173463600Y-60198000D02*
X173404100Y-60257500D01*
X173463600Y-60198000D02*
X173463600Y-61029200D01*
X173463600Y-61029200D02*
X172567600Y-61925200D01*
X172466000Y-58166000D02*
X173463600Y-58166000D01*
X171831000Y-57785000D02*
X172212000Y-58166000D01*
X172212000Y-58166000D02*
X172466000Y-58166000D01*
X171831000Y-57785000D02*
X171450000Y-58166000D01*
%TO.N,+*%
X170942000Y-59690000D02*
X170978200Y-59690000D01*
X170942000Y-58621000D02*
X170942000Y-59690000D01*
X170942000Y-58621000D02*
X171450000Y-58621000D01*
X170978200Y-59690000D02*
X171545700Y-60257500D01*
X171464900Y-58635900D02*
X171464900Y-59038300D01*
X171450000Y-58621000D02*
X171464900Y-58635900D01*
X169672000Y-59182000D02*
X169672000Y-58621000D01*
X169672000Y-59182000D02*
X169824400Y-59029600D01*
X169672000Y-58621000D02*
X170942000Y-58621000D01*
X170281600Y-60164600D02*
X170281600Y-61925200D01*
X170281600Y-59029600D02*
X170281600Y-60164600D01*
X169824400Y-59029600D02*
X170281600Y-59029600D01*
X169283000Y-59571000D02*
X169672000Y-59182000D01*
X169283000Y-59690000D02*
X169283000Y-59571000D01*
X168402000Y-58166000D02*
X168656000Y-57912000D01*
X165506400Y-58166000D02*
X168402000Y-58166000D01*
X165506400Y-58166000D02*
X165506400Y-58919300D01*
%TO.N,GND*%
X168656000Y-60198000D02*
X167953500Y-60198000D01*
X168656000Y-60198000D02*
X168656000Y-61163200D01*
X168656000Y-61163200D02*
X167894000Y-61925200D01*
X168656000Y-58928000D02*
X168656000Y-60198000D01*
X168656000Y-58928000D02*
X167983500Y-58928000D01*
X169164000Y-58928000D02*
X168656000Y-58928000D01*
X169164000Y-58420000D02*
X169164000Y-58928000D01*
X169418000Y-58166000D02*
X169164000Y-58420000D01*
X171450000Y-58166000D02*
X169418000Y-58166000D01*
X172516800Y-57099200D02*
X171831000Y-57785000D01*
D18*
X172618400Y-57099200D02*
X172516800Y-57099200D01*
D19*
%TO.N,+*%
X166198250Y-60623750D02*
X165608000Y-61214000D01*
X165608000Y-61214000D02*
X165608000Y-61925200D01*
X166198250Y-59577750D02*
X166198250Y-60623750D01*
X166198250Y-59518250D02*
X166198250Y-59577750D01*
X166198250Y-59577750D02*
X166818500Y-60198000D01*
X166198250Y-59518250D02*
X166788500Y-58928000D01*
X165455600Y-60105100D02*
X165611400Y-60105100D01*
X165611400Y-60105100D02*
X166198250Y-59518250D01*
X165455600Y-58970100D02*
X165455600Y-60105100D01*
X165506400Y-57048400D02*
X165506400Y-58166000D01*
X165506400Y-58919300D02*
X165455600Y-58970100D01*
D17*
X166940900Y-57048400D02*
X167233600Y-57341100D01*
X165506400Y-57048400D02*
X166940900Y-57048400D01*
%TO.N,GND*%
X172473000Y-52469400D02*
X172618400Y-52324000D01*
X172473000Y-55836200D02*
X172473000Y-55372000D01*
X171145200Y-57099200D02*
X172618400Y-57099200D01*
X171145200Y-57099200D02*
X171602400Y-57099200D01*
X171602400Y-57099200D02*
X172669200Y-56032400D01*
X172669200Y-56032400D02*
X172473000Y-55836200D01*
X172473000Y-54813200D02*
X172473000Y-54102000D01*
X172473000Y-54813200D02*
X172938900Y-55279100D01*
X172938900Y-55279100D02*
X173278800Y-55279100D01*
%TD*%
%TA.AperFunction,Conductor*%
%TO.N,GND*%
G36*
X168895989Y-58683151D02*
G01*
X168954359Y-58682624D01*
X169013476Y-58719866D01*
X169043073Y-58783157D01*
X169044500Y-58801912D01*
X169044500Y-58839480D01*
X169024815Y-58906519D01*
X168972011Y-58952274D01*
X168967953Y-58954041D01*
X168903824Y-58980604D01*
X168903814Y-58980609D01*
X168772711Y-59068210D01*
X168772707Y-59068213D01*
X168661213Y-59179707D01*
X168661210Y-59179711D01*
X168573609Y-59310814D01*
X168573602Y-59310827D01*
X168513264Y-59456498D01*
X168513261Y-59456510D01*
X168482500Y-59611153D01*
X168482500Y-59768846D01*
X168513261Y-59923489D01*
X168513264Y-59923501D01*
X168573602Y-60069172D01*
X168573609Y-60069185D01*
X168661210Y-60200288D01*
X168661213Y-60200292D01*
X168772707Y-60311786D01*
X168772711Y-60311789D01*
X168903814Y-60399390D01*
X168903827Y-60399397D01*
X168951661Y-60419210D01*
X169049503Y-60459737D01*
X169153674Y-60480458D01*
X169204153Y-60490499D01*
X169204156Y-60490500D01*
X169204158Y-60490500D01*
X169361844Y-60490500D01*
X169367907Y-60489903D01*
X169368098Y-60491849D01*
X169428694Y-60497266D01*
X169483876Y-60540123D01*
X169502381Y-60578065D01*
X169520228Y-60639495D01*
X169520229Y-60639498D01*
X169604537Y-60782055D01*
X169606467Y-60784543D01*
X169607372Y-60786848D01*
X169608508Y-60788769D01*
X169608198Y-60788952D01*
X169632001Y-60849580D01*
X169618319Y-60918097D01*
X169569766Y-60968341D01*
X169551827Y-60976719D01*
X169539269Y-60981404D01*
X169539264Y-60981406D01*
X169424055Y-61067652D01*
X169424052Y-61067655D01*
X169337806Y-61182864D01*
X169337802Y-61182871D01*
X169287508Y-61317717D01*
X169281101Y-61377316D01*
X169281101Y-61377323D01*
X169281100Y-61377335D01*
X169281100Y-62473070D01*
X169281101Y-62473076D01*
X169287508Y-62532683D01*
X169324465Y-62631767D01*
X169329449Y-62701458D01*
X169295964Y-62762781D01*
X169234641Y-62796266D01*
X169208283Y-62799100D01*
X166681317Y-62799100D01*
X166614278Y-62779415D01*
X166568523Y-62726611D01*
X166558579Y-62657453D01*
X166565135Y-62631767D01*
X166602091Y-62532682D01*
X166608500Y-62473073D01*
X166608499Y-61377328D01*
X166602091Y-61317717D01*
X166572785Y-61239145D01*
X166571514Y-61221364D01*
X166565283Y-61204658D01*
X166569072Y-61187236D01*
X166567801Y-61169456D01*
X166576344Y-61153808D01*
X166580135Y-61136385D01*
X166601281Y-61108136D01*
X166664602Y-61044815D01*
X166725925Y-61011333D01*
X166752282Y-61008499D01*
X167097190Y-61008499D01*
X167097202Y-61008499D01*
X167134358Y-61005576D01*
X167293400Y-60959370D01*
X167435954Y-60875063D01*
X167553063Y-60757954D01*
X167637370Y-60615400D01*
X167683576Y-60456358D01*
X167686500Y-60419203D01*
X167686499Y-59976798D01*
X167683576Y-59939642D01*
X167637370Y-59780600D01*
X167553063Y-59638046D01*
X167542126Y-59627109D01*
X167508642Y-59565790D01*
X167513624Y-59496098D01*
X167523684Y-59475289D01*
X167592733Y-59361069D01*
X167640452Y-59207933D01*
X167646500Y-59141381D01*
X167646499Y-58917499D01*
X167666183Y-58850461D01*
X167718987Y-58804706D01*
X167770499Y-58793500D01*
X168463804Y-58793500D01*
X168463805Y-58793499D01*
X168585035Y-58769386D01*
X168672804Y-58733030D01*
X168699233Y-58722083D01*
X168699234Y-58722082D01*
X168701485Y-58721150D01*
X168728982Y-58714263D01*
X168728868Y-58713689D01*
X168895472Y-58680549D01*
X168895989Y-58683151D01*
G37*
%TD.AperFunction*%
%TA.AperFunction,Conductor*%
G36*
X172354853Y-53415694D02*
G01*
X172411525Y-53456561D01*
X172435217Y-53508440D01*
X172457503Y-53620481D01*
X172457505Y-53620486D01*
X172458263Y-53624297D01*
X172464914Y-53640355D01*
X172465685Y-53642421D01*
X172466135Y-53648721D01*
X172473500Y-53685747D01*
X172473500Y-53804547D01*
X172471483Y-53826820D01*
X172471224Y-53828236D01*
X172468300Y-53865389D01*
X172468300Y-54422790D01*
X172468301Y-54422815D01*
X172471223Y-54459954D01*
X172517430Y-54619000D01*
X172601734Y-54761550D01*
X172601741Y-54761559D01*
X172718840Y-54878658D01*
X172718844Y-54878661D01*
X172718846Y-54878663D01*
X172861400Y-54962970D01*
X172903341Y-54975155D01*
X173020437Y-55009175D01*
X173020440Y-55009175D01*
X173020442Y-55009176D01*
X173057597Y-55012100D01*
X173467100Y-55012099D01*
X173534139Y-55031783D01*
X173579894Y-55084587D01*
X173591100Y-55136099D01*
X173591100Y-62675100D01*
X173571415Y-62742139D01*
X173518611Y-62787894D01*
X173467100Y-62799100D01*
X171354917Y-62799100D01*
X171287878Y-62779415D01*
X171242123Y-62726611D01*
X171232179Y-62657453D01*
X171238735Y-62631767D01*
X171275691Y-62532682D01*
X171282100Y-62473073D01*
X171282099Y-61377328D01*
X171275691Y-61317717D01*
X171275690Y-61317714D01*
X171244964Y-61235332D01*
X171239980Y-61165640D01*
X171273465Y-61104317D01*
X171334789Y-61070833D01*
X171361138Y-61067999D01*
X171824402Y-61067999D01*
X171861558Y-61065076D01*
X172020600Y-61018870D01*
X172163154Y-60934563D01*
X172280263Y-60817454D01*
X172364570Y-60674900D01*
X172410776Y-60515858D01*
X172413700Y-60478703D01*
X172413699Y-60036298D01*
X172410776Y-59999142D01*
X172364570Y-59840100D01*
X172280263Y-59697546D01*
X172280261Y-59697544D01*
X172280258Y-59697540D01*
X172256805Y-59674087D01*
X172223320Y-59612764D01*
X172228304Y-59543072D01*
X172238363Y-59522266D01*
X172269133Y-59471369D01*
X172316852Y-59318233D01*
X172322900Y-59251681D01*
X172322899Y-58824920D01*
X172322899Y-58824911D01*
X172316853Y-58758373D01*
X172316852Y-58758370D01*
X172316852Y-58758367D01*
X172269133Y-58605231D01*
X172269132Y-58605229D01*
X172186157Y-58467970D01*
X172186156Y-58467969D01*
X172186154Y-58467967D01*
X172186153Y-58467965D01*
X172072735Y-58354547D01*
X172027331Y-58327099D01*
X172025618Y-58325656D01*
X172024481Y-58325323D01*
X172020001Y-58320924D01*
X171997799Y-58302220D01*
X171992703Y-58296344D01*
X171952311Y-58235892D01*
X171864908Y-58148489D01*
X171850008Y-58133589D01*
X171820014Y-58113548D01*
X171820013Y-58113547D01*
X171747238Y-58064920D01*
X171747226Y-58064913D01*
X171708563Y-58048899D01*
X171633035Y-58017614D01*
X171633027Y-58017612D01*
X171511807Y-57993500D01*
X171511803Y-57993500D01*
X171003803Y-57993500D01*
X169733803Y-57993500D01*
X169610197Y-57993500D01*
X169610189Y-57993500D01*
X169604686Y-57994595D01*
X169535095Y-57988365D01*
X169479919Y-57945499D01*
X169456677Y-57879609D01*
X169456500Y-57872977D01*
X169456500Y-57833155D01*
X169456499Y-57833153D01*
X169425738Y-57678510D01*
X169425737Y-57678503D01*
X169425735Y-57678498D01*
X169365397Y-57532827D01*
X169365390Y-57532814D01*
X169277789Y-57401711D01*
X169277786Y-57401707D01*
X169166292Y-57290213D01*
X169166288Y-57290210D01*
X169035185Y-57202609D01*
X169035172Y-57202602D01*
X168889501Y-57142264D01*
X168883665Y-57140494D01*
X168884300Y-57138399D01*
X168831112Y-57110556D01*
X168796558Y-57049829D01*
X168800321Y-56980060D01*
X168841206Y-56923402D01*
X168853071Y-56915250D01*
X168972335Y-56843153D01*
X169085753Y-56729735D01*
X169128306Y-56659342D01*
X169179831Y-56612157D01*
X169248690Y-56600317D01*
X169313019Y-56627584D01*
X169348983Y-56676040D01*
X169369004Y-56724375D01*
X169369009Y-56724385D01*
X169456610Y-56855488D01*
X169456613Y-56855492D01*
X169568107Y-56966986D01*
X169568111Y-56966989D01*
X169699214Y-57054590D01*
X169699227Y-57054597D01*
X169785230Y-57090220D01*
X169844903Y-57114937D01*
X169962854Y-57138399D01*
X169999553Y-57145699D01*
X169999556Y-57145700D01*
X169999558Y-57145700D01*
X170157244Y-57145700D01*
X170157245Y-57145699D01*
X170311897Y-57114937D01*
X170457579Y-57054594D01*
X170588689Y-56966989D01*
X170700189Y-56855489D01*
X170787794Y-56724379D01*
X170848137Y-56578697D01*
X170878900Y-56424042D01*
X170878900Y-56281099D01*
X170898585Y-56214060D01*
X170951389Y-56168305D01*
X171002900Y-56157099D01*
X171211990Y-56157099D01*
X171212002Y-56157099D01*
X171249158Y-56154176D01*
X171408200Y-56107970D01*
X171550754Y-56023663D01*
X171667863Y-55906554D01*
X171752170Y-55764000D01*
X171798376Y-55604958D01*
X171801300Y-55567803D01*
X171801299Y-55125398D01*
X171798376Y-55088242D01*
X171752170Y-54929200D01*
X171668320Y-54787419D01*
X171651138Y-54719698D01*
X171668320Y-54661181D01*
X171752170Y-54519400D01*
X171752170Y-54519396D01*
X171752172Y-54519395D01*
X171798375Y-54360362D01*
X171798376Y-54360356D01*
X171801299Y-54323210D01*
X171801300Y-54323203D01*
X171801299Y-54151158D01*
X171820983Y-54084119D01*
X171856406Y-54048057D01*
X171909489Y-54012589D01*
X172020989Y-53901089D01*
X172108594Y-53769979D01*
X172168937Y-53624297D01*
X172191983Y-53508440D01*
X172224368Y-53446529D01*
X172285084Y-53411955D01*
X172354853Y-53415694D01*
G37*
%TD.AperFunction*%
%TA.AperFunction,Conductor*%
G36*
X166185849Y-51418985D02*
G01*
X166231604Y-51471789D01*
X166241548Y-51540947D01*
X166212523Y-51604503D01*
X166187703Y-51626399D01*
X166139815Y-51658397D01*
X166081820Y-51697148D01*
X165970325Y-51808643D01*
X165970322Y-51808647D01*
X165882721Y-51939750D01*
X165882714Y-51939763D01*
X165822376Y-52085434D01*
X165822373Y-52085446D01*
X165791612Y-52240089D01*
X165791612Y-52397782D01*
X165822373Y-52552425D01*
X165822376Y-52552437D01*
X165882714Y-52698108D01*
X165882721Y-52698121D01*
X165970322Y-52829224D01*
X165970325Y-52829228D01*
X166081819Y-52940722D01*
X166081823Y-52940725D01*
X166212926Y-53028326D01*
X166212939Y-53028333D01*
X166358610Y-53088671D01*
X166358615Y-53088673D01*
X166490557Y-53114918D01*
X166513265Y-53119435D01*
X166513268Y-53119436D01*
X166513270Y-53119436D01*
X166670956Y-53119436D01*
X166670957Y-53119435D01*
X166825609Y-53088673D01*
X166971291Y-53028330D01*
X167102401Y-52940725D01*
X167116305Y-52926821D01*
X167132508Y-52910619D01*
X167193831Y-52877134D01*
X167220189Y-52874300D01*
X168288500Y-52874300D01*
X168297185Y-52876850D01*
X168306147Y-52875562D01*
X168330187Y-52886540D01*
X168355539Y-52893985D01*
X168361466Y-52900825D01*
X168369703Y-52904587D01*
X168383992Y-52926821D01*
X168401294Y-52946789D01*
X168403581Y-52957303D01*
X168407477Y-52963365D01*
X168412500Y-52998300D01*
X168412500Y-53047879D01*
X168392815Y-53114918D01*
X168376181Y-53135560D01*
X167421660Y-54090081D01*
X167360337Y-54123566D01*
X167333979Y-54126400D01*
X167256355Y-54126400D01*
X167101711Y-54157160D01*
X167101706Y-54157162D01*
X167101704Y-54157162D01*
X167101703Y-54157163D01*
X167087701Y-54162962D01*
X167079527Y-54164588D01*
X167075188Y-54167377D01*
X167040253Y-54172400D01*
X166868147Y-54172400D01*
X166820698Y-54162962D01*
X166806697Y-54157163D01*
X166806693Y-54157162D01*
X166806688Y-54157160D01*
X166652045Y-54126400D01*
X166652042Y-54126400D01*
X166553836Y-54126400D01*
X166486797Y-54106715D01*
X166454569Y-54076711D01*
X166433117Y-54048055D01*
X166363946Y-53955654D01*
X166291057Y-53901089D01*
X166248735Y-53869406D01*
X166248728Y-53869402D01*
X166113882Y-53819108D01*
X166113883Y-53819108D01*
X166054283Y-53812701D01*
X166054281Y-53812700D01*
X166054273Y-53812700D01*
X166054264Y-53812700D01*
X164958529Y-53812700D01*
X164958523Y-53812701D01*
X164898915Y-53819109D01*
X164759432Y-53871132D01*
X164689741Y-53876116D01*
X164628418Y-53842630D01*
X164594934Y-53781307D01*
X164592100Y-53754950D01*
X164592100Y-51523300D01*
X164611785Y-51456261D01*
X164664589Y-51410506D01*
X164716100Y-51399300D01*
X166118810Y-51399300D01*
X166185849Y-51418985D01*
G37*
%TD.AperFunction*%
%TA.AperFunction,Conductor*%
G36*
X173534139Y-51418985D02*
G01*
X173579894Y-51471789D01*
X173591100Y-51523300D01*
X173591100Y-52495748D01*
X173571415Y-52562787D01*
X173518611Y-52608542D01*
X173449453Y-52618486D01*
X173442909Y-52617365D01*
X173306845Y-52590300D01*
X173306842Y-52590300D01*
X173149158Y-52590300D01*
X173149155Y-52590300D01*
X172994510Y-52621061D01*
X172994498Y-52621064D01*
X172848827Y-52681402D01*
X172848814Y-52681409D01*
X172717711Y-52769010D01*
X172717707Y-52769013D01*
X172606213Y-52880507D01*
X172606210Y-52880511D01*
X172518609Y-53011614D01*
X172518602Y-53011627D01*
X172458264Y-53157298D01*
X172458261Y-53157310D01*
X172435217Y-53273159D01*
X172402832Y-53335070D01*
X172342116Y-53369645D01*
X172272347Y-53365905D01*
X172215675Y-53325038D01*
X172191983Y-53273159D01*
X172168938Y-53157310D01*
X172168937Y-53157303D01*
X172140509Y-53088671D01*
X172108597Y-53011627D01*
X172108590Y-53011614D01*
X172020989Y-52880511D01*
X172020986Y-52880507D01*
X171909492Y-52769013D01*
X171909488Y-52769010D01*
X171778385Y-52681409D01*
X171778372Y-52681402D01*
X171632701Y-52621064D01*
X171632689Y-52621061D01*
X171478045Y-52590300D01*
X171478042Y-52590300D01*
X171355299Y-52590300D01*
X171288260Y-52570615D01*
X171242505Y-52517811D01*
X171231299Y-52466300D01*
X171231299Y-51776129D01*
X171231298Y-51776123D01*
X171224891Y-51716516D01*
X171171497Y-51573359D01*
X171173013Y-51572793D01*
X171160322Y-51514459D01*
X171184736Y-51448993D01*
X171240668Y-51407120D01*
X171284006Y-51399300D01*
X173467100Y-51399300D01*
X173534139Y-51418985D01*
G37*
%TD.AperFunction*%
%TD*%
M02*
