%TF.GenerationSoftware,KiCad,Pcbnew,9.0.0*%
%TF.CreationDate,2025-03-22T00:36:34-04:00*%
%TF.ProjectId,Project Resonator Crossover Circuit PCB,50726f6a-6563-4742-9052-65736f6e6174,rev?*%
%TF.SameCoordinates,Original*%
%TF.FileFunction,Drillmap*%
%TF.FilePolarity,Positive*%
%FSLAX45Y45*%
G04 Gerber Fmt 4.5, Leading zero omitted, Abs format (unit mm)*
G04 Created by KiCad (PCBNEW 9.0.0) date 2025-03-22 00:36:34*
%MOMM*%
%LPD*%
G01*
G04 APERTURE LIST*
%ADD10C,0.050000*%
%ADD11C,0.200000*%
%ADD12C,0.100000*%
G04 APERTURE END LIST*
D10*
X16409160Y-5089880D02*
X17409160Y-5089880D01*
X17409160Y-6329960D01*
X16409160Y-6329960D01*
X16409160Y-5089880D01*
D11*
D12*
X16474160Y-5791440D02*
X16504160Y-5821440D01*
X16504160Y-5791440D02*
X16474160Y-5821440D01*
X16642320Y-5477690D02*
X16672320Y-5507690D01*
X16672320Y-5477690D02*
X16642320Y-5507690D01*
X16644211Y-5216894D02*
X16674211Y-5246894D01*
X16674211Y-5216894D02*
X16644211Y-5246894D01*
X16708360Y-5395200D02*
X16738360Y-5425200D01*
X16738360Y-5395200D02*
X16708360Y-5425200D01*
X16718520Y-5477690D02*
X16748520Y-5507690D01*
X16748520Y-5477690D02*
X16718520Y-5507690D01*
X16850600Y-5776200D02*
X16880600Y-5806200D01*
X16880600Y-5776200D02*
X16850600Y-5806200D01*
X16886160Y-5689840D02*
X16916160Y-5719840D01*
X16916160Y-5689840D02*
X16886160Y-5719840D01*
X16906080Y-5252985D02*
X16936080Y-5282985D01*
X16936080Y-5252985D02*
X16906080Y-5282985D01*
X16913300Y-5954000D02*
X16943300Y-5984000D01*
X16943300Y-5954000D02*
X16913300Y-5984000D01*
X16992840Y-5619520D02*
X17022840Y-5649520D01*
X17022840Y-5619520D02*
X16992840Y-5649520D01*
X17124920Y-5324080D02*
X17154920Y-5354080D01*
X17154920Y-5324080D02*
X17124920Y-5354080D01*
X17307800Y-5324080D02*
X17337800Y-5354080D01*
X17337800Y-5324080D02*
X17307800Y-5354080D01*
D11*
X16667437Y-6643944D02*
X16667437Y-6443944D01*
X16667437Y-6443944D02*
X16715056Y-6443944D01*
X16715056Y-6443944D02*
X16743627Y-6453468D01*
X16743627Y-6453468D02*
X16762675Y-6472515D01*
X16762675Y-6472515D02*
X16772199Y-6491563D01*
X16772199Y-6491563D02*
X16781723Y-6529658D01*
X16781723Y-6529658D02*
X16781723Y-6558229D01*
X16781723Y-6558229D02*
X16772199Y-6596325D01*
X16772199Y-6596325D02*
X16762675Y-6615372D01*
X16762675Y-6615372D02*
X16743627Y-6634420D01*
X16743627Y-6634420D02*
X16715056Y-6643944D01*
X16715056Y-6643944D02*
X16667437Y-6643944D01*
X16867437Y-6643944D02*
X16867437Y-6510610D01*
X16867437Y-6548706D02*
X16876961Y-6529658D01*
X16876961Y-6529658D02*
X16886484Y-6520134D01*
X16886484Y-6520134D02*
X16905532Y-6510610D01*
X16905532Y-6510610D02*
X16924580Y-6510610D01*
X16991246Y-6643944D02*
X16991246Y-6510610D01*
X16991246Y-6443944D02*
X16981723Y-6453468D01*
X16981723Y-6453468D02*
X16991246Y-6462991D01*
X16991246Y-6462991D02*
X17000770Y-6453468D01*
X17000770Y-6453468D02*
X16991246Y-6443944D01*
X16991246Y-6443944D02*
X16991246Y-6462991D01*
X17115056Y-6643944D02*
X17096008Y-6634420D01*
X17096008Y-6634420D02*
X17086484Y-6615372D01*
X17086484Y-6615372D02*
X17086484Y-6443944D01*
X17219818Y-6643944D02*
X17200770Y-6634420D01*
X17200770Y-6634420D02*
X17191246Y-6615372D01*
X17191246Y-6615372D02*
X17191246Y-6443944D01*
X17448389Y-6643944D02*
X17448389Y-6443944D01*
X17448389Y-6443944D02*
X17515056Y-6586801D01*
X17515056Y-6586801D02*
X17581723Y-6443944D01*
X17581723Y-6443944D02*
X17581723Y-6643944D01*
X17762675Y-6643944D02*
X17762675Y-6539182D01*
X17762675Y-6539182D02*
X17753151Y-6520134D01*
X17753151Y-6520134D02*
X17734104Y-6510610D01*
X17734104Y-6510610D02*
X17696008Y-6510610D01*
X17696008Y-6510610D02*
X17676961Y-6520134D01*
X17762675Y-6634420D02*
X17743627Y-6643944D01*
X17743627Y-6643944D02*
X17696008Y-6643944D01*
X17696008Y-6643944D02*
X17676961Y-6634420D01*
X17676961Y-6634420D02*
X17667437Y-6615372D01*
X17667437Y-6615372D02*
X17667437Y-6596325D01*
X17667437Y-6596325D02*
X17676961Y-6577277D01*
X17676961Y-6577277D02*
X17696008Y-6567753D01*
X17696008Y-6567753D02*
X17743627Y-6567753D01*
X17743627Y-6567753D02*
X17762675Y-6558229D01*
X17857913Y-6510610D02*
X17857913Y-6710610D01*
X17857913Y-6520134D02*
X17876961Y-6510610D01*
X17876961Y-6510610D02*
X17915056Y-6510610D01*
X17915056Y-6510610D02*
X17934104Y-6520134D01*
X17934104Y-6520134D02*
X17943627Y-6529658D01*
X17943627Y-6529658D02*
X17953151Y-6548706D01*
X17953151Y-6548706D02*
X17953151Y-6605848D01*
X17953151Y-6605848D02*
X17943627Y-6624896D01*
X17943627Y-6624896D02*
X17934104Y-6634420D01*
X17934104Y-6634420D02*
X17915056Y-6643944D01*
X17915056Y-6643944D02*
X17876961Y-6643944D01*
X17876961Y-6643944D02*
X17857913Y-6634420D01*
X18038865Y-6624896D02*
X18048389Y-6634420D01*
X18048389Y-6634420D02*
X18038865Y-6643944D01*
X18038865Y-6643944D02*
X18029342Y-6634420D01*
X18029342Y-6634420D02*
X18038865Y-6624896D01*
X18038865Y-6624896D02*
X18038865Y-6643944D01*
X18038865Y-6520134D02*
X18048389Y-6529658D01*
X18048389Y-6529658D02*
X18038865Y-6539182D01*
X18038865Y-6539182D02*
X18029342Y-6529658D01*
X18029342Y-6529658D02*
X18038865Y-6520134D01*
X18038865Y-6520134D02*
X18038865Y-6539182D01*
D12*
X16376660Y-6957460D02*
X16406660Y-6987460D01*
X16406660Y-6957460D02*
X16376660Y-6987460D01*
D11*
X16705532Y-6863944D02*
X16724580Y-6863944D01*
X16724580Y-6863944D02*
X16743627Y-6873468D01*
X16743627Y-6873468D02*
X16753151Y-6882991D01*
X16753151Y-6882991D02*
X16762675Y-6902039D01*
X16762675Y-6902039D02*
X16772199Y-6940134D01*
X16772199Y-6940134D02*
X16772199Y-6987753D01*
X16772199Y-6987753D02*
X16762675Y-7025848D01*
X16762675Y-7025848D02*
X16753151Y-7044896D01*
X16753151Y-7044896D02*
X16743627Y-7054420D01*
X16743627Y-7054420D02*
X16724580Y-7063944D01*
X16724580Y-7063944D02*
X16705532Y-7063944D01*
X16705532Y-7063944D02*
X16686484Y-7054420D01*
X16686484Y-7054420D02*
X16676961Y-7044896D01*
X16676961Y-7044896D02*
X16667437Y-7025848D01*
X16667437Y-7025848D02*
X16657913Y-6987753D01*
X16657913Y-6987753D02*
X16657913Y-6940134D01*
X16657913Y-6940134D02*
X16667437Y-6902039D01*
X16667437Y-6902039D02*
X16676961Y-6882991D01*
X16676961Y-6882991D02*
X16686484Y-6873468D01*
X16686484Y-6873468D02*
X16705532Y-6863944D01*
X16857913Y-7044896D02*
X16867437Y-7054420D01*
X16867437Y-7054420D02*
X16857913Y-7063944D01*
X16857913Y-7063944D02*
X16848389Y-7054420D01*
X16848389Y-7054420D02*
X16857913Y-7044896D01*
X16857913Y-7044896D02*
X16857913Y-7063944D01*
X16934104Y-6863944D02*
X17057913Y-6863944D01*
X17057913Y-6863944D02*
X16991246Y-6940134D01*
X16991246Y-6940134D02*
X17019818Y-6940134D01*
X17019818Y-6940134D02*
X17038865Y-6949658D01*
X17038865Y-6949658D02*
X17048389Y-6959182D01*
X17048389Y-6959182D02*
X17057913Y-6978229D01*
X17057913Y-6978229D02*
X17057913Y-7025848D01*
X17057913Y-7025848D02*
X17048389Y-7044896D01*
X17048389Y-7044896D02*
X17038865Y-7054420D01*
X17038865Y-7054420D02*
X17019818Y-7063944D01*
X17019818Y-7063944D02*
X16962675Y-7063944D01*
X16962675Y-7063944D02*
X16943627Y-7054420D01*
X16943627Y-7054420D02*
X16934104Y-7044896D01*
X17181723Y-6863944D02*
X17200770Y-6863944D01*
X17200770Y-6863944D02*
X17219818Y-6873468D01*
X17219818Y-6873468D02*
X17229342Y-6882991D01*
X17229342Y-6882991D02*
X17238865Y-6902039D01*
X17238865Y-6902039D02*
X17248389Y-6940134D01*
X17248389Y-6940134D02*
X17248389Y-6987753D01*
X17248389Y-6987753D02*
X17238865Y-7025848D01*
X17238865Y-7025848D02*
X17229342Y-7044896D01*
X17229342Y-7044896D02*
X17219818Y-7054420D01*
X17219818Y-7054420D02*
X17200770Y-7063944D01*
X17200770Y-7063944D02*
X17181723Y-7063944D01*
X17181723Y-7063944D02*
X17162675Y-7054420D01*
X17162675Y-7054420D02*
X17153151Y-7044896D01*
X17153151Y-7044896D02*
X17143627Y-7025848D01*
X17143627Y-7025848D02*
X17134104Y-6987753D01*
X17134104Y-6987753D02*
X17134104Y-6940134D01*
X17134104Y-6940134D02*
X17143627Y-6902039D01*
X17143627Y-6902039D02*
X17153151Y-6882991D01*
X17153151Y-6882991D02*
X17162675Y-6873468D01*
X17162675Y-6873468D02*
X17181723Y-6863944D01*
X17372199Y-6863944D02*
X17391246Y-6863944D01*
X17391246Y-6863944D02*
X17410294Y-6873468D01*
X17410294Y-6873468D02*
X17419818Y-6882991D01*
X17419818Y-6882991D02*
X17429342Y-6902039D01*
X17429342Y-6902039D02*
X17438865Y-6940134D01*
X17438865Y-6940134D02*
X17438865Y-6987753D01*
X17438865Y-6987753D02*
X17429342Y-7025848D01*
X17429342Y-7025848D02*
X17419818Y-7044896D01*
X17419818Y-7044896D02*
X17410294Y-7054420D01*
X17410294Y-7054420D02*
X17391246Y-7063944D01*
X17391246Y-7063944D02*
X17372199Y-7063944D01*
X17372199Y-7063944D02*
X17353151Y-7054420D01*
X17353151Y-7054420D02*
X17343627Y-7044896D01*
X17343627Y-7044896D02*
X17334104Y-7025848D01*
X17334104Y-7025848D02*
X17324580Y-6987753D01*
X17324580Y-6987753D02*
X17324580Y-6940134D01*
X17324580Y-6940134D02*
X17334104Y-6902039D01*
X17334104Y-6902039D02*
X17343627Y-6882991D01*
X17343627Y-6882991D02*
X17353151Y-6873468D01*
X17353151Y-6873468D02*
X17372199Y-6863944D01*
X17524580Y-7063944D02*
X17524580Y-6930610D01*
X17524580Y-6949658D02*
X17534104Y-6940134D01*
X17534104Y-6940134D02*
X17553151Y-6930610D01*
X17553151Y-6930610D02*
X17581723Y-6930610D01*
X17581723Y-6930610D02*
X17600770Y-6940134D01*
X17600770Y-6940134D02*
X17610294Y-6959182D01*
X17610294Y-6959182D02*
X17610294Y-7063944D01*
X17610294Y-6959182D02*
X17619818Y-6940134D01*
X17619818Y-6940134D02*
X17638865Y-6930610D01*
X17638865Y-6930610D02*
X17667437Y-6930610D01*
X17667437Y-6930610D02*
X17686485Y-6940134D01*
X17686485Y-6940134D02*
X17696008Y-6959182D01*
X17696008Y-6959182D02*
X17696008Y-7063944D01*
X17791246Y-7063944D02*
X17791246Y-6930610D01*
X17791246Y-6949658D02*
X17800770Y-6940134D01*
X17800770Y-6940134D02*
X17819818Y-6930610D01*
X17819818Y-6930610D02*
X17848389Y-6930610D01*
X17848389Y-6930610D02*
X17867437Y-6940134D01*
X17867437Y-6940134D02*
X17876961Y-6959182D01*
X17876961Y-6959182D02*
X17876961Y-7063944D01*
X17876961Y-6959182D02*
X17886485Y-6940134D01*
X17886485Y-6940134D02*
X17905532Y-6930610D01*
X17905532Y-6930610D02*
X17934104Y-6930610D01*
X17934104Y-6930610D02*
X17953151Y-6940134D01*
X17953151Y-6940134D02*
X17962675Y-6959182D01*
X17962675Y-6959182D02*
X17962675Y-7063944D01*
X18353151Y-6854420D02*
X18181723Y-7111563D01*
X18610294Y-6863944D02*
X18629342Y-6863944D01*
X18629342Y-6863944D02*
X18648389Y-6873468D01*
X18648389Y-6873468D02*
X18657913Y-6882991D01*
X18657913Y-6882991D02*
X18667437Y-6902039D01*
X18667437Y-6902039D02*
X18676961Y-6940134D01*
X18676961Y-6940134D02*
X18676961Y-6987753D01*
X18676961Y-6987753D02*
X18667437Y-7025848D01*
X18667437Y-7025848D02*
X18657913Y-7044896D01*
X18657913Y-7044896D02*
X18648389Y-7054420D01*
X18648389Y-7054420D02*
X18629342Y-7063944D01*
X18629342Y-7063944D02*
X18610294Y-7063944D01*
X18610294Y-7063944D02*
X18591247Y-7054420D01*
X18591247Y-7054420D02*
X18581723Y-7044896D01*
X18581723Y-7044896D02*
X18572199Y-7025848D01*
X18572199Y-7025848D02*
X18562675Y-6987753D01*
X18562675Y-6987753D02*
X18562675Y-6940134D01*
X18562675Y-6940134D02*
X18572199Y-6902039D01*
X18572199Y-6902039D02*
X18581723Y-6882991D01*
X18581723Y-6882991D02*
X18591247Y-6873468D01*
X18591247Y-6873468D02*
X18610294Y-6863944D01*
X18762675Y-7044896D02*
X18772199Y-7054420D01*
X18772199Y-7054420D02*
X18762675Y-7063944D01*
X18762675Y-7063944D02*
X18753151Y-7054420D01*
X18753151Y-7054420D02*
X18762675Y-7044896D01*
X18762675Y-7044896D02*
X18762675Y-7063944D01*
X18896008Y-6863944D02*
X18915056Y-6863944D01*
X18915056Y-6863944D02*
X18934104Y-6873468D01*
X18934104Y-6873468D02*
X18943628Y-6882991D01*
X18943628Y-6882991D02*
X18953151Y-6902039D01*
X18953151Y-6902039D02*
X18962675Y-6940134D01*
X18962675Y-6940134D02*
X18962675Y-6987753D01*
X18962675Y-6987753D02*
X18953151Y-7025848D01*
X18953151Y-7025848D02*
X18943628Y-7044896D01*
X18943628Y-7044896D02*
X18934104Y-7054420D01*
X18934104Y-7054420D02*
X18915056Y-7063944D01*
X18915056Y-7063944D02*
X18896008Y-7063944D01*
X18896008Y-7063944D02*
X18876961Y-7054420D01*
X18876961Y-7054420D02*
X18867437Y-7044896D01*
X18867437Y-7044896D02*
X18857913Y-7025848D01*
X18857913Y-7025848D02*
X18848389Y-6987753D01*
X18848389Y-6987753D02*
X18848389Y-6940134D01*
X18848389Y-6940134D02*
X18857913Y-6902039D01*
X18857913Y-6902039D02*
X18867437Y-6882991D01*
X18867437Y-6882991D02*
X18876961Y-6873468D01*
X18876961Y-6873468D02*
X18896008Y-6863944D01*
X19153151Y-7063944D02*
X19038866Y-7063944D01*
X19096008Y-7063944D02*
X19096008Y-6863944D01*
X19096008Y-6863944D02*
X19076961Y-6892515D01*
X19076961Y-6892515D02*
X19057913Y-6911563D01*
X19057913Y-6911563D02*
X19038866Y-6921087D01*
X19343628Y-7063944D02*
X19229342Y-7063944D01*
X19286485Y-7063944D02*
X19286485Y-6863944D01*
X19286485Y-6863944D02*
X19267437Y-6892515D01*
X19267437Y-6892515D02*
X19248389Y-6911563D01*
X19248389Y-6911563D02*
X19229342Y-6921087D01*
X19457913Y-6949658D02*
X19438866Y-6940134D01*
X19438866Y-6940134D02*
X19429342Y-6930610D01*
X19429342Y-6930610D02*
X19419818Y-6911563D01*
X19419818Y-6911563D02*
X19419818Y-6902039D01*
X19419818Y-6902039D02*
X19429342Y-6882991D01*
X19429342Y-6882991D02*
X19438866Y-6873468D01*
X19438866Y-6873468D02*
X19457913Y-6863944D01*
X19457913Y-6863944D02*
X19496009Y-6863944D01*
X19496009Y-6863944D02*
X19515056Y-6873468D01*
X19515056Y-6873468D02*
X19524580Y-6882991D01*
X19524580Y-6882991D02*
X19534104Y-6902039D01*
X19534104Y-6902039D02*
X19534104Y-6911563D01*
X19534104Y-6911563D02*
X19524580Y-6930610D01*
X19524580Y-6930610D02*
X19515056Y-6940134D01*
X19515056Y-6940134D02*
X19496009Y-6949658D01*
X19496009Y-6949658D02*
X19457913Y-6949658D01*
X19457913Y-6949658D02*
X19438866Y-6959182D01*
X19438866Y-6959182D02*
X19429342Y-6968706D01*
X19429342Y-6968706D02*
X19419818Y-6987753D01*
X19419818Y-6987753D02*
X19419818Y-7025848D01*
X19419818Y-7025848D02*
X19429342Y-7044896D01*
X19429342Y-7044896D02*
X19438866Y-7054420D01*
X19438866Y-7054420D02*
X19457913Y-7063944D01*
X19457913Y-7063944D02*
X19496009Y-7063944D01*
X19496009Y-7063944D02*
X19515056Y-7054420D01*
X19515056Y-7054420D02*
X19524580Y-7044896D01*
X19524580Y-7044896D02*
X19534104Y-7025848D01*
X19534104Y-7025848D02*
X19534104Y-6987753D01*
X19534104Y-6987753D02*
X19524580Y-6968706D01*
X19524580Y-6968706D02*
X19515056Y-6959182D01*
X19515056Y-6959182D02*
X19496009Y-6949658D01*
X19610294Y-6863944D02*
X19610294Y-6902039D01*
X19686485Y-6863944D02*
X19686485Y-6902039D01*
X19981723Y-7140134D02*
X19972199Y-7130610D01*
X19972199Y-7130610D02*
X19953151Y-7102039D01*
X19953151Y-7102039D02*
X19943628Y-7082991D01*
X19943628Y-7082991D02*
X19934104Y-7054420D01*
X19934104Y-7054420D02*
X19924580Y-7006801D01*
X19924580Y-7006801D02*
X19924580Y-6968706D01*
X19924580Y-6968706D02*
X19934104Y-6921087D01*
X19934104Y-6921087D02*
X19943628Y-6892515D01*
X19943628Y-6892515D02*
X19953151Y-6873468D01*
X19953151Y-6873468D02*
X19972199Y-6844896D01*
X19972199Y-6844896D02*
X19981723Y-6835372D01*
X20162675Y-7063944D02*
X20048390Y-7063944D01*
X20105532Y-7063944D02*
X20105532Y-6863944D01*
X20105532Y-6863944D02*
X20086485Y-6892515D01*
X20086485Y-6892515D02*
X20067437Y-6911563D01*
X20067437Y-6911563D02*
X20048390Y-6921087D01*
X20238866Y-6882991D02*
X20248390Y-6873468D01*
X20248390Y-6873468D02*
X20267437Y-6863944D01*
X20267437Y-6863944D02*
X20315056Y-6863944D01*
X20315056Y-6863944D02*
X20334104Y-6873468D01*
X20334104Y-6873468D02*
X20343628Y-6882991D01*
X20343628Y-6882991D02*
X20353151Y-6902039D01*
X20353151Y-6902039D02*
X20353151Y-6921087D01*
X20353151Y-6921087D02*
X20343628Y-6949658D01*
X20343628Y-6949658D02*
X20229342Y-7063944D01*
X20229342Y-7063944D02*
X20353151Y-7063944D01*
X20591247Y-7063944D02*
X20591247Y-6863944D01*
X20676961Y-7063944D02*
X20676961Y-6959182D01*
X20676961Y-6959182D02*
X20667437Y-6940134D01*
X20667437Y-6940134D02*
X20648390Y-6930610D01*
X20648390Y-6930610D02*
X20619818Y-6930610D01*
X20619818Y-6930610D02*
X20600771Y-6940134D01*
X20600771Y-6940134D02*
X20591247Y-6949658D01*
X20800771Y-7063944D02*
X20781723Y-7054420D01*
X20781723Y-7054420D02*
X20772199Y-7044896D01*
X20772199Y-7044896D02*
X20762675Y-7025848D01*
X20762675Y-7025848D02*
X20762675Y-6968706D01*
X20762675Y-6968706D02*
X20772199Y-6949658D01*
X20772199Y-6949658D02*
X20781723Y-6940134D01*
X20781723Y-6940134D02*
X20800771Y-6930610D01*
X20800771Y-6930610D02*
X20829342Y-6930610D01*
X20829342Y-6930610D02*
X20848390Y-6940134D01*
X20848390Y-6940134D02*
X20857913Y-6949658D01*
X20857913Y-6949658D02*
X20867437Y-6968706D01*
X20867437Y-6968706D02*
X20867437Y-7025848D01*
X20867437Y-7025848D02*
X20857913Y-7044896D01*
X20857913Y-7044896D02*
X20848390Y-7054420D01*
X20848390Y-7054420D02*
X20829342Y-7063944D01*
X20829342Y-7063944D02*
X20800771Y-7063944D01*
X20981723Y-7063944D02*
X20962675Y-7054420D01*
X20962675Y-7054420D02*
X20953152Y-7035372D01*
X20953152Y-7035372D02*
X20953152Y-6863944D01*
X21134104Y-7054420D02*
X21115056Y-7063944D01*
X21115056Y-7063944D02*
X21076961Y-7063944D01*
X21076961Y-7063944D02*
X21057913Y-7054420D01*
X21057913Y-7054420D02*
X21048390Y-7035372D01*
X21048390Y-7035372D02*
X21048390Y-6959182D01*
X21048390Y-6959182D02*
X21057913Y-6940134D01*
X21057913Y-6940134D02*
X21076961Y-6930610D01*
X21076961Y-6930610D02*
X21115056Y-6930610D01*
X21115056Y-6930610D02*
X21134104Y-6940134D01*
X21134104Y-6940134D02*
X21143628Y-6959182D01*
X21143628Y-6959182D02*
X21143628Y-6978229D01*
X21143628Y-6978229D02*
X21048390Y-6997277D01*
X21219818Y-7054420D02*
X21238866Y-7063944D01*
X21238866Y-7063944D02*
X21276961Y-7063944D01*
X21276961Y-7063944D02*
X21296009Y-7054420D01*
X21296009Y-7054420D02*
X21305533Y-7035372D01*
X21305533Y-7035372D02*
X21305533Y-7025848D01*
X21305533Y-7025848D02*
X21296009Y-7006801D01*
X21296009Y-7006801D02*
X21276961Y-6997277D01*
X21276961Y-6997277D02*
X21248390Y-6997277D01*
X21248390Y-6997277D02*
X21229342Y-6987753D01*
X21229342Y-6987753D02*
X21219818Y-6968706D01*
X21219818Y-6968706D02*
X21219818Y-6959182D01*
X21219818Y-6959182D02*
X21229342Y-6940134D01*
X21229342Y-6940134D02*
X21248390Y-6930610D01*
X21248390Y-6930610D02*
X21276961Y-6930610D01*
X21276961Y-6930610D02*
X21296009Y-6940134D01*
X21372199Y-7140134D02*
X21381723Y-7130610D01*
X21381723Y-7130610D02*
X21400771Y-7102039D01*
X21400771Y-7102039D02*
X21410294Y-7082991D01*
X21410294Y-7082991D02*
X21419818Y-7054420D01*
X21419818Y-7054420D02*
X21429342Y-7006801D01*
X21429342Y-7006801D02*
X21429342Y-6968706D01*
X21429342Y-6968706D02*
X21419818Y-6921087D01*
X21419818Y-6921087D02*
X21410294Y-6892515D01*
X21410294Y-6892515D02*
X21400771Y-6873468D01*
X21400771Y-6873468D02*
X21381723Y-6844896D01*
X21381723Y-6844896D02*
X21372199Y-6835372D01*
M02*
